<?xml version="1.0" encoding="UTF-8" standalone="no"?>
<!-- Generator: Adobe Illustrator 25.2.1, SVG Export Plug-In . SVG Version: 6.00 Build 0)  -->

<svg
   xmlns:dc="http://purl.org/dc/elements/1.1/"
   xmlns:cc="http://creativecommons.org/ns#"
   xmlns:rdf="http://www.w3.org/1999/02/22-rdf-syntax-ns#"
   xmlns:svg="http://www.w3.org/2000/svg"
   xmlns="http://www.w3.org/2000/svg"
   xmlns:sodipodi="http://sodipodi.sourceforge.net/DTD/sodipodi-0.dtd"
   xmlns:inkscape="http://www.inkscape.org/namespaces/inkscape"
   version="1.1"
   id="Layer_1"
   x="0px"
   y="0px"
   viewBox="0 0 381.51813 104.937"
   xml:space="preserve"
   sodipodi:docname="Global-Business-Watch-Ekin-SVG_cropped.svg"
   width="381.51813"
   height="104.937"
   inkscape:version="0.92.3 (2405546, 2018-03-11)"><metadata
   id="metadata51"><rdf:RDF><cc:Work
       rdf:about=""><dc:format>image/svg+xml</dc:format><dc:type
         rdf:resource="http://purl.org/dc/dcmitype/StillImage" /></cc:Work></rdf:RDF></metadata><defs
   id="defs49" /><sodipodi:namedview
   pagecolor="#ffffff"
   bordercolor="#666666"
   borderopacity="1"
   objecttolerance="10"
   gridtolerance="10"
   guidetolerance="10"
   inkscape:pageopacity="0"
   inkscape:pageshadow="2"
   inkscape:window-width="640"
   inkscape:window-height="480"
   id="namedview47"
   showgrid="false"
   inkscape:zoom="0.835"
   inkscape:cx="191.81814"
   inkscape:cy="54.937"
   inkscape:window-x="0"
   inkscape:window-y="0"
   inkscape:window-maximized="0"
   inkscape:current-layer="Layer_1" />
<style
   type="text/css"
   id="style2">
	.st0{fill:#D0D2D3;stroke:#2E3191;stroke-width:3;stroke-miterlimit:10;}
	.st1{fill:#2E3191;}
</style>
<path
   class="st0"
   d="m 380.01814,24.6 v 48.9 c 0,10.3 -8.3,18.6 -18.6,18.6 H 55.818137 c -23.6,0 -43,-18.8 -43.3,-42.4 -0.2,-10.9 3.8,-21 10.3,-28.7 0.2,-0.2 0.4,-0.4 0.6,-0.7 0.1,-0.1 0.2,-0.2 0.3,-0.3 0,0 0,0 0,0 0.1,-0.1 0.2,-0.2 0.3,-0.4 0.1,-0.1 0.2,-0.3 0.4,-0.4 0.4,-0.4 0.7,-0.7 1.1,-1.1 0.1,-0.1 0.2,-0.2 0.4,-0.4 0,0 0,0 0,0 0.2,-0.2 0.4,-0.4 0.6,-0.6 0.1,-0.1 0.3,-0.3 0.4,-0.4 0.2,-0.2 0.5,-0.4 0.7,-0.6 2.5,-2.1 5.2,-4 8.1,-5.5 5.9,-3.1 12.7,-4.8 19.8,-4.8 H 361.31814 c 10.4,0.2 18.7,8.5 18.7,18.8 z"
   id="path4"
   inkscape:connector-curvature="0"
   style="fill:#d0d2d3;stroke:#2e3191;stroke-width:3;stroke-miterlimit:10" />
<path
   class="st1"
   d="m 139.31814,22 c 2.7,0 5,0.4 6.8,1.3 l -0.7,3.9 c -1.8,-0.7 -3.7,-1.1 -5.6,-1.1 -1,0 -2,0.1 -2.8,0.4 -0.8,0.3 -1.5,0.7 -2.1,1.3 -0.6,0.6 -1.1,1.3 -1.4,2.2 -0.3,0.9 -0.5,1.9 -0.5,3.2 0,2.2 0.6,3.8 1.7,4.9 1.1,1.1 2.8,1.7 5,1.7 0.5,0 0.9,0 1.4,-0.1 0.4,-0.1 0.8,-0.2 1.1,-0.3 v -5.9 h 4.6 v 8.6 c -0.9,0.4 -2,0.8 -3.4,1.1 -1.4,0.3 -2.8,0.4 -4.3,0.4 -1.7,0 -3.3,-0.3 -4.7,-0.8 -1.4,-0.5 -2.5,-1.2 -3.5,-2.1 -1,-0.9 -1.7,-2 -2.2,-3.3 -0.5,-1.3 -0.8,-2.7 -0.8,-4.3 0,-1.7 0.3,-3.2 0.8,-4.5 0.5,-1.4 1.3,-2.5 2.2,-3.5 1,-1 2.2,-1.7 3.6,-2.2 1.4,-0.6 3,-0.9 4.8,-0.9 z"
   id="path6"
   inkscape:connector-curvature="0"
   style="fill:#2e3191" />
<path
   class="st1"
   d="m 155.21814,38.5 c 0,0.4 0.1,0.7 0.2,0.9 0.2,0.2 0.5,0.3 1,0.3 0.3,0 0.6,0 1.1,-0.1 l 0.2,3.4 c -0.4,0.1 -0.9,0.2 -1.4,0.3 -0.5,0.1 -1.1,0.1 -1.6,0.1 -0.8,0 -1.5,-0.1 -2.1,-0.4 -0.6,-0.2 -1,-0.6 -1.3,-1 -0.3,-0.4 -0.6,-0.9 -0.7,-1.4 -0.1,-0.5 -0.2,-1.1 -0.2,-1.6 V 21.2 h 5 v 17.3 z"
   id="path8"
   inkscape:connector-curvature="0"
   style="fill:#2e3191" />
<path
   class="st1"
   d="m 175.01814,35.6 c 0,1.1 -0.2,2.2 -0.5,3.1 -0.4,1 -0.9,1.8 -1.6,2.5 -0.7,0.7 -1.5,1.3 -2.6,1.7 -1,0.4 -2.2,0.6 -3.5,0.6 -1.3,0 -2.5,-0.2 -3.5,-0.6 -1,-0.4 -1.9,-1 -2.6,-1.7 -0.7,-0.7 -1.2,-1.6 -1.6,-2.5 -0.4,-1 -0.5,-2 -0.5,-3.1 0,-1.1 0.2,-2.2 0.5,-3.1 0.4,-1 0.9,-1.8 1.6,-2.5 0.7,-0.7 1.5,-1.3 2.6,-1.7 1,-0.4 2.2,-0.6 3.5,-0.6 1.3,0 2.5,0.2 3.5,0.6 1,0.4 1.9,1 2.6,1.7 0.7,0.7 1.2,1.6 1.6,2.5 0.3,0.9 0.5,1.9 0.5,3.1 z m -5,0 c 0,-0.5 -0.1,-1.1 -0.2,-1.6 -0.1,-0.5 -0.3,-1 -0.5,-1.4 -0.2,-0.4 -0.6,-0.7 -1,-1 -0.4,-0.2 -0.9,-0.4 -1.5,-0.4 -0.6,0 -1.1,0.1 -1.5,0.4 -0.4,0.2 -0.7,0.6 -1,1 -0.2,0.4 -0.4,0.9 -0.5,1.4 -0.1,0.5 -0.2,1 -0.2,1.6 0,0.5 0.1,1.1 0.2,1.6 0.1,0.5 0.3,1 0.5,1.4 0.2,0.4 0.6,0.7 1,1 0.4,0.2 0.9,0.4 1.5,0.4 0.6,0 1.1,-0.1 1.5,-0.4 0.4,-0.2 0.7,-0.6 1,-1 0.2,-0.4 0.4,-0.9 0.5,-1.4 0.2,-0.6 0.2,-1.1 0.2,-1.6 z"
   id="path10"
   inkscape:connector-curvature="0"
   style="fill:#2e3191" />
<path
   class="st1"
   d="m 177.61814,21.2 h 5 v 7.9 c 0.4,-0.4 1,-0.8 1.6,-1.1 0.6,-0.3 1.4,-0.4 2.3,-0.4 1,0 1.9,0.2 2.7,0.6 0.8,0.4 1.5,0.9 2.1,1.6 0.6,0.7 1,1.5 1.3,2.5 0.3,1 0.5,2 0.5,3.2 0,1.1 -0.2,2.1 -0.5,3.1 -0.4,1 -0.9,1.8 -1.6,2.6 -0.7,0.7 -1.6,1.3 -2.7,1.7 -1.1,0.4 -2.4,0.6 -3.9,0.6 -1.2,0 -2.4,-0.1 -3.6,-0.4 -1.1,-0.3 -2.2,-0.6 -3.1,-1.1 V 21.2 Z m 7.5,10.2 c -0.9,0 -1.8,0.3 -2.5,0.8 v 7.2 c 0.2,0.1 0.5,0.2 0.8,0.2 0.3,0.1 0.6,0.1 1,0.1 0.6,0 1.2,-0.1 1.7,-0.3 0.5,-0.2 0.9,-0.5 1.2,-0.9 0.3,-0.4 0.5,-0.9 0.7,-1.4 0.1,-0.5 0.2,-1.1 0.2,-1.7 0,-1.2 -0.2,-2.2 -0.7,-3 -0.6,-0.6 -1.3,-1 -2.4,-1 z"
   id="path12"
   inkscape:connector-curvature="0"
   style="fill:#2e3191" />
<path
   class="st1"
   d="m 204.21814,41.7 c -0.5,0.5 -1.1,0.9 -2,1.3 -0.8,0.4 -1.7,0.5 -2.7,0.5 -0.7,0 -1.3,-0.1 -1.8,-0.3 -0.5,-0.2 -1,-0.5 -1.4,-0.9 -0.4,-0.4 -0.6,-0.9 -0.8,-1.4 -0.2,-0.5 -0.3,-1.1 -0.3,-1.7 0,-1.4 0.4,-2.5 1.3,-3.2 0.9,-0.7 2.1,-1.1 3.8,-1.3 0.6,0 1.2,-0.1 1.9,-0.1 0.7,0 1.3,0 1.8,-0.1 V 34 c 0,-1.7 -0.9,-2.5 -2.8,-2.5 -0.7,0 -1.4,0.1 -2.1,0.2 -0.7,0.2 -1.3,0.4 -1.9,0.7 l -0.9,-3.5 c 0.7,-0.4 1.6,-0.8 2.6,-1 1,-0.3 2.1,-0.4 3.2,-0.4 2.1,0 3.8,0.6 5,1.7 1.2,1.1 1.8,2.8 1.8,5 v 8.9 h -4.8 v -1.4 z m -2.7,-1.5 c 0.5,0 0.9,-0.1 1.4,-0.2 0.4,-0.1 0.8,-0.3 1.2,-0.5 v -2.3 c -0.5,0 -0.9,0.1 -1.3,0.1 -0.4,0.1 -0.8,0.1 -1.2,0.1 -1,0.1 -1.5,0.6 -1.5,1.4 0,0.4 0.1,0.7 0.4,0.9 0.1,0.4 0.5,0.5 1,0.5 z"
   id="path14"
   inkscape:connector-curvature="0"
   style="fill:#2e3191" />
<path
   class="st1"
   d="m 217.31814,38.5 c 0,0.4 0.1,0.7 0.2,0.9 0.2,0.2 0.5,0.3 1,0.3 0.3,0 0.6,0 1.1,-0.1 l 0.2,3.4 c -0.4,0.1 -0.9,0.2 -1.4,0.3 -0.5,0.1 -1.1,0.1 -1.6,0.1 -0.8,0 -1.5,-0.1 -2.1,-0.4 -0.6,-0.2 -1,-0.6 -1.3,-1 -0.3,-0.4 -0.6,-0.9 -0.7,-1.4 -0.1,-0.5 -0.2,-1.1 -0.2,-1.6 V 21.2 h 5 v 17.3 z"
   id="path16"
   inkscape:connector-curvature="0"
   style="fill:#2e3191" />
<path
   class="st1"
   d="m 244.11814,37.3 c 0,0.9 -0.2,1.8 -0.6,2.5 -0.4,0.7 -1,1.3 -1.8,1.8 -0.8,0.5 -1.7,0.9 -2.8,1.1 -1.1,0.3 -2.3,0.4 -3.6,0.4 h -6.5 V 22.4 h 7.5 c 1.1,0 2.1,0.1 3,0.4 0.9,0.3 1.6,0.6 2.2,1 0.6,0.4 1.1,0.9 1.4,1.5 0.3,0.6 0.5,1.2 0.5,1.9 0,1.3 -0.4,2.4 -1.1,3.2 -0.7,0.8 -1.8,1.5 -3.1,1.9 0.7,0.1 1.4,0.3 2,0.6 0.6,0.3 1.1,0.6 1.6,1 0.4,0.4 0.8,0.9 1,1.5 0.2,0.6 0.3,1.2 0.3,1.9 z m -8.8,-6.6 c 0.9,0 1.6,-0.2 2.2,-0.6 0.6,-0.4 0.8,-1 0.8,-1.8 0,-0.7 -0.2,-1.2 -0.7,-1.6 -0.5,-0.4 -1.2,-0.6 -2,-0.6 h -1.8 v 4.5 h 1.5 z m 3.8,6.2 c 0,-0.8 -0.3,-1.4 -1,-1.8 -0.6,-0.4 -1.5,-0.6 -2.6,-0.6 h -1.7 v 4.9 h 1.8 c 1.2,0 2.1,-0.2 2.7,-0.7 0.5,-0.5 0.8,-1.1 0.8,-1.8 z"
   id="path18"
   inkscape:connector-curvature="0"
   style="fill:#2e3191" />
<path
   class="st1"
   d="m 261.41814,27.9 v 15.3 h -4.8 v -2 c -0.6,0.9 -1.2,1.5 -2,1.8 -0.7,0.3 -1.5,0.5 -2.3,0.5 -1,0 -1.9,-0.2 -2.6,-0.6 -0.7,-0.4 -1.3,-1 -1.7,-1.7 -0.4,-0.7 -0.7,-1.5 -0.9,-2.5 -0.2,-0.9 -0.3,-1.9 -0.3,-2.9 v -7.9 h 5 v 8 c 0,1.3 0.2,2.2 0.5,2.8 0.4,0.6 0.9,0.9 1.7,0.9 0.5,0 1,-0.1 1.4,-0.3 0.4,-0.2 0.7,-0.5 0.9,-0.8 V 27.9 Z"
   id="path20"
   inkscape:connector-curvature="0"
   style="fill:#2e3191" />
<path
   class="st1"
   d="m 276.01814,38.2 c 0,0.9 -0.2,1.6 -0.5,2.3 -0.3,0.7 -0.8,1.2 -1.4,1.7 -0.6,0.4 -1.3,0.8 -2.1,1 -0.8,0.2 -1.7,0.3 -2.7,0.3 -0.8,0 -1.7,-0.1 -2.6,-0.2 -0.9,-0.2 -1.7,-0.4 -2.5,-0.7 l 0.7,-3.5 c 0.6,0.3 1.4,0.5 2.1,0.6 0.8,0.1 1.5,0.2 2,0.2 0.6,0 1.1,-0.1 1.6,-0.3 0.4,-0.2 0.7,-0.5 0.7,-0.9 0,-0.4 -0.2,-0.6 -0.6,-0.8 -0.4,-0.2 -1,-0.4 -1.8,-0.7 -0.6,-0.2 -1.2,-0.5 -1.8,-0.8 -0.6,-0.3 -1,-0.6 -1.5,-1 -0.4,-0.4 -0.7,-0.8 -1,-1.3 -0.2,-0.5 -0.3,-1.1 -0.3,-1.7 0,-1.7 0.6,-2.9 1.7,-3.7 1.1,-0.8 2.6,-1.2 4.4,-1.2 1,0 1.8,0.1 2.6,0.3 0.8,0.2 1.6,0.5 2.3,0.9 l -0.7,3.3 c -0.6,-0.2 -1.2,-0.5 -1.8,-0.6 -0.6,-0.2 -1.3,-0.2 -2,-0.2 -0.6,0 -1.1,0.1 -1.4,0.2 -0.3,0.1 -0.5,0.3 -0.5,0.7 0,0.4 0.2,0.6 0.6,0.8 0.4,0.2 0.9,0.3 1.5,0.6 0.5,0.2 1,0.4 1.5,0.6 0.6,0.2 1.1,0.5 1.6,0.9 0.5,0.4 0.9,0.8 1.2,1.4 0.5,0.4 0.7,1.1 0.7,1.8 z"
   id="path22"
   inkscape:connector-curvature="0"
   style="fill:#2e3191" />
<path
   class="st1"
   d="m 278.41814,23.4 c 0,-0.8 0.3,-1.5 0.8,-2 0.5,-0.5 1.2,-0.8 2,-0.8 0.8,0 1.5,0.3 2,0.8 0.5,0.5 0.8,1.2 0.8,2 0,0.8 -0.3,1.5 -0.8,2 -0.5,0.5 -1.2,0.8 -2,0.8 -0.8,0 -1.5,-0.3 -2,-0.8 -0.6,-0.5 -0.8,-1.2 -0.8,-2 z m 0.3,19.8 V 27.9 h 5 v 15.3 z"
   id="path24"
   inkscape:connector-curvature="0"
   style="fill:#2e3191" />
<path
   class="st1"
   d="M 287.41814,43.2 V 27.9 h 4.8 v 2 c 0.5,-0.8 1.1,-1.4 1.9,-1.8 0.8,-0.4 1.6,-0.5 2.4,-0.5 1,0 1.9,0.2 2.6,0.6 0.7,0.4 1.3,1 1.7,1.7 0.4,0.7 0.8,1.5 1,2.5 0.2,0.9 0.3,1.9 0.3,2.9 v 7.9 h -5 v -8 c 0,-1.3 -0.2,-2.2 -0.6,-2.8 -0.4,-0.6 -1,-0.9 -1.8,-0.9 -0.5,0 -1,0.1 -1.4,0.3 -0.4,0.2 -0.7,0.5 -0.9,0.8 v 10.5 h -5 z"
   id="path26"
   inkscape:connector-curvature="0"
   style="fill:#2e3191" />
<path
   class="st1"
   d="m 312.41814,27.6 c 2,0 3.6,0.6 4.7,1.8 1.2,1.2 1.7,2.8 1.7,4.9 0,0.8 -0.1,1.6 -0.3,2.5 h -8.7 c 0,0.9 0.4,1.7 1,2.3 0.6,0.6 1.5,0.9 2.7,0.9 0.7,0 1.5,-0.1 2.4,-0.2 0.8,-0.1 1.5,-0.3 2.1,-0.6 l 0.6,3.2 c -0.8,0.4 -1.7,0.7 -2.7,0.9 -1,0.2 -2,0.3 -3.1,0.3 -1.3,0 -2.5,-0.2 -3.5,-0.6 -1,-0.4 -1.9,-0.9 -2.6,-1.6 -0.7,-0.7 -1.2,-1.5 -1.6,-2.5 -0.4,-1 -0.5,-2 -0.5,-3.2 0,-1.2 0.2,-2.4 0.5,-3.4 0.4,-1 0.9,-1.8 1.6,-2.5 0.7,-0.7 1.5,-1.2 2.5,-1.6 0.9,-0.4 2,-0.6 3.2,-0.6 z m -0.2,3.2 c -0.8,0 -1.4,0.3 -1.8,0.8 -0.4,0.5 -0.6,1.2 -0.6,2.1 h 4.4 c 0,-0.2 0.1,-0.3 0.1,-0.5 0,-0.7 -0.2,-1.2 -0.5,-1.7 -0.4,-0.5 -0.9,-0.7 -1.6,-0.7 z"
   id="path28"
   inkscape:connector-curvature="0"
   style="fill:#2e3191" />
<path
   class="st1"
   d="m 332.81814,38.2 c 0,0.9 -0.2,1.6 -0.5,2.3 -0.3,0.7 -0.8,1.2 -1.4,1.7 -0.6,0.4 -1.3,0.8 -2.1,1 -0.8,0.2 -1.7,0.3 -2.7,0.3 -0.8,0 -1.7,-0.1 -2.6,-0.2 -0.9,-0.2 -1.7,-0.4 -2.5,-0.7 l 0.7,-3.5 c 0.6,0.3 1.4,0.5 2.1,0.6 0.8,0.1 1.5,0.2 2,0.2 0.6,0 1.1,-0.1 1.6,-0.3 0.4,-0.2 0.7,-0.5 0.7,-0.9 0,-0.4 -0.2,-0.6 -0.6,-0.8 -0.4,-0.2 -1,-0.4 -1.8,-0.7 -0.6,-0.2 -1.2,-0.5 -1.8,-0.8 -0.6,-0.3 -1,-0.6 -1.5,-1 -0.4,-0.4 -0.7,-0.8 -1,-1.3 -0.2,-0.5 -0.3,-1.1 -0.3,-1.7 0,-1.7 0.6,-2.9 1.7,-3.7 1.1,-0.8 2.6,-1.2 4.4,-1.2 1,0 1.8,0.1 2.6,0.3 0.8,0.2 1.6,0.5 2.3,0.9 l -0.7,3.3 c -0.6,-0.2 -1.2,-0.5 -1.8,-0.6 -0.6,-0.2 -1.3,-0.2 -2,-0.2 -0.6,0 -1.1,0.1 -1.4,0.2 -0.3,0.1 -0.5,0.3 -0.5,0.7 0,0.4 0.2,0.6 0.6,0.8 0.4,0.2 0.9,0.3 1.5,0.6 0.5,0.2 1,0.4 1.5,0.6 0.6,0.2 1.1,0.5 1.6,0.9 0.5,0.4 0.9,0.8 1.2,1.4 0.5,0.4 0.7,1.1 0.7,1.8 z"
   id="path30"
   inkscape:connector-curvature="0"
   style="fill:#2e3191" />
<path
   class="st1"
   d="m 346.41814,38.2 c 0,0.9 -0.2,1.6 -0.5,2.3 -0.3,0.7 -0.8,1.2 -1.4,1.7 -0.6,0.4 -1.3,0.8 -2.1,1 -0.8,0.2 -1.7,0.3 -2.7,0.3 -0.8,0 -1.7,-0.1 -2.6,-0.2 -0.9,-0.2 -1.7,-0.4 -2.5,-0.7 l 0.7,-3.5 c 0.6,0.3 1.4,0.5 2.1,0.6 0.8,0.1 1.5,0.2 2,0.2 0.6,0 1.1,-0.1 1.6,-0.3 0.4,-0.2 0.7,-0.5 0.7,-0.9 0,-0.4 -0.2,-0.6 -0.6,-0.8 -0.4,-0.2 -1,-0.4 -1.8,-0.7 -0.6,-0.2 -1.2,-0.5 -1.8,-0.8 -0.6,-0.3 -1,-0.6 -1.5,-1 -0.4,-0.4 -0.7,-0.8 -1,-1.3 -0.2,-0.5 -0.3,-1.1 -0.3,-1.7 0,-1.7 0.6,-2.9 1.7,-3.7 1.1,-0.8 2.6,-1.2 4.4,-1.2 1,0 1.8,0.1 2.6,0.3 0.8,0.2 1.6,0.5 2.3,0.9 l -0.7,3.3 c -0.6,-0.2 -1.2,-0.5 -1.8,-0.6 -0.6,-0.2 -1.3,-0.2 -2,-0.2 -0.6,0 -1.1,0.1 -1.4,0.2 -0.3,0.1 -0.5,0.3 -0.5,0.7 0,0.4 0.2,0.6 0.6,0.8 0.4,0.2 0.9,0.3 1.5,0.6 0.5,0.2 1,0.4 1.5,0.6 0.6,0.2 1.1,0.5 1.6,0.9 0.5,0.4 0.9,0.8 1.2,1.4 0.5,0.4 0.7,1.1 0.7,1.8 z"
   id="path32"
   inkscape:connector-curvature="0"
   style="fill:#2e3191" />
<path
   class="st1"
   d="m 279.11814,69.6 3.2,-14.4 h 5.2 l -5.7,20.8 h -5.2 l -4.2,-15.6 -4.2,15.6 h -5.2 l -5.7,-20.8 h 5.2 l 3.2,14.4 3.9,-14.4 h 5.7 z"
   id="path34"
   inkscape:connector-curvature="0"
   style="fill:#2e3191" />
<path
   class="st1"
   d="m 297.21814,74.4 c -0.5,0.5 -1.1,0.9 -2,1.3 -0.8,0.4 -1.7,0.5 -2.7,0.5 -0.7,0 -1.3,-0.1 -1.8,-0.3 -0.5,-0.2 -1,-0.5 -1.4,-0.9 -0.4,-0.4 -0.6,-0.9 -0.8,-1.4 -0.2,-0.5 -0.3,-1.1 -0.3,-1.7 0,-1.4 0.4,-2.5 1.3,-3.2 0.9,-0.7 2.1,-1.1 3.8,-1.3 0.6,0 1.2,-0.1 1.9,-0.1 0.7,0 1.3,0 1.8,-0.1 v -0.5 c 0,-1.7 -0.9,-2.5 -2.8,-2.5 -0.7,0 -1.4,0.1 -2.1,0.2 -0.7,0.2 -1.3,0.4 -1.9,0.7 l -0.9,-3.5 c 0.7,-0.4 1.6,-0.8 2.6,-1 1,-0.3 2.1,-0.4 3.2,-0.4 2.1,0 3.8,0.6 5,1.7 1.2,1.1 1.8,2.8 1.8,5 v 8.9 h -4.8 v -1.4 z m -2.7,-1.4 c 0.5,0 0.9,-0.1 1.4,-0.2 0.4,-0.1 0.8,-0.3 1.2,-0.5 V 70 c -0.5,0 -0.9,0.1 -1.3,0.1 -0.4,0.1 -0.8,0.1 -1.2,0.1 -1,0.1 -1.5,0.6 -1.5,1.4 0,0.4 0.1,0.7 0.4,0.9 0.1,0.3 0.5,0.5 1,0.5 z"
   id="path36"
   inkscape:connector-curvature="0"
   style="fill:#2e3191" />
<path
   class="st1"
   d="m 303.91814,60.6 h 2.3 v -4 h 5 v 4 h 4.4 v 3.8 h -4.4 v 6 c 0,0.6 0.1,1.1 0.4,1.4 0.3,0.3 0.7,0.5 1.4,0.5 0.4,0 0.8,0 1.1,-0.1 0.4,-0.1 0.8,-0.1 1.1,-0.2 l 0.3,3.5 c -0.5,0.2 -1.1,0.4 -1.8,0.5 -0.7,0.1 -1.5,0.2 -2.2,0.2 -1,0 -1.8,-0.2 -2.5,-0.5 -0.7,-0.3 -1.2,-0.7 -1.7,-1.2 -0.4,-0.5 -0.7,-1.1 -0.9,-1.8 -0.2,-0.7 -0.3,-1.4 -0.3,-2.2 v -6.1 h -2.3 v -3.8 z"
   id="path38"
   inkscape:connector-curvature="0"
   style="fill:#2e3191" />
<path
   class="st1"
   d="m 325.41814,60.3 c 0.8,0 1.6,0.1 2.3,0.2 0.8,0.2 1.4,0.4 2,0.7 l -0.5,3.6 c -0.4,-0.2 -0.9,-0.3 -1.4,-0.4 -0.6,-0.1 -1.1,-0.2 -1.7,-0.2 -1.3,0 -2.3,0.4 -3,1.1 -0.7,0.7 -1,1.7 -1,3 0,1.3 0.3,2.3 1,3 0.7,0.7 1.7,1.1 3,1.1 0.6,0 1.1,-0.1 1.7,-0.2 0.6,-0.1 1,-0.3 1.4,-0.4 l 0.5,3.6 c -0.6,0.3 -1.2,0.5 -2,0.7 -0.8,0.2 -1.5,0.2 -2.3,0.2 -1.3,0 -2.5,-0.2 -3.5,-0.6 -1,-0.4 -1.9,-0.9 -2.6,-1.6 -0.7,-0.7 -1.2,-1.5 -1.6,-2.5 -0.4,-1 -0.6,-2.1 -0.6,-3.2 0,-1.2 0.2,-2.3 0.6,-3.2 0.4,-1 0.9,-1.8 1.6,-2.5 0.7,-0.7 1.6,-1.2 2.6,-1.6 1,-0.6 2.2,-0.8 3.5,-0.8 z"
   id="path40"
   inkscape:connector-curvature="0"
   style="fill:#2e3191" />
<path
   class="st1"
   d="m 332.31814,75.9 v -22 h 5 v 8.6 c 0.5,-0.7 1.1,-1.3 1.8,-1.6 0.7,-0.3 1.5,-0.5 2.3,-0.5 1,0 1.9,0.2 2.6,0.6 0.7,0.4 1.3,1 1.7,1.7 0.4,0.7 0.8,1.5 1,2.5 0.2,0.9 0.3,1.9 0.3,2.9 V 76 h -5 v -8 c 0,-1.3 -0.2,-2.2 -0.6,-2.8 -0.4,-0.6 -1,-0.9 -1.8,-0.9 -0.5,0 -1,0.1 -1.4,0.3 -0.4,0.2 -0.7,0.5 -0.9,0.8 v 10.5 z"
   id="path42"
   inkscape:connector-curvature="0"
   style="fill:#2e3191" />
<path
   class="st1"
   d="m 81.118137,98.7 c -27.3,14.1 -60.8,3.5 -74.9000004,-23.8 -14.1,-27.3 -3.4,-60.8 23.8000004,-74.9 l 5.8,11.2 c -21,10.9 -29.3000004,36.8 -18.4,57.9 10.9,21.1 36.8,29.3 57.9,18.4 17.7,-9.2 26.300003,-28.9 22.2,-47.5 l -9.6,5 v 0 l -9.8,21.5 -4.9,-2.3 7,-15.2 -19.4,10 -17.3,9.1 -3.1,-5.9 17.1,-9 0.2,-0.1 38.3,-20 -0.9,-1.7 -38.2,19.9 v 0 l -17.3,9.2 -3.2,-6.2 0.3,-0.1 h -0.1 l 11.1,-24.2 4.9,2.3 -8.2,17.9 9.3,-4.9 v 0 l 49.100003,-25.4 6.3,14.2 c 7.1,24.8 -4.1,52.2 -28.000003,64.6 z"
   id="path44"
   inkscape:connector-curvature="0"
   style="fill:#2e3191" />
</svg>