<?xml version="1.0" encoding="UTF-8" standalone="no"?>
<!-- Creator: CorelDRAW X7 -->

<svg
   xmlns:dc="http://purl.org/dc/elements/1.1/"
   xmlns:cc="http://creativecommons.org/ns#"
   xmlns:rdf="http://www.w3.org/1999/02/22-rdf-syntax-ns#"
   xmlns:svg="http://www.w3.org/2000/svg"
   xmlns="http://www.w3.org/2000/svg"
   xmlns:sodipodi="http://sodipodi.sourceforge.net/DTD/sodipodi-0.dtd"
   xmlns:inkscape="http://www.inkscape.org/namespaces/inkscape"
   xml:space="preserve"
   width="9.8415108in"
   height="2.9499872in"
   version="1.0"
   viewBox="0 0 984151.94 294998.71"
   id="svg14"
   sodipodi:docname="latamtechnologyreporter-logo-b35-Replaces-b25-SVG_cropped.svg"
   style="clip-rule:evenodd;fill-rule:evenodd;image-rendering:optimizeQuality;shape-rendering:geometricPrecision;text-rendering:geometricPrecision"
   inkscape:version="0.92.3 (2405546, 2018-03-11)"><metadata
   id="metadata20"><rdf:RDF><cc:Work
       rdf:about=""><dc:format>image/svg+xml</dc:format><dc:type
         rdf:resource="http://purl.org/dc/dcmitype/StillImage" /></cc:Work></rdf:RDF></metadata><defs
   id="defs18" /><sodipodi:namedview
   pagecolor="#ffffff"
   bordercolor="#666666"
   borderopacity="1"
   objecttolerance="10"
   gridtolerance="10"
   guidetolerance="10"
   inkscape:pageopacity="0"
   inkscape:pageshadow="2"
   inkscape:window-width="640"
   inkscape:window-height="480"
   id="namedview16"
   showgrid="false"
   inkscape:zoom="0.29734114"
   inkscape:cx="472.39207"
   inkscape:cy="-12.514533"
   inkscape:window-x="0"
   inkscape:window-y="0"
   inkscape:window-maximized="0"
   inkscape:current-layer="svg14" />
 <g
   id="Layer_x0020_3"
   transform="translate(-92570,-105351.41)">
  <metadata
   id="CorelCorpID_0Corel-Layer" />
  <path
   d="M 92689,310452 V 157987 h 14815 v 139150 h 88257 v 13315 z m 110588,0 63778,-152465 h 12240 l 63778,152465 h -16107 l -19756,-47672 h -68502 l -19538,47672 z m 70005,-134858 -31353,75375 h 61846 z m 185106,-4292 H 404058 V 310452 H 389026 V 171302 h -54327 v -13315 h 123689 z m -7945,139150 63778,-152465 h 12240 l 63778,152465 h -16107 l -19756,-47672 h -68502 l -19538,47672 z m 70005,-134858 -31353,75375 h 61846 z M 747427,310452 V 185259 l -55616,96846 h -8805 L 627173,185259 V 310452 H 612358 V 157987 h 15247 l 59697,104362 59696,-104362 h 15246 v 152465 z"
   id="path3"
   inkscape:connector-curvature="0"
   style="fill:#062b57" />
 </g>
 <g
   id="Layer_x0020_4"
   transform="translate(-92570,-105351.41)">
  <metadata
   id="CorelCorpID_1Corel-Layer" />
  <path
   d="m 116261,343480 h -9558 v 24745 h -4536 v -24745 h -9597 v -4009 h 23691 z m 32481,20736 v 4009 h -19726 v -28754 h 19360 v 4009 h -14824 v 8180 h 12839 v 3769 h -12839 v 8787 z m 12999,-10570 c 0,-1730 310,-3450 932,-5165 619,-1714 1518,-3253 2694,-4616 1172,-1364 2610,-2465 4313,-3302 1700,-836 3631,-1256 5789,-1256 2566,0 4772,581 6624,1741 1848,1161 3232,2674 4149,4537 l -3563,2390 c -378,-863 -851,-1592 -1417,-2188 -569,-592 -1182,-1065 -1843,-1417 -660,-351 -1342,-601 -2045,-750 -702,-148 -1390,-220 -2065,-220 -1459,0 -2748,304 -3870,911 -1119,607 -2057,1411 -2813,2408 -756,1000 -1324,2120 -1703,3364 -378,1241 -565,2482 -565,3723 0,1405 223,2742 667,4010 446,1271 1074,2390 1884,3364 810,970 1768,1747 2875,2327 1108,581 2322,869 3647,869 673,0 1384,-86 2125,-261 741,-176 1444,-459 2105,-852 663,-390 1276,-884 1845,-1476 566,-596 1039,-1310 1417,-2146 l 3765,2146 c -458,1078 -1101,2030 -1923,2854 -824,825 -1747,1518 -2774,2087 -1027,566 -2119,997 -3280,1295 -1161,297 -2310,446 -3444,446 -1997,0 -3819,-431 -5468,-1297 -1646,-864 -3069,-1992 -4271,-3382 -1203,-1390 -2135,-2971 -2796,-4739 -660,-1768 -991,-3569 -991,-5405 z m 62733,-14175 v 28754 h -4578 v -12677 h -14500 v 12677 h -4536 v -28754 h 4536 v 12029 h 14500 v -12029 z m 20935,8504 v 20250 h -4537 v -28754 h 3566 l 16443,20735 v -20697 h 4576 v 28716 h -3766 z m 48275,20453 c -2024,0 -3867,-411 -5528,-1235 -1661,-825 -3089,-1917 -4292,-3281 -1203,-1363 -2125,-2923 -2774,-4679 -649,-1753 -973,-3548 -973,-5385 0,-1917 345,-3754 1032,-5510 691,-1753 1640,-3307 2858,-4655 1214,-1352 2658,-2423 4331,-3221 1676,-795 3497,-1193 5468,-1193 2027,0 3870,425 5528,1274 1661,851 3086,1964 4274,3342 1188,1376 2105,2935 2754,4676 649,1742 973,3519 973,5326 0,1917 -345,3754 -1033,5509 -691,1754 -1640,3302 -2858,4638 -1214,1337 -2652,2402 -4313,3200 -1658,795 -3474,1194 -5447,1194 z m -8948,-14580 c 0,1348 208,2658 625,3929 420,1268 1021,2388 1804,3361 783,970 1727,1747 2834,2328 1107,580 2349,872 3727,872 1405,0 2667,-304 3786,-911 1122,-607 2066,-1411 2837,-2411 768,-997 1354,-2120 1759,-3361 408,-1241 610,-2512 610,-3807 0,-1378 -217,-2694 -649,-3950 -431,-1256 -1039,-2360 -1821,-3319 -783,-958 -1730,-1729 -2837,-2310 -1107,-580 -2334,-869 -3685,-869 -1405,0 -2667,304 -3787,911 -1122,607 -2065,1396 -2836,2369 -768,971 -1355,2084 -1760,3340 -404,1256 -607,2530 -607,3828 z m 37256,14377 v -28754 h 4536 v 24745 h 15431 v 4009 z m 44549,203 c -2024,0 -3867,-411 -5528,-1235 -1661,-825 -3090,-1917 -4293,-3281 -1202,-1363 -2125,-2923 -2774,-4679 -648,-1753 -973,-3548 -973,-5385 0,-1917 345,-3754 1033,-5510 690,-1753 1640,-3307 2857,-4655 1215,-1352 2659,-2423 4331,-3221 1676,-795 3498,-1193 5469,-1193 2027,0 3869,425 5527,1274 1661,851 3087,1964 4275,3342 1187,1376 2104,2935 2753,4676 649,1742 973,3519 973,5326 0,1917 -345,3754 -1032,5509 -691,1754 -1640,3302 -2858,4638 -1214,1337 -2652,2402 -4313,3200 -1658,795 -3474,1194 -5447,1194 z m -8948,-14580 c 0,1348 208,2658 625,3929 419,1268 1021,2388 1804,3361 783,970 1726,1747 2834,2328 1107,580 2348,872 3726,872 1405,0 2667,-304 3787,-911 1122,-607 2065,-1411 2836,-2411 768,-997 1355,-2120 1760,-3361 407,-1241 610,-2512 610,-3807 0,-1378 -218,-2694 -649,-3950 -432,-1256 -1039,-2360 -1822,-3319 -783,-958 -1729,-1729 -2837,-2310 -1107,-580 -2334,-869 -3685,-869 -1405,0 -2667,304 -3786,911 -1122,607 -2066,1396 -2837,2369 -768,971 -1354,2084 -1759,3340 -405,1256 -607,2530 -607,3828 z m 57101,10814 c -2349,2510 -5087,3766 -8222,3766 -1860,0 -3610,-411 -5244,-1235 -1632,-825 -3052,-1917 -4251,-3281 -1203,-1363 -2146,-2929 -2837,-4697 -688,-1768 -1033,-3599 -1033,-5489 0,-1944 345,-3792 1033,-5548 691,-1757 1634,-3296 2837,-4617 1199,-1325 2625,-2370 4271,-3141 1649,-768 3444,-1151 5388,-1151 2700,0 4968,571 6805,1720 1833,1146 3226,2667 4170,4557 l -3483,2510 c -783,-1566 -1842,-2739 -3179,-3525 -1336,-783 -2816,-1173 -4435,-1173 -1321,0 -2524,289 -3605,870 -1080,580 -2003,1351 -2774,2309 -768,959 -1363,2072 -1783,3340 -417,1271 -625,2593 -625,3971 0,1459 229,2822 688,4090 458,1268 1098,2375 1922,3322 825,944 1789,1694 2897,2247 1107,554 2307,831 3605,831 2914,0 5533,-1417 7855,-4254 v -3036 h -6034 v -3364 h 9841 v 14541 h -3807 z m 19241,-25191 7977,14416 8019,-14416 h 4942 l -10692,18467 v 10287 h -4579 v -10367 l -10650,-18387 z m 62322,28754 v -28754 h 12517 c 1295,0 2491,268 3584,810 1092,538 2030,1247 2812,2125 786,878 1400,1878 1846,2998 444,1118 667,2262 667,3422 0,971 -134,1903 -405,2796 -271,890 -649,1714 -1134,2470 -485,753 -1081,1408 -1783,1962 -700,553 -1470,967 -2307,1235 l 6843,10936 h -5143 l -6317,-10004 h -6644 v 10004 z m 4536,-14014 h 7939 c 649,0 1235,-140 1762,-426 527,-282 980,-672 1358,-1172 378,-500 676,-1075 890,-1721 217,-649 324,-1336 324,-2066 0,-729 -128,-1417 -384,-2065 -256,-649 -595,-1215 -1012,-1703 -420,-485 -905,-869 -1459,-1152 -553,-286 -1128,-426 -1723,-426 h -7695 z m 52205,10005 v 4009 h -19726 v -28754 h 19360 v 4009 h -14824 v 8180 h 12838 v 3769 h -12838 v 8787 z m 14779,4009 v -28754 h 12070 c 1295,0 2492,268 3584,810 1096,538 2033,1247 2816,2125 783,878 1396,1878 1843,2998 446,1118 666,2262 666,3422 0,1215 -208,2382 -628,3504 -416,1119 -1003,2120 -1759,2994 -756,879 -1667,1581 -2736,2108 -1065,527 -2247,789 -3542,789 h -7778 v 10004 z m 4536,-14014 h 7493 c 649,0 1235,-134 1762,-405 526,-267 979,-645 1357,-1134 378,-485 676,-1050 890,-1699 217,-649 325,-1364 325,-2147 0,-809 -122,-1539 -364,-2187 -244,-649 -580,-1209 -1011,-1682 -432,-470 -926,-837 -1480,-1092 -554,-257 -1128,-385 -1720,-385 h -7252 z m 41268,14217 c -2024,0 -3866,-411 -5527,-1235 -1661,-825 -3090,-1917 -4292,-3281 -1203,-1363 -2126,-2923 -2775,-4679 -648,-1753 -973,-3548 -973,-5385 0,-1917 345,-3754 1033,-5510 690,-1753 1640,-3307 2858,-4655 1214,-1352 2658,-2423 4330,-3221 1676,-795 3498,-1193 5469,-1193 2027,0 3869,425 5527,1274 1662,851 3087,1964 4275,3342 1188,1376 2104,2935 2753,4676 649,1742 974,3519 974,5326 0,1917 -346,3754 -1033,5509 -691,1754 -1641,3302 -2858,4638 -1214,1337 -2652,2402 -4313,3200 -1658,795 -3474,1194 -5448,1194 z m -8947,-14580 c 0,1348 208,2658 625,3929 420,1268 1021,2388 1804,3361 783,970 1726,1747 2833,2328 1108,580 2349,872 3727,872 1405,0 2668,-304 3787,-911 1122,-607 2066,-1411 2836,-2411 769,-997 1355,-2120 1760,-3361 407,-1241 610,-2512 610,-3807 0,-1378 -218,-2694 -649,-3950 -432,-1256 -1039,-2360 -1822,-3319 -783,-958 -1729,-1729 -2837,-2310 -1107,-580 -2333,-869 -3685,-869 -1404,0 -2667,304 -3786,911 -1122,607 -2066,1396 -2837,2369 -768,971 -1354,2084 -1759,3340 -405,1256 -607,2530 -607,3828 z m 37256,14377 v -28754 h 12516 c 1295,0 2492,268 3584,810 1093,538 2030,1247 2813,2125 786,878 1399,1878 1846,2998 443,1118 667,2262 667,3422 0,971 -135,1903 -405,2796 -271,890 -649,1714 -1134,2470 -486,753 -1081,1408 -1783,1962 -700,553 -1471,967 -2307,1235 l 6843,10936 h -5144 l -6316,-10004 h -6644 v 10004 z m 4536,-14014 h 7939 c 649,0 1235,-140 1762,-426 527,-282 979,-672 1357,-1172 378,-500 676,-1075 890,-1721 218,-649 325,-1336 325,-2066 0,-729 -128,-1417 -384,-2065 -256,-649 -596,-1215 -1012,-1703 -420,-485 -905,-869 -1459,-1152 -553,-286 -1128,-426 -1723,-426 h -7695 z m 52487,-10731 h -9558 v 24745 h -4536 v -24745 h -9597 v -4009 h 23691 z m 32481,20736 v 4009 h -19726 v -28754 h 19360 v 4009 h -14823 v 8180 h 12838 v 3769 h -12838 v 8787 z m 14780,4009 v -28754 h 12517 c 1294,0 2491,268 3583,810 1093,538 2030,1247 2813,2125 786,878 1399,1878 1846,2998 443,1118 667,2262 667,3422 0,971 -134,1903 -405,2796 -271,890 -649,1714 -1134,2470 -485,753 -1081,1408 -1783,1962 -700,553 -1471,967 -2307,1235 l 6843,10936 h -5144 l -6316,-10004 h -6644 v 10004 z m 4536,-14014 h 7939 c 649,0 1235,-140 1762,-426 527,-282 979,-672 1357,-1172 378,-500 676,-1075 890,-1721 218,-649 325,-1336 325,-2066 0,-729 -128,-1417 -384,-2065 -256,-649 -595,-1215 -1012,-1703 -420,-485 -905,-869 -1459,-1152 -554,-286 -1128,-426 -1723,-426 h -7695 z"
   id="path7"
   inkscape:connector-curvature="0"
   style="fill:#062b57" />
 </g>
 <g
   id="Layer_x0020_5"
   transform="translate(-92570,-105351.41)">
  <metadata
   id="CorelCorpID_2Corel-Layer" />
  <path
   d="m 929222,105351 c 40761,0 77659,16534 104357,43261 h -96711 c -4941,-6308 -12628,-10363 -21263,-10363 -14908,0 -26994,12085 -26994,26994 0,14907 12086,26993 26994,26993 8635,0 16323,-4055 21263,-10364 h 121676 c 11583,21058 18178,45247 18178,70979 0,81462 -66038,147499 -147500,147499 -40762,0 -77663,-16533 -104357,-43261 h 96711 c 4941,6309 12629,10363 21263,10363 14909,0 26994,-12085 26994,-26993 0,-14908 -12085,-26994 -26994,-26994 -8634,0 -16321,4055 -21263,10364 H 799900 c -11583,-21059 -18178,-45247 -18178,-70978 0,-81462 66038,-147500 147500,-147500 z m 76950,130508 H 879025 c -4942,-6309 -12629,-10363 -21263,-10363 -14908,0 -26993,12085 -26993,26993 0,14908 12085,26994 26993,26994 8634,0 16322,-4055 21263,-10364 h 127147 c 4940,6309 12628,10364 21263,10364 14908,0 26993,-12086 26993,-26994 0,-14908 -12085,-26993 -26993,-26993 -8635,0 -16322,4054 -21263,10363 z"
   id="path11"
   inkscape:connector-curvature="0"
   style="fill:#d1232a" />
 </g>
</svg>