<?xml version="1.0" encoding="UTF-8" standalone="no"?>
<!-- Generator: Adobe Illustrator 19.0.0, SVG Export Plug-In . SVG Version: 6.00 Build 0)  -->

<svg
   xmlns:dc="http://purl.org/dc/elements/1.1/"
   xmlns:cc="http://creativecommons.org/ns#"
   xmlns:rdf="http://www.w3.org/1999/02/22-rdf-syntax-ns#"
   xmlns:svg="http://www.w3.org/2000/svg"
   xmlns="http://www.w3.org/2000/svg"
   xmlns:sodipodi="http://sodipodi.sourceforge.net/DTD/sodipodi-0.dtd"
   xmlns:inkscape="http://www.inkscape.org/namespaces/inkscape"
   version="1.1"
   id="Layer_1"
   x="0px"
   y="0px"
   viewBox="0 0 400 191"
   xml:space="preserve"
   sodipodi:docname="cybercurrencynewscenter-logo-b18-SVG_cropped.svg"
   width="400"
   height="191"
   inkscape:version="0.92.3 (2405546, 2018-03-11)"><metadata
   id="metadata104"><rdf:RDF><cc:Work
       rdf:about=""><dc:format>image/svg+xml</dc:format><dc:type
         rdf:resource="http://purl.org/dc/dcmitype/StillImage" /></cc:Work></rdf:RDF></metadata><defs
   id="defs102" /><sodipodi:namedview
   pagecolor="#ffffff"
   bordercolor="#666666"
   borderopacity="1"
   objecttolerance="10"
   gridtolerance="10"
   guidetolerance="10"
   inkscape:pageopacity="0"
   inkscape:pageshadow="2"
   inkscape:window-width="640"
   inkscape:window-height="480"
   id="namedview100"
   showgrid="false"
   inkscape:zoom="0.835"
   inkscape:cx="200"
   inkscape:cy="95.6"
   inkscape:window-x="0"
   inkscape:window-y="0"
   inkscape:window-maximized="0"
   inkscape:current-layer="Layer_1" />
<style
   type="text/css"
   id="style2">
	.st0{fill:url(#XMLID_6_);}
	.st1{fill:url(#XMLID_7_);}
	.st2{fill:url(#XMLID_8_);}
	.st3{fill:url(#XMLID_9_);}
	.st4{fill:url(#XMLID_10_);}
	.st5{fill:url(#XMLID_11_);}
	.st6{fill:url(#XMLID_12_);}
	.st7{fill:url(#XMLID_13_);}
	.st8{fill:#58595B;}
	.st9{fill:#00AEEF;}
</style>
<g
   id="XMLID_102_"
   transform="translate(0,-17.1)">
	<g
   id="XMLID_47_">
		<linearGradient
   id="XMLID_6_"
   gradientUnits="userSpaceOnUse"
   x1="221.9306"
   y1="33.0756"
   x2="222.73801"
   y2="57.0951">
			<stop
   offset="0"
   style="stop-color:#2BC4F3"
   id="stop4" />
			<stop
   offset="0.5"
   style="stop-color:#00AEEE"
   id="stop6" />
			<stop
   offset="1"
   style="stop-color:#0095DA"
   id="stop8" />
		</linearGradient>
		<polygon
   id="XMLID_94_"
   class="st0"
   points="215.6,46.9 215.6,17.1 218.9,17.1 228.5,27.3 228.5,46.9 "
   style="fill:url(#XMLID_6_)" />
		<linearGradient
   id="XMLID_7_"
   gradientUnits="userSpaceOnUse"
   x1="200.56599"
   y1="52.890202"
   x2="175.6718"
   y2="22.6134">
			<stop
   offset="0"
   style="stop-color:#2BC4F3"
   id="stop12" />
			<stop
   offset="0.5"
   style="stop-color:#00AEEE"
   id="stop14" />
			<stop
   offset="1"
   style="stop-color:#0095DA"
   id="stop16" />
		</linearGradient>
		<polygon
   id="XMLID_15_"
   class="st1"
   points="240.5,109.8 235,103.6 228.5,96.3 215.6,81.6 189.1,51.5 185,46.9 175.3,35.9 175.3,34.8 193.2,34.8 203.8,46.9 215.6,60.2 228.5,74.9 235,82.2 249,98.1 249,105 "
   style="fill:url(#XMLID_7_)" />
		<linearGradient
   id="XMLID_8_"
   gradientUnits="userSpaceOnUse"
   x1="241.96761"
   y1="72.198898"
   x2="241.96761"
   y2="98.0383">
			<stop
   offset="0"
   style="stop-color:#2BC4F3"
   id="stop20" />
			<stop
   offset="0.5"
   style="stop-color:#00AEEE"
   id="stop22" />
			<stop
   offset="1"
   style="stop-color:#0095DA"
   id="stop24" />
		</linearGradient>
		<polygon
   id="XMLID_85_"
   class="st2"
   points="235,34.8 235.5,34.8 235,34.2 235,17.1 236,17.1 248.9,29.6 248.9,49.1 249,98.1 235,82.2 "
   style="fill:url(#XMLID_8_)" />
		<linearGradient
   id="XMLID_9_"
   gradientUnits="userSpaceOnUse"
   x1="191.88879"
   y1="23.4764"
   x2="221.49271"
   y2="23.2073">
			<stop
   offset="0"
   style="stop-color:#2BC4F3"
   id="stop28" />
			<stop
   offset="0.5"
   style="stop-color:#00AEEE"
   id="stop30" />
			<stop
   offset="1"
   style="stop-color:#0095DA"
   id="stop32" />
		</linearGradient>
		<rect
   id="XMLID_103_"
   x="151"
   y="17.1"
   class="st3"
   width="64.599998"
   height="12.9"
   style="fill:url(#XMLID_9_)" />
		<linearGradient
   id="XMLID_10_"
   gradientUnits="userSpaceOnUse"
   x1="157.661"
   y1="48.583099"
   x2="157.661"
   y2="29.229099">
			<stop
   offset="0"
   style="stop-color:#2BC4F3"
   id="stop36" />
			<stop
   offset="0.5"
   style="stop-color:#00AEEE"
   id="stop38" />
			<stop
   offset="1"
   style="stop-color:#0095DA"
   id="stop40" />
		</linearGradient>
		<polygon
   id="XMLID_49_"
   class="st4"
   points="151.1,106 151.1,85.1 151,46.9 151,30 164.3,30 164.3,112.3 "
   style="fill:url(#XMLID_10_)" />
		<linearGradient
   id="XMLID_11_"
   gradientUnits="userSpaceOnUse"
   x1="218.85001"
   y1="114.0162"
   x2="200.0784"
   y2="125.7232">
			<stop
   offset="0"
   style="stop-color:#2BC4F3"
   id="stop44" />
			<stop
   offset="0.5"
   style="stop-color:#00AEEE"
   id="stop46" />
			<stop
   offset="1"
   style="stop-color:#0095DA"
   id="stop48" />
		</linearGradient>
		<polygon
   id="XMLID_60_"
   class="st5"
   points="226.6,117.4 216.3,122.9 215.6,122.6 201.6,115.9 211.5,110.9 215.6,108.9 225.3,104 228.5,107.6 233.7,113.6 228.5,116.4 "
   style="fill:url(#XMLID_11_)" />
		<linearGradient
   id="XMLID_12_"
   gradientUnits="userSpaceOnUse"
   x1="182.6869"
   y1="87.817299"
   x2="183.3597"
   y2="108.54">
			<stop
   offset="0"
   style="stop-color:#2BC4F3"
   id="stop52" />
			<stop
   offset="0.5"
   style="stop-color:#00AEEE"
   id="stop54" />
			<stop
   offset="1"
   style="stop-color:#0095DA"
   id="stop56" />
		</linearGradient>
		<polygon
   id="XMLID_35_"
   class="st6"
   points="175.3,95.5 175.3,35.9 185,46.9 189.1,51.5 189.1,101.3 "
   style="fill:url(#XMLID_12_)" />
		<linearGradient
   id="XMLID_13_"
   gradientUnits="userSpaceOnUse"
   x1="172.4304"
   y1="109.9981"
   x2="149.5546"
   y2="100.9824">
			<stop
   offset="0"
   style="stop-color:#2BC4F3"
   id="stop60" />
			<stop
   offset="0.5"
   style="stop-color:#00AEEE"
   id="stop62" />
			<stop
   offset="1"
   style="stop-color:#0095DA"
   id="stop64" />
		</linearGradient>
		<polygon
   id="XMLID_110_"
   class="st7"
   points="202.3,130.4 189.1,124.1 187.2,123.2 175.3,117.6 164.3,112.3 164.3,98.1 175.3,103.4 189.1,110 201.6,115.9 215.6,122.6 216.3,122.9 215.6,123.3 "
   style="fill:url(#XMLID_13_)" />
	</g>
	<g
   id="XMLID_1_">
		<g
   id="XMLID_310_">
			<path
   id="XMLID_332_"
   class="st8"
   d="m 80.9,207.6 h -2.7 l -8.9,-20.7 -4.4,20.7 h -2.7 l 5.5,-25.7 h 2.7 l 8.9,20.6 4.4,-20.6 h 2.7 z"
   inkscape:connector-curvature="0"
   style="fill:#58595b" />
			<path
   id="XMLID_329_"
   class="st8"
   d="m 110.6,194 c 0,0.7 -0.1,1.5 -0.3,2.5 l -0.4,2.2 H 98 l -0.2,1.2 c -0.2,0.8 -0.3,1.5 -0.3,2.2 0,1.3 0.4,2.2 1.1,2.8 0.7,0.5 1.7,0.8 2.9,0.8 1.3,0 2.4,-0.3 3.2,-1 0.9,-0.6 1.5,-1.6 1.8,-2.8 h 2.5 c -0.4,1.9 -1.3,3.4 -2.6,4.5 -1.4,1 -3.1,1.6 -5.2,1.6 -1.9,0 -3.4,-0.5 -4.5,-1.4 -1.1,-0.9 -1.7,-2.3 -1.7,-4.3 0,-0.7 0.1,-1.5 0.3,-2.5 l 0.7,-3.2 c 0.6,-2.7 1.6,-4.7 3.1,-6 1.5,-1.3 3.4,-1.9 5.5,-1.9 1.8,0 3.3,0.5 4.4,1.4 1,0.6 1.6,2 1.6,3.9 z m -3.5,-2.5 c -0.6,-0.5 -1.6,-0.8 -2.7,-0.8 -1.4,0 -2.7,0.4 -3.7,1.2 -1,0.8 -1.7,2.3 -2.2,4.3 l -0.1,0.4 h 9.2 l 0.1,-0.7 c 0.1,-0.7 0.2,-1.4 0.2,-1.9 0.2,-1.1 -0.2,-1.9 -0.8,-2.5 z"
   inkscape:connector-curvature="0"
   style="fill:#58595b" />
			<path
   id="XMLID_327_"
   class="st8"
   d="m 124.8,188.7 1,15.1 7.9,-15.1 h 2.3 l 1.5,15.1 7.5,-15.1 h 2.7 l -9.8,18.9 h -2.3 l -1.5,-15.2 -7.9,15.2 h -2.3 l -1.7,-18.9 z"
   inkscape:connector-curvature="0"
   style="fill:#58595b" />
			<path
   id="XMLID_325_"
   class="st8"
   d="m 154.6,202.2 h 2.4 c 0,1.2 0.3,2 1,2.6 0.7,0.6 1.8,0.9 3.3,0.9 1.4,0 2.5,-0.3 3.5,-1 0.9,-0.7 1.4,-1.6 1.4,-2.8 0,-0.8 -0.2,-1.3 -0.7,-1.7 -0.5,-0.4 -1.2,-0.6 -2.2,-0.8 l -2.2,-0.4 c -1.6,-0.3 -2.7,-0.8 -3.4,-1.4 -0.7,-0.6 -1.1,-1.5 -1.1,-2.7 0,-1.2 0.3,-2.3 0.9,-3.3 0.6,-1 1.5,-1.7 2.6,-2.2 1.1,-0.5 2.4,-0.8 3.9,-0.8 2.1,0 3.7,0.5 4.7,1.4 1,0.9 1.5,2.3 1.5,4 h -2.5 c 0,-1.1 -0.3,-2 -1,-2.5 -0.6,-0.5 -1.7,-0.8 -3.1,-0.8 -1.4,0 -2.5,0.4 -3.3,1.1 -0.8,0.7 -1.2,1.6 -1.2,2.7 0,0.7 0.2,1.2 0.7,1.6 0.4,0.4 1.1,0.6 2.1,0.8 l 2.3,0.4 c 1.6,0.3 2.7,0.8 3.5,1.5 0.7,0.7 1.1,1.6 1.1,2.8 0,1.9 -0.7,3.5 -2.1,4.7 -1.4,1.2 -3.3,1.8 -5.6,1.8 -2.1,0 -3.7,-0.5 -4.8,-1.5 -1.2,-1.2 -1.7,-2.6 -1.7,-4.4 z"
   inkscape:connector-curvature="0"
   style="fill:#58595b" />
			<path
   id="XMLID_323_"
   class="st8"
   d="m 196.2,201.1 c 0,-0.9 0.1,-1.9 0.3,-3 l 1.4,-6.7 c 0.7,-3.5 2,-6 3.9,-7.5 1.9,-1.6 4.2,-2.3 6.9,-2.3 2.4,0 4.3,0.6 5.6,1.8 1.3,1.2 1.9,2.8 1.9,5 0,0.4 0,0.8 -0.1,1.2 h -2.7 c 0,-0.2 0.1,-0.5 0.1,-0.9 0,-1.5 -0.4,-2.6 -1.3,-3.4 -0.9,-0.8 -2.1,-1.2 -3.8,-1.2 -2,0 -3.7,0.6 -5,1.8 -1.3,1.2 -2.2,3.1 -2.8,5.7 l -1.5,6.7 c -0.2,0.9 -0.3,1.7 -0.3,2.4 0,1.6 0.5,2.9 1.4,3.6 0.9,0.8 2.3,1.2 3.9,1.2 1.8,0 3.3,-0.5 4.5,-1.4 1.2,-0.9 2,-2.3 2.4,-3.9 v -0.1 h 2.6 v 0.1 c -0.6,2.4 -1.8,4.4 -3.5,5.8 -1.7,1.4 -3.9,2.1 -6.5,2.1 -2.3,0 -4.2,-0.6 -5.5,-1.7 -1.2,-1.3 -1.9,-3 -1.9,-5.3 z"
   inkscape:connector-curvature="0"
   style="fill:#58595b" />
			<path
   id="XMLID_320_"
   class="st8"
   d="m 241.4,194 c 0,0.7 -0.1,1.5 -0.3,2.5 l -0.4,2.2 h -11.8 l -0.2,1.2 c -0.2,0.8 -0.3,1.5 -0.3,2.2 0,1.3 0.4,2.2 1.1,2.8 0.7,0.5 1.7,0.8 2.9,0.8 1.3,0 2.4,-0.3 3.2,-1 0.9,-0.6 1.5,-1.6 1.8,-2.8 h 2.5 c -0.4,1.9 -1.3,3.4 -2.6,4.5 -1.4,1 -3.1,1.6 -5.2,1.6 -1.9,0 -3.4,-0.5 -4.5,-1.4 -1.1,-0.9 -1.7,-2.3 -1.7,-4.3 0,-0.7 0.1,-1.5 0.3,-2.5 l 0.7,-3.2 c 0.6,-2.7 1.6,-4.7 3.1,-6 1.5,-1.3 3.4,-1.9 5.5,-1.9 1.8,0 3.3,0.5 4.4,1.4 0.9,0.6 1.5,2 1.5,3.9 z m -3.5,-2.5 c -0.6,-0.5 -1.6,-0.8 -2.7,-0.8 -1.4,0 -2.7,0.4 -3.7,1.2 -1,0.8 -1.7,2.3 -2.2,4.3 l -0.1,0.4 h 9.2 l 0.1,-0.7 c 0.1,-0.7 0.2,-1.4 0.2,-1.9 0.2,-1.1 -0.2,-1.9 -0.8,-2.5 z"
   inkscape:connector-curvature="0"
   style="fill:#58595b" />
			<path
   id="XMLID_318_"
   class="st8"
   d="m 257.7,188.7 -0.5,2.3 c 0.7,-0.8 1.5,-1.5 2.5,-1.9 1,-0.4 2,-0.6 3.1,-0.6 1.7,0 2.9,0.4 3.8,1.2 0.9,0.8 1.3,2 1.3,3.5 0,0.6 -0.1,1.3 -0.2,1.9 l -2.6,12.4 h -2.5 l 2.5,-12 c 0.1,-0.7 0.2,-1.2 0.2,-1.6 0,-1.1 -0.3,-1.9 -0.9,-2.4 -0.6,-0.5 -1.4,-0.8 -2.5,-0.8 -1.4,0 -2.5,0.4 -3.5,1.2 -1,0.8 -1.7,2 -2,3.6 l -2.6,12 h -2.5 l 4,-18.9 h 2.4 z"
   inkscape:connector-curvature="0"
   style="fill:#58595b" />
			<path
   id="XMLID_316_"
   class="st8"
   d="m 283.2,203.7 c 0,1.1 0.7,1.7 2,1.7 h 1.5 l -0.5,2.2 h -1.9 c -1.2,0 -2.1,-0.3 -2.8,-0.9 -0.6,-0.6 -1,-1.4 -1,-2.5 0,-0.5 0.1,-0.9 0.1,-1.3 l 2.6,-12.2 h -2.9 l 0.4,-2 h 2.9 l 0.9,-4.3 2.8,-1.2 -1.2,5.5 h 4.3 l -0.4,2 h -4.3 l -2.6,12.1 c 0.1,0.2 0.1,0.5 0.1,0.9 z"
   inkscape:connector-curvature="0"
   style="fill:#58595b" />
			<path
   id="XMLID_313_"
   class="st8"
   d="m 315.1,194 c 0,0.7 -0.1,1.5 -0.3,2.5 l -0.4,2.2 h -11.8 l -0.2,1.2 c -0.2,0.8 -0.3,1.5 -0.3,2.2 0,1.3 0.4,2.2 1.1,2.8 0.7,0.5 1.7,0.8 2.9,0.8 1.3,0 2.4,-0.3 3.2,-1 0.9,-0.6 1.5,-1.6 1.8,-2.8 h 2.5 c -0.4,1.9 -1.3,3.4 -2.6,4.5 -1.4,1 -3.1,1.6 -5.2,1.6 -1.9,0 -3.4,-0.5 -4.5,-1.4 -1.1,-0.9 -1.7,-2.3 -1.7,-4.3 0,-0.7 0.1,-1.5 0.3,-2.5 l 0.7,-3.2 c 0.6,-2.7 1.6,-4.7 3.1,-6 1.5,-1.3 3.4,-1.9 5.5,-1.9 1.8,0 3.3,0.5 4.4,1.4 0.9,0.6 1.5,2 1.5,3.9 z m -3.5,-2.5 c -0.6,-0.5 -1.6,-0.8 -2.7,-0.8 -1.4,0 -2.7,0.4 -3.7,1.2 -1,0.8 -1.7,2.3 -2.2,4.3 l -0.1,0.4 h 9.2 l 0.1,-0.7 c 0.1,-0.7 0.2,-1.4 0.2,-1.9 0.1,-1.1 -0.2,-1.9 -0.8,-2.5 z"
   inkscape:connector-curvature="0"
   style="fill:#58595b" />
			<path
   id="XMLID_311_"
   class="st8"
   d="m 331.4,188.7 -0.6,2.5 c 0.7,-0.9 1.6,-1.6 2.5,-2.1 1,-0.5 2,-0.7 3,-0.7 0.5,0 0.9,0 1.4,0.1 l -0.6,2.5 c -0.5,-0.2 -1.1,-0.3 -1.9,-0.3 -1.3,0 -2.5,0.5 -3.5,1.4 -1,0.9 -1.7,2.2 -2,3.7 l -2.5,11.7 h -2.5 l 4,-18.9 h 2.7 z"
   inkscape:connector-curvature="0"
   style="fill:#58595b" />
		</g>
	</g>
	<g
   id="XMLID_108_">
		<path
   id="XMLID_109_"
   class="st9"
   d="m 0,146.6 c 0,-12 5.5,-18 16.6,-18 4.9,0 8.9,1.3 11.8,3.9 2.9,2.6 4.4,6.3 4.4,11.1 v 0.5 h -8.6 v -0.4 c 0,-2.3 -0.7,-4.2 -2,-5.5 -1.3,-1.4 -3.2,-2 -5.7,-2 -2.8,0 -4.8,0.9 -6,2.6 -1.2,1.7 -1.9,4.5 -1.9,8.4 v 9.8 c 0,3.7 0.6,6.3 1.9,8 1.3,1.7 3.3,2.5 6.1,2.5 2.4,0 4.3,-0.7 5.6,-2 1.3,-1.3 1.9,-3.1 1.9,-5.4 v -0.5 h 8.5 v 0.5 c 0,4.8 -1.4,8.6 -4.3,11.2 -2.9,2.6 -6.8,3.9 -11.9,3.9 -11,0 -16.4,-6 -16.4,-18 z"
   inkscape:connector-curvature="0"
   style="fill:#00aeef" />
		<path
   id="XMLID_112_"
   class="st9"
   d="m 52.8,177.4 c -0.9,2.5 -2.1,4.3 -3.8,5.4 -1.6,1.1 -3.8,1.7 -6.5,1.7 h -2.8 v -7.3 h 2.6 c 1.3,0 2.3,-0.2 2.9,-0.7 0.6,-0.5 1.1,-1.3 1.5,-2.6 l 0.1,-0.5 -11.5,-33.2 h 8.6 l 6.7,21.4 6.8,-21.4 h 8.3 z"
   inkscape:connector-curvature="0"
   style="fill:#00aeef" />
		<path
   id="XMLID_114_"
   class="st9"
   d="M 77.8,174.4 H 69.9 V 129.2 H 78 v 14.6 c 1.9,-2.6 4.4,-3.9 7.6,-3.9 3.4,0 6.2,1.2 8.3,3.5 2.1,2.3 3.2,5.8 3.2,10.6 v 6.7 c 0,4.7 -1.1,8.2 -3.2,10.6 -2.1,2.3 -4.8,3.5 -8.1,3.5 -3.5,0 -6.1,-1.2 -8.1,-3.5 v 3.1 z M 89,154.3 c 0,-2.5 -0.5,-4.4 -1.5,-5.5 -1,-1.1 -2.3,-1.7 -4,-1.7 -1.7,0 -3.1,0.6 -4.1,1.8 -1,1.2 -1.5,3 -1.5,5.3 v 6.2 c 0,2.3 0.5,4.1 1.5,5.3 1,1.2 2.5,1.8 4.3,1.8 3.5,0 5.2,-2.4 5.2,-7.1 v -6.1 z"
   inkscape:connector-curvature="0"
   style="fill:#00aeef" />
		<path
   id="XMLID_117_"
   class="st9"
   d="m 111.1,160.7 c 0,2.5 0.6,4.3 1.7,5.4 1.1,1.1 2.8,1.6 4.8,1.6 1.6,0 2.9,-0.3 3.8,-1 0.9,-0.7 1.4,-1.6 1.5,-2.9 l 0.1,-0.2 h 7.7 v 0.3 c 0,3.2 -1.2,5.8 -3.6,7.8 -2.4,2 -5.7,2.9 -9.8,2.9 -4.4,0 -7.8,-1.3 -10.4,-3.8 -2.6,-2.5 -3.9,-6.4 -3.9,-11.6 v -4.1 c 0,-5.1 1.2,-8.9 3.7,-11.5 2.5,-2.6 5.9,-3.8 10.3,-3.8 4.3,0 7.7,1.3 10.2,3.9 2.5,2.6 3.8,6.4 3.8,11.5 v 4.5 h -19.9 z m 0,-6.6 v 0.2 h 11.8 v -0.9 c 0,-4.3 -1.9,-6.5 -5.8,-6.5 -1.9,0 -3.4,0.5 -4.4,1.6 -1.1,1.1 -1.6,3 -1.6,5.6 z"
   inkscape:connector-curvature="0"
   style="fill:#00aeef" />
		<path
   id="XMLID_121_"
   class="st9"
   d="m 145.4,140.4 v 3.5 c 0.8,-1.4 1.9,-2.5 3.3,-3.2 1.4,-0.7 3,-1 4.7,-1 1,0 1.9,0.1 2.8,0.3 v 7.6 c -1.5,-0.5 -2.9,-0.7 -4.1,-0.7 -2,0 -3.5,0.6 -4.8,1.9 -1.2,1.2 -1.8,3 -1.8,5.3 v 20.4 h -8.1 v -34.1 z"
   inkscape:connector-curvature="0"
   style="fill:#00aeef" />
		<path
   id="XMLID_124_"
   class="st9"
   d="m 159.1,160.5 v -6.4 c 0,-4.8 1.2,-8.4 3.7,-10.7 2.5,-2.3 5.8,-3.5 10.1,-3.5 4.2,0 7.5,1.1 9.8,3.2 2.4,2.1 3.5,5.1 3.5,8.9 v 0.7 h -7.7 v -0.4 c 0,-1.6 -0.5,-2.9 -1.5,-3.8 -1,-0.9 -2.3,-1.4 -4,-1.4 -3.9,0 -5.9,2.4 -5.9,7.1 v 6.2 c 0,2.6 0.5,4.4 1.5,5.5 1,1.1 2.5,1.6 4.4,1.6 1.7,0 3,-0.4 4,-1.3 1,-0.9 1.5,-2.1 1.5,-3.7 v -0.4 h 7.7 v 0.5 c 0,3.8 -1.2,6.7 -3.5,8.9 -2.4,2.2 -5.6,3.2 -9.8,3.2 -4.3,0 -7.7,-1.2 -10.1,-3.5 -2.5,-2.2 -3.7,-5.8 -3.7,-10.7 z"
   inkscape:connector-curvature="0"
   style="fill:#00aeef" />
		<path
   id="XMLID_126_"
   class="st9"
   d="m 192.8,140.4 h 8.1 v 19.9 c 0,2.4 0.4,4.2 1.1,5.5 0.7,1.2 2.2,1.9 4.3,1.9 2.1,0 3.6,-0.6 4.3,-1.8 0.7,-1.2 1.1,-3 1.1,-5.6 v -19.9 h 8.1 v 20.3 c 0,4.7 -1.1,8.3 -3.3,10.6 -2.2,2.4 -5.6,3.5 -10.2,3.5 -9,0 -13.5,-4.7 -13.5,-14.2 z"
   inkscape:connector-curvature="0"
   style="fill:#00aeef" />
		<path
   id="XMLID_128_"
   class="st9"
   d="m 234.8,140.4 v 3.5 c 0.8,-1.4 1.9,-2.5 3.3,-3.2 1.4,-0.7 3,-1 4.7,-1 1,0 1.9,0.1 2.8,0.3 v 7.6 c -1.5,-0.5 -2.9,-0.7 -4.1,-0.7 -2,0 -3.5,0.6 -4.8,1.9 -1.2,1.2 -1.8,3 -1.8,5.3 v 20.4 h -8.1 v -34.1 z"
   inkscape:connector-curvature="0"
   style="fill:#00aeef" />
		<path
   id="XMLID_130_"
   class="st9"
   d="m 258.2,140.4 v 3.5 c 0.8,-1.4 1.9,-2.5 3.3,-3.2 1.4,-0.7 3,-1 4.7,-1 1,0 1.9,0.1 2.8,0.3 v 7.6 c -1.5,-0.5 -2.9,-0.7 -4.1,-0.7 -2,0 -3.5,0.6 -4.8,1.9 -1.2,1.2 -1.8,3 -1.8,5.3 v 20.4 h -8.1 v -34.1 z"
   inkscape:connector-curvature="0"
   style="fill:#00aeef" />
		<path
   id="XMLID_132_"
   class="st9"
   d="m 279.9,160.7 c 0,2.5 0.6,4.3 1.7,5.4 1.1,1.1 2.8,1.6 4.9,1.6 1.6,0 2.9,-0.3 3.8,-1 0.9,-0.7 1.4,-1.6 1.5,-2.9 l 0.1,-0.2 h 7.7 v 0.3 c 0,3.2 -1.2,5.8 -3.6,7.8 -2.4,2 -5.7,2.9 -9.8,2.9 -4.4,0 -7.8,-1.3 -10.4,-3.8 -2.6,-2.5 -3.9,-6.4 -3.9,-11.6 v -4.1 c 0,-5.1 1.2,-8.9 3.7,-11.5 2.5,-2.6 5.9,-3.8 10.3,-3.8 4.3,0 7.7,1.3 10.2,3.9 2.5,2.6 3.8,6.4 3.8,11.5 v 4.5 H 280 v 1 z m 0,-6.6 v 0.2 h 11.8 v -0.9 c 0,-4.3 -1.9,-6.5 -5.8,-6.5 -1.9,0 -3.4,0.5 -4.4,1.6 -1.1,1.1 -1.6,3 -1.6,5.6 z"
   inkscape:connector-curvature="0"
   style="fill:#00aeef" />
		<path
   id="XMLID_135_"
   class="st9"
   d="m 314.3,140.4 v 3.1 c 1,-1.1 2.2,-2 3.6,-2.6 1.4,-0.6 2.9,-0.9 4.4,-0.9 3.5,0 6.2,1.1 8.1,3.3 1.9,2.2 2.9,5.2 2.9,9 v 22.2 h -8.1 v -21.2 c 0,-1.9 -0.5,-3.4 -1.4,-4.5 -1,-1 -2.2,-1.6 -3.9,-1.6 -1.6,0 -2.9,0.5 -3.9,1.6 -1,1 -1.5,2.5 -1.5,4.5 v 21.2 h -8.1 v -34.1 z"
   inkscape:connector-curvature="0"
   style="fill:#00aeef" />
		<path
   id="XMLID_137_"
   class="st9"
   d="m 339.8,160.5 v -6.4 c 0,-4.8 1.2,-8.4 3.7,-10.7 2.5,-2.3 5.8,-3.5 10.1,-3.5 4.2,0 7.5,1.1 9.8,3.2 2.4,2.1 3.5,5.1 3.5,8.9 v 0.7 h -7.7 v -0.4 c 0,-1.6 -0.5,-2.9 -1.5,-3.8 -1,-0.9 -2.3,-1.4 -4,-1.4 -3.9,0 -5.9,2.4 -5.9,7.1 v 6.2 c 0,2.6 0.5,4.4 1.5,5.5 1,1.1 2.5,1.6 4.4,1.6 1.7,0 3,-0.4 4,-1.3 1,-0.9 1.5,-2.1 1.5,-3.7 v -0.4 h 7.7 v 0.5 c 0,3.8 -1.2,6.7 -3.5,8.9 -2.4,2.2 -5.6,3.2 -9.8,3.2 -4.3,0 -7.7,-1.2 -10.1,-3.5 -2.4,-2.2 -3.7,-5.8 -3.7,-10.7 z"
   inkscape:connector-curvature="0"
   style="fill:#00aeef" />
		<path
   id="XMLID_139_"
   class="st9"
   d="m 387.1,177.4 c -0.9,2.5 -2.1,4.3 -3.8,5.4 -1.6,1.1 -3.8,1.7 -6.5,1.7 H 374 v -7.3 h 2.6 c 1.3,0 2.3,-0.2 2.9,-0.7 0.6,-0.5 1.1,-1.3 1.5,-2.6 l 0.1,-0.5 -11.5,-33.2 h 8.6 l 6.7,21.4 6.8,-21.4 h 8.3 z"
   inkscape:connector-curvature="0"
   style="fill:#00aeef" />
	</g>
	<g
   id="XMLID_107_">
		<rect
   id="XMLID_120_"
   y="194.10001"
   class="st8"
   width="54"
   height="2.5999999"
   x="0"
   style="fill:#58595b" />
		<rect
   id="XMLID_123_"
   x="346"
   y="194.10001"
   class="st8"
   width="54"
   height="2.5999999"
   style="fill:#58595b" />
	</g>
</g>
</svg>