<?xml version="1.0" encoding="UTF-8" standalone="no"?>
<!-- Creator: CorelDRAW 2017 -->

<svg
   xmlns:dc="http://purl.org/dc/elements/1.1/"
   xmlns:cc="http://creativecommons.org/ns#"
   xmlns:rdf="http://www.w3.org/1999/02/22-rdf-syntax-ns#"
   xmlns:svg="http://www.w3.org/2000/svg"
   xmlns="http://www.w3.org/2000/svg"
   xmlns:sodipodi="http://sodipodi.sourceforge.net/DTD/sodipodi-0.dtd"
   xmlns:inkscape="http://www.inkscape.org/namespaces/inkscape"
   xml:space="preserve"
   width="398.51804"
   height="171.95996"
   version="1.1"
   style="clip-rule:evenodd;fill-rule:evenodd;image-rendering:optimizeQuality;shape-rendering:geometricPrecision;text-rendering:geometricPrecision"
   viewBox="0 0 99.191139 42.959997"
   id="svg14"
   sodipodi:docname="techfocusasiacom-logo-b25-SVG_cropped.svg"
   inkscape:version="0.92.3 (2405546, 2018-03-11)"><metadata
   id="metadata18"><rdf:RDF><cc:Work
       rdf:about=""><dc:format>image/svg+xml</dc:format><dc:type
         rdf:resource="http://purl.org/dc/dcmitype/StillImage" /></cc:Work></rdf:RDF></metadata><sodipodi:namedview
   pagecolor="#ffffff"
   bordercolor="#666666"
   borderopacity="1"
   objecttolerance="10"
   gridtolerance="10"
   guidetolerance="10"
   inkscape:pageopacity="0"
   inkscape:pageshadow="2"
   inkscape:window-width="640"
   inkscape:window-height="480"
   id="namedview16"
   showgrid="false"
   inkscape:zoom="0.835"
   inkscape:cx="199.25902"
   inkscape:cy="85.959967"
   inkscape:window-x="0"
   inkscape:window-y="0"
   inkscape:window-maximized="0"
   inkscape:current-layer="svg14" />
 <defs
   id="defs4">
  <style
   type="text/css"
   id="style2">
   <![CDATA[
    .str0 {stroke:#2B2A29;stroke-width:1.2;stroke-miterlimit:22.9256}
    .fil1 {fill:none}
    .fil0 {fill:#2B2A29}
    .fil2 {fill:#264796}
   ]]>
  </style>
 </defs>
 <g
   id="Layer_x0020_1"
   transform="translate(-0.18511628)">
  <metadata
   id="CorelCorpID_0Corel-Layer" />
  <path
   class="fil0"
   d="m 1.9,19.34 v 5.46 h 2.58 v -5.46 h 1.9 V 17.47 H 0 v 1.87 z m 6.86,3.11 h 3.51 v -0.76 c 0,-1.97 -0.7,-3.06 -2.82,-3.06 -1.87,0 -3.11,1.17 -3.11,3.18 0,2.03 1.19,3.15 3.35,3.15 1.03,0 1.85,-0.27 2.3,-0.46 l -0.27,-1.43 c -0.54,0.12 -1.13,0.26 -1.87,0.26 -0.76,0 -1.05,-0.12 -1.09,-0.88 z M 8.72,21.23 C 8.76,20.25 9,20.08 9.49,20.08 c 0.47,0 0.69,0.17 0.69,0.95 v 0.2 z m 7.25,3.73 c 1.04,0 1.56,-0.24 1.95,-0.43 L 17.65,23 c -0.38,0.14 -0.79,0.29 -1.44,0.29 -0.63,0 -0.92,-0.24 -0.92,-1.36 v -0.29 c 0,-1.08 0.3,-1.2 0.93,-1.2 0.54,0 0.94,0.11 1.36,0.23 l 0.32,-1.68 c -0.43,-0.18 -0.98,-0.36 -1.93,-0.36 -1.99,0 -3.15,1.17 -3.15,3.18 0,1.98 1.12,3.15 3.15,3.15 z m 5.08,-4.38 c 0.24,-0.12 0.43,-0.19 0.77,-0.19 0.37,0 0.54,0.1 0.54,0.51 v 3.9 h 2.36 v -3.78 c 0,-1.54 -0.56,-2.39 -1.89,-2.39 -0.43,0 -0.84,0.15 -1.17,0.27 l -0.61,0.95 v -3.36 h -2.37 v 8.31 h 2.37 z m 6.76,4.22 h 1.95 c -0.18,-1.08 -0.27,-2.19 -0.27,-3.32 0,-1.37 0.14,-2.71 0.39,-4.01 h -2.07 z m 43.16,0.16 c 1.7,-0.05 2.46,-0.84 2.46,-2.13 0,-1.37 -0.82,-1.74 -1.95,-1.84 l -0.22,-0.03 c 0,0.18 0,0.35 0,0.52 0,0.48 -0.01,0.96 -0.05,1.43 0.13,0.05 0.16,0.13 0.16,0.26 0,0.15 -0.05,0.24 -0.2,0.3 -0.05,0.5 -0.11,1 -0.2,1.49 z m 0.26,-4.71 c 0.61,0 1.1,0.13 1.54,0.23 l 0.33,-1.46 c -0.41,-0.18 -1.04,-0.37 -2.03,-0.39 0.07,0.54 0.12,1.08 0.16,1.62 z m 4.49,4.55 h 2.18 l 0.29,-0.89 h 2.42 l 0.26,0.89 h 2.7 l -2.55,-7.33 h -2.55 z m 2.9,-2.26 0.62,-1.91 0.2,-1.15 0.22,1.15 0.55,1.91 z m 7.88,2.42 c 1.81,0 2.62,-0.8 2.62,-2.13 0,-1.37 -0.82,-1.74 -1.94,-1.84 -1.07,-0.11 -1.3,-0.07 -1.3,-0.39 0,-0.31 0.31,-0.35 1.04,-0.35 0.62,0 1.1,0.13 1.55,0.23 l 0.33,-1.46 c -0.44,-0.18 -1.12,-0.39 -2.21,-0.39 -1.6,0 -2.68,0.62 -2.68,2.18 0,1.33 0.67,1.82 1.8,1.93 1.17,0.11 1.35,0.11 1.35,0.43 0,0.31 -0.22,0.37 -1.05,0.37 -0.73,0 -1.34,-0.18 -1.76,-0.3 l -0.24,1.35 c 0.49,0.19 1.21,0.37 2.49,0.37 z m 4.72,-6.65 c 0.71,0 1.28,-0.45 1.28,-1.16 0,-0.72 -0.57,-1.19 -1.28,-1.19 -0.71,0 -1.3,0.47 -1.3,1.19 0,0.71 0.59,1.16 1.3,1.16 z m -1.21,6.49 h 2.4 v -6.02 h -2.4 z m 6.6,-3.66 -0.64,0.08 c -1.94,0.24 -2.7,0.69 -2.7,2.05 0,1.28 0.95,1.69 1.9,1.69 0.69,0 1,-0.1 1.31,-0.26 l 0.33,-0.72 0.5,0.84 c 0.25,0.08 0.54,0.14 0.96,0.14 0.68,0 1.08,-0.2 1.29,-0.37 l -0.07,-0.94 h -0.27 c -0.2,0 -0.28,-0.05 -0.28,-0.36 v -1.73 c 0,-2.17 -0.79,-2.93 -2.68,-2.93 -1.09,0 -1.99,0.28 -2.72,0.63 l 0.38,1.56 c 0.92,-0.27 1.42,-0.39 1.99,-0.39 0.51,0 0.7,0.08 0.7,0.61 z m 0,2.28 c -0.12,0.12 -0.29,0.21 -0.63,0.21 -0.39,0 -0.59,-0.1 -0.59,-0.6 v -0.04 c 0,-0.46 0.17,-0.57 0.73,-0.67 0,0 0.49,-0.07 0.49,-0.06 z"
   id="path7"
   inkscape:connector-curvature="0"
   style="fill:#2b2a29" />
  <circle
   class="fil1 str0"
   cx="50.380001"
   cy="21.48"
   r="20.879999"
   id="circle9"
   style="fill:none;stroke:#2b2a29;stroke-width:1.20000005;stroke-miterlimit:22.92560005" />
  <path
   class="fil2"
   d="m 70.73,16.78 c 0.18,0.8 0.32,1.61 0.41,2.44 -0.25,-0.03 -0.52,-0.04 -0.81,-0.04 -1.09,0 -1.55,0.05 -1.55,0.52 0,0.47 0.34,0.42 1.94,0.57 0.18,0.02 0.35,0.04 0.51,0.07 0.02,0.38 0.03,0.76 0.03,1.14 0,1.61 -0.18,3.18 -0.52,4.69 -0.32,0.04 -0.66,0.06 -1.03,0.06 -1.93,0 -3.01,-0.27 -3.73,-0.55 l 0.35,-2.03 c 0.63,0.19 1.56,0.46 2.64,0.46 1.25,0 1.58,-0.09 1.58,-0.56 0,-0.47 -0.27,-0.47 -2.02,-0.64 -1.71,-0.17 -2.7,-0.9 -2.7,-2.91 0,-2.33 1.62,-3.26 4.02,-3.26 0.31,0 0.61,0.02 0.88,0.04 z M 29.98,26 c -0.32,-1.46 -0.49,-2.97 -0.49,-4.52 0,-2.26 0.36,-4.44 1.03,-6.47 h 5.35 v 2.8 h -4.38 v 1.92 h 3.52 v 2.54 H 31.49 V 26 Z m 11.16,0.23 c 2.85,0 4.83,-1.8 4.83,-4.79 0,-2.92 -1.96,-4.7 -4.83,-4.7 -2.91,0 -4.83,1.78 -4.83,4.75 0,2.94 1.92,4.74 4.83,4.74 z m 0,-2.36 c -0.83,0 -1.15,-0.3 -1.15,-2.11 V 21.1 c 0,-1.57 0.3,-1.86 1.15,-1.86 0.84,0 1.15,0.29 1.15,1.88 v 0.66 c 0,1.79 -0.34,2.09 -1.15,2.09 z m 10.4,2.36 c 1.55,0 2.33,-0.35 2.92,-0.64 l -0.4,-2.29 c -0.58,0.2 -1.19,0.44 -2.17,0.44 -0.94,0 -1.38,-0.38 -1.38,-2.05 v -0.44 c 0,-1.62 0.46,-1.79 1.4,-1.79 0.81,0 1.4,0.16 2.04,0.34 l 0.48,-2.52 c -0.64,-0.27 -1.47,-0.54 -2.89,-0.54 -2.99,0 -4.73,1.76 -4.73,4.77 0,2.97 1.67,4.72 4.73,4.72 z m 9.49,-2.76 c -0.35,0.18 -0.64,0.3 -1.15,0.3 -0.57,0 -0.83,-0.17 -0.83,-0.73 v -6.08 h -3.54 v 5.66 c 0,2.5 0.91,3.58 2.85,3.58 0.63,0 1.29,-0.13 1.72,-0.34 L 61.1,24.38 61.96,26 h 2.62 v -9.04 h -3.55 z"
   id="path11"
   inkscape:connector-curvature="0"
   style="fill:#264796" />
 </g>
</svg>