<?xml version="1.0" encoding="UTF-8" standalone="no"?>
<!-- Creator: CorelDRAW X7 -->

<svg
   xmlns:dc="http://purl.org/dc/elements/1.1/"
   xmlns:cc="http://creativecommons.org/ns#"
   xmlns:rdf="http://www.w3.org/1999/02/22-rdf-syntax-ns#"
   xmlns:svg="http://www.w3.org/2000/svg"
   xmlns="http://www.w3.org/2000/svg"
   xmlns:sodipodi="http://sodipodi.sourceforge.net/DTD/sodipodi-0.dtd"
   xmlns:inkscape="http://www.inkscape.org/namespaces/inkscape"
   xml:space="preserve"
   width="11.4934in"
   height="3.7280166in"
   version="1.0"
   viewBox="0 0 1149341 372801.65"
   id="svg18"
   sodipodi:docname="todayinmarcom-logo-b11-svg_cropped.svg"
   style="clip-rule:evenodd;fill-rule:evenodd;image-rendering:optimizeQuality;shape-rendering:geometricPrecision;text-rendering:geometricPrecision"
   inkscape:version="0.92.3 (2405546, 2018-03-11)"><metadata
   id="metadata24"><rdf:RDF><cc:Work
       rdf:about=""><dc:format>image/svg+xml</dc:format><dc:type
         rdf:resource="http://purl.org/dc/dcmitype/StillImage" /></cc:Work></rdf:RDF></metadata><defs
   id="defs22" /><sodipodi:namedview
   pagecolor="#ffffff"
   bordercolor="#666666"
   borderopacity="1"
   objecttolerance="10"
   gridtolerance="10"
   guidetolerance="10"
   inkscape:pageopacity="0"
   inkscape:pageshadow="2"
   inkscape:window-width="640"
   inkscape:window-height="480"
   id="namedview20"
   showgrid="false"
   inkscape:zoom="0.29734114"
   inkscape:cx="555.03359"
   inkscape:cy="20.463356"
   inkscape:window-x="0"
   inkscape:window-y="0"
   inkscape:window-maximized="0"
   inkscape:current-layer="svg18" />
 <g
   id="Layer_x0020_2"
   transform="translate(-6485,-61900.413)">
  <metadata
   id="CorelCorpID_0Corel-Layer" />
  <path
   d="m 722076,358730 c 1111,222 2222,389 3332,500 1111,110 2221,167 3331,167 2220,0 4609,-223 7163,-667 2553,-445 4387,-889 5497,-1333 1110,-443 2276,-1388 3498,-2831 1221,-1444 2775,-3998 4664,-7663 1887,-3664 4275,-8772 7163,-15325 2887,-6551 6551,-15380 10993,-26484 L 692093,131526 h 23654 l 64296,152580 59300,-152580 h 21654 l -90282,223872 c -3331,8217 -7829,14326 -13492,18324 -5664,3997 -13603,5997 -23820,5997 -4220,0 -7995,-334 -11327,-1000 z M 581156,308425 c -8882,0 -16989,-1388 -24319,-4164 -7328,-2776 -13603,-6607 -18823,-11494 -5218,-4885 -9272,-10548 -12159,-16989 -2887,-6441 -4331,-13215 -4331,-20322 0,-7996 1777,-15269 5330,-21822 3554,-6551 8551,-12159 14992,-16823 6441,-4664 14159,-8273 23153,-10827 8995,-2555 18934,-3831 29817,-3831 8661,0 17545,777 26651,2331 9105,1556 17212,3776 24319,6663 v -15657 c 0,-15325 -4386,-27484 -13159,-36479 -8773,-8996 -20599,-13492 -35480,-13492 -9328,0 -18600,1777 -27817,5330 -9217,3554 -18600,8661 -28150,15325 l -7995,-14992 c 11326,-7552 22319,-13215 32980,-16990 10661,-3777 21766,-5664 33315,-5664 21098,0 37866,6107 50304,18322 12437,12217 18657,29095 18657,50639 v 78289 c 0,6218 2664,9328 7994,9328 v 19988 c -1776,223 -3441,388 -4997,499 -1554,112 -2887,167 -3997,167 -4443,0 -8495,-1332 -12160,-3997 -3665,-2666 -5718,-6663 -6164,-11994 l -665,-13658 c -7552,10215 -17491,18156 -29817,23819 -12326,5663 -24819,8495 -37479,8495 z m 5664,-17323 c 9994,0 19933,-2165 29816,-6497 9884,-4331 17713,-10271 23487,-17823 1555,-1998 2887,-4163 3997,-6496 1112,-2331 1666,-4498 1666,-6496 v -28318 c -7551,-2887 -15435,-5107 -23652,-6662 -8217,-1555 -16214,-2332 -23987,-2332 -16212,0 -29372,3276 -39478,9828 -10105,6551 -15157,15601 -15157,27151 0,4663 888,9217 2664,13658 1777,4443 4498,8440 8163,11994 3664,3553 8162,6440 13492,8661 5330,2222 11660,3332 18989,3332 z m -187226,17323 c -11993,0 -23098,-2499 -33314,-7496 -10217,-4997 -19046,-11603 -26486,-19821 -7439,-8217 -13214,-17712 -17322,-28484 -4110,-10772 -6163,-22043 -6163,-33814 0,-12216 1998,-23819 5995,-34814 3999,-10993 9495,-20599 16492,-28816 6995,-8218 15324,-14715 24985,-19489 9661,-4775 20267,-7163 31815,-7163 14658,0 27651,3831 38978,11493 11327,7663 20322,16935 26985,27818 V 61900 h 22653 v 213878 c 0,6218 2666,9328 7996,9328 v 19988 c -3776,666 -6774,1000 -8996,1000 -5551,0 -10105,-1611 -13658,-4831 -3554,-3221 -5330,-7052 -5330,-11494 v -18323 c -7107,11327 -16491,20323 -28151,26985 -11660,6663 -23820,9994 -36479,9994 z m 4664,-19988 c 5775,0 11827,-1111 18157,-3331 6328,-2221 12215,-5276 17655,-9162 5443,-3887 10162,-8440 14160,-13659 3997,-5219 6440,-10828 7329,-16824 v -53635 c -2222,-5997 -5498,-11606 -9828,-16825 -4331,-5219 -9217,-9827 -14658,-13825 -5441,-3998 -11217,-7107 -17324,-9328 -6108,-2221 -12160,-3331 -18156,-3331 -9328,0 -17823,1999 -25485,5996 -7663,3998 -14159,9273 -19489,15824 -5330,6552 -9495,14048 -12493,22488 -2999,8439 -4498,17101 -4498,25985 0,9328 1666,18212 4997,26651 3331,8440 7884,15824 13658,22155 5776,6328 12605,11382 20489,15157 7885,3776 16380,5664 25486,5664 z m -199886,19988 c -12660,0 -24264,-2387 -34814,-7162 -10550,-4775 -19655,-11271 -27318,-19490 -7661,-8217 -13603,-17766 -17823,-28649 -4220,-10884 -6328,-22321 -6328,-34314 0,-12216 2165,-23764 6496,-34647 4330,-10882 10327,-20433 17989,-28650 7662,-8217 16768,-14770 27318,-19655 10550,-4887 22043,-7330 34480,-7330 12437,0 23930,2443 34480,7330 10549,4885 19655,11438 27318,19655 7662,8217 13659,17768 17989,28650 4331,10883 6497,22431 6497,34647 0,11993 -2166,23430 -6497,34314 -4330,10883 -10327,20432 -17989,28649 -7663,8219 -16769,14715 -27318,19490 -10550,4775 -22043,7162 -34480,7162 z m -62964,-89281 c 0,9771 1611,18821 4831,27150 3220,8328 7662,15658 13325,21988 5664,6329 12327,11271 19988,14824 7663,3554 15826,5331 24487,5331 8661,0 16823,-1833 24486,-5497 7662,-3665 14380,-8662 20155,-14991 5775,-6330 10327,-13715 13659,-22155 3331,-8439 4997,-17545 4997,-27317 0,-9550 -1666,-18601 -4997,-27152 -3332,-8551 -7884,-15991 -13659,-22319 -5775,-6331 -12438,-11328 -19989,-14992 -7551,-3666 -15658,-5497 -24319,-5497 -8661,0 -16823,1831 -24486,5497 -7662,3664 -14325,8717 -19989,15157 -5663,6441 -10161,13936 -13492,22487 -3331,8551 -4997,17712 -4997,27486 z m -34980,77622 c -1333,665 -3276,1554 -5829,2664 -2554,1111 -5498,2221 -8829,3331 -3331,1112 -7107,2110 -11327,2999 -4220,888 -8661,1333 -13325,1333 -4887,0 -9550,-666 -13993,-1999 -4441,-1333 -8328,-3388 -11659,-6163 -3332,-2776 -5997,-6275 -7996,-10494 -1998,-4220 -2998,-9106 -2998,-14659 V 149516 H 6485 V 131526 H 30472 V 72894 h 22653 v 58632 h 39978 v 17990 H 53125 v 117932 c 445,6441 2666,11161 6663,14159 3998,2998 8773,4498 14325,4498 6442,0 12104,-1055 16991,-3165 4886,-2110 7996,-3609 9327,-4498 z"
   id="path3"
   inkscape:connector-curvature="0"
   style="fill:#000e45" />
 </g>
 <g
   id="Layer_x0020_3"
   transform="translate(-6485,-61900.413)">
  <metadata
   id="CorelCorpID_1Corel-Layer" />
  <path
   d="m 1155826,305092 h -63297 v -98610 c 0,-8662 -1942,-14935 -5829,-18822 -3887,-3887 -8383,-5829 -13492,-5829 -5330,0 -10993,2331 -16990,6997 -5998,4661 -10439,10659 -13324,17988 v 98276 H 979597 V 129862 h 56965 v 25983 c 6218,-9551 14935,-16822 26152,-21821 11217,-4995 24486,-7495 39810,-7495 11995,0 21487,2165 28482,6497 6996,4331 12329,9715 15992,16157 3664,6441 6053,13324 7161,20654 1113,7330 1667,13991 1667,19989 z m -271510,0 V 129862 h 63297 v 175230 z m 0,-189890 V 61900 h 63297 v 53302 z"
   id="path7"
   inkscape:connector-curvature="0"
   style="fill:#eb2323" />
 </g>
 <g
   id="Layer_x0020_4"
   transform="translate(-6485,-61900.413)">
  <metadata
   id="CorelCorpID_2Corel-Layer" />
  <path
   d="m 363089,379302 c 0,-6458 1136,-12889 3406,-19298 2270,-6408 5576,-12133 9914,-17178 4340,-5047 9687,-9159 16045,-12337 6357,-3179 13572,-4768 21644,-4768 9587,0 17760,2169 24521,6509 6761,4338 11806,9989 15136,16951 l -8475,5147 c -1716,-3531 -3786,-6508 -6207,-8930 -2422,-2422 -5045,-4390 -7871,-5904 -2824,-1513 -5751,-2597 -8778,-3253 -3028,-656 -6005,-985 -8931,-985 -6458,0 -12159,1312 -17104,3937 -4944,2622 -9106,6053 -12487,10292 -3380,4238 -5928,9006 -7644,14303 -1715,5298 -2573,10671 -2573,16121 0,5952 1034,11654 3102,17102 2070,5451 4895,10269 8477,14456 3582,4188 7821,7518 12715,9990 4894,2473 10216,3708 15968,3708 3028,0 6130,-378 9309,-1135 3179,-756 6256,-1967 9233,-3632 2977,-1666 5726,-3734 8249,-6206 2523,-2472 4642,-5475 6358,-9006 l 8778,4540 c -1716,4037 -4137,7594 -7265,10672 -3128,3077 -6609,5676 -10444,7795 -3835,2119 -7896,3733 -12185,4844 -4289,1109 -8501,1665 -12638,1665 -7366,0 -14127,-1616 -20283,-4844 -6155,-3229 -11452,-7442 -15892,-12639 -4440,-5197 -7897,-11100 -10369,-17709 -2471,-6610 -3709,-13345 -3709,-20208 z m 153633,55247 c -7468,0 -14305,-1538 -20510,-4616 -6206,-3077 -11528,-7164 -15968,-12261 -4440,-5094 -7871,-10923 -10294,-17482 -2421,-6558 -3631,-13269 -3631,-20130 0,-7165 1287,-14027 3859,-20585 2573,-6559 6130,-12362 10671,-17407 4540,-5046 9889,-9057 16045,-12033 6154,-2978 12815,-4466 19979,-4466 7466,0 14303,1590 20510,4769 6205,3179 11503,7341 15892,12488 4389,5145 7795,10972 10218,17481 2421,6509 3633,13143 3633,19904 0,7164 -1287,14027 -3861,20586 -2573,6558 -6104,12335 -10595,17330 -4491,4995 -9813,8981 -15968,11958 -6156,2976 -12815,4464 -19980,4464 z m -39809,-54489 c 0,5852 959,11477 2877,16877 1917,5398 4641,10191 8173,14379 3531,4188 7719,7517 12563,9990 4843,2472 10242,3709 16196,3709 6054,0 11554,-1313 16498,-3937 4945,-2622 9132,-6054 12563,-10292 3430,-4238 6080,-9031 7947,-14380 1866,-5347 2800,-10796 2800,-16346 0,-5853 -985,-11479 -2952,-16877 -1968,-5398 -4717,-10167 -8249,-14303 -3531,-4139 -7719,-7443 -12564,-9915 -4843,-2472 -10191,-3709 -16043,-3709 -6055,0 -11555,1287 -16499,3860 -4945,2574 -9132,5980 -12563,10218 -3430,4238 -6080,9031 -7947,14378 -1866,5349 -2800,10797 -2800,16348 z m 205852,53733 v -88243 l -39202,68263 h -6207 l -39353,-68263 v 88243 H 587558 V 326327 h 10747 l 42079,73561 42078,-73561 h 10746 v 107466 z"
   id="path11"
   inkscape:connector-curvature="0"
   style="fill:#eb2323" />
 </g>
 <g
   id="Layer_x0020_5"
   transform="translate(-6485,-61900.413)">
  <metadata
   id="CorelCorpID_3Corel-Layer" />
  <path
   d="M 111761,433793 V 377184 L 93749,416992 H 78007 L 59995,377184 v 56609 H 30480 V 326327 h 32239 l 23159,50554 23310,-50554 h 32089 v 107466 z m 37538,0 40110,-107466 h 23915 l 39959,107466 h -31180 l -6509,-21039 h -28607 l -6357,21039 z m 52068,-76740 -9990,36024 h 19526 z m 59939,76740 V 326327 h 49343 c 5247,0 10091,1085 14531,3253 4440,2170 8249,4996 11428,8477 3179,3482 5676,7467 7492,11957 1817,4491 2726,9007 2726,13547 0,6256 -1363,12084 -4088,17482 -2724,5400 -6508,9814 -11352,13244 l 24218,39506 h -33300 l -20433,-32996 h -11050 v 32996 z m 29515,-58728 h 18618 c 1816,0 3506,-1010 5070,-3027 1564,-2018 2347,-4844 2347,-8477 0,-3733 -909,-6584 -2725,-8551 -1817,-1968 -3633,-2952 -5450,-2952 h -17860 z"
   id="path15"
   inkscape:connector-curvature="0"
   style="fill:#eb2323" />
 </g>
</svg>