<?xml version="1.0" encoding="UTF-8" standalone="no"?>
<svg
   xmlns:dc="http://purl.org/dc/elements/1.1/"
   xmlns:cc="http://creativecommons.org/ns#"
   xmlns:rdf="http://www.w3.org/1999/02/22-rdf-syntax-ns#"
   xmlns:svg="http://www.w3.org/2000/svg"
   xmlns="http://www.w3.org/2000/svg"
   xml:space="preserve"
   width="11.28397in"
   height="1.8075383in"
   version="1.0"
   shape-rendering="geometricPrecision"
   text-rendering="geometricPrecision"
   image-rendering="optimizeQuality"
   fill-rule="evenodd"
   clip-rule="evenodd"
   viewBox="0 0 1128398 180753.82"
   id="svg18"><metadata
   id="metadata24"><rdf:RDF><cc:Work
       rdf:about=""><dc:format>image/svg+xml</dc:format><dc:type
         rdf:resource="http://purl.org/dc/dcmitype/StillImage" /></cc:Work></rdf:RDF></metadata><defs
   id="defs22" />
 <g
   id="Layer_x0020_1"
   transform="translate(-20444,-64756.413)">
  <metadata
   id="CorelCorpID_0Corel-Layer" />
  <path
   fill="#ff6633"
   d="m 559119,181112 c 0,4728 3834,8560 8561,8560 7003,0 3491,-5123 15617,-5525 5338,177 7646,1271 9153,2436 1469,1585 3204,3443 3430,10300 -402,12126 -5525,8613 -5525,15618 0,4726 3832,8560 8560,8560 4728,0 8560,-3834 8560,-8560 0,-7005 -5123,-3492 -5525,-15618 181,-5454 1316,-7746 2511,-9252 625,-530 1171,-1150 1621,-1838 800,-979 1393,-2143 1393,-4528 l -2,-76 2,-77 c 0,-4728 -3834,-8560 -8560,-8560 -2618,0 -3767,717 -4813,1634 -595,405 -1135,885 -1611,1423 -1508,1178 -3806,2289 -9194,2467 -12126,-401 -8614,-5524 -15617,-5524 -4727,0 -8561,3832 -8561,8560 z m 65735,-34145 c 4578,0 8289,3710 8289,8289 0,4578 -3711,8288 -8289,8288 -4578,0 -8289,-3710 -8289,-8288 0,-4579 3711,-8289 8289,-8289 z m 207,50187 c 4728,0 8561,3834 8561,8561 0,7004 -5124,3492 -5525,15617 401,12126 5525,8614 5525,15618 0,4726 -3833,8560 -8561,8560 -4728,0 -8560,-3834 -8560,-8560 0,-7004 5123,-3492 5525,-15618 -402,-12125 -5525,-8613 -5525,-15617 0,-4727 3832,-8561 8560,-8561 z m -90584,-41898 c 0,-4728 3834,-8561 8560,-8561 7004,0 3492,5124 15618,5525 12126,-401 8614,-5525 15617,-5525 4727,0 8561,3833 8561,8561 0,4727 -3834,8560 -8561,8560 -7003,0 -3491,-5123 -15617,-5525 -12126,402 -8614,5525 -15618,5525 -4726,0 -8560,-3833 -8560,-8560 z m 132399,0 c 0,-4728 3833,-8561 8560,-8561 7004,0 3492,5124 15618,5525 12125,-401 8613,-5525 15617,-5525 4727,0 8560,3833 8560,8561 0,4727 -3833,8560 -8560,8560 -7004,0 -3492,-5123 -15617,-5525 -12126,402 -8614,5525 -15618,5525 -4727,0 -8560,-3833 -8560,-8560 z M 625061,64756 c 4728,0 8561,3834 8561,8560 0,7004 -5124,3492 -5525,15618 401,12125 5525,8613 5525,15618 0,4726 -3833,8560 -8561,8560 -4728,0 -8560,-3834 -8560,-8560 0,-7005 5123,-3493 5525,-15618 -402,-12126 -5525,-8614 -5525,-15618 0,-4726 3832,-8560 8560,-8560 z m -65942,64643 c 0,-4728 3834,-8560 8561,-8560 7003,0 3491,5123 15617,5525 5338,-177 7646,-1271 9153,-2436 1469,-1585 3204,-3444 3430,-10300 -402,-12126 -5525,-8614 -5525,-15618 0,-4726 3832,-8560 8560,-8560 4728,0 8560,3834 8560,8560 0,7004 -5123,3492 -5525,15618 181,5454 1316,7746 2511,9252 625,530 1171,1150 1621,1838 800,979 1393,2143 1393,4527 l -2,77 2,77 c 0,4728 -3834,8560 -8560,8560 -2618,0 -3767,-716 -4813,-1634 -595,-405 -1135,-885 -1611,-1423 -1508,-1178 -3806,-2289 -9194,-2467 -12126,401 -8614,5524 -15617,5524 -4727,0 -8561,-3832 -8561,-8560 z m 132195,0 c 0,-4728 -3834,-8560 -8560,-8560 -7004,0 -3492,5123 -15618,5525 -5338,-177 -7645,-1271 -9153,-2436 -1468,-1585 -3203,-3444 -3429,-10300 402,-12126 5525,-8614 5525,-15618 0,-4726 -3833,-8560 -8560,-8560 -4728,0 -8561,3834 -8561,8560 0,7004 5123,3492 5525,15618 -180,5454 -1316,7746 -2511,9252 -625,530 -1170,1150 -1621,1838 -800,979 -1393,2143 -1393,4527 l 2,77 -2,77 c 0,4728 3834,8560 8561,8560 2618,0 3766,-716 4812,-1634 595,-405 1136,-885 1611,-1423 1508,-1178 3806,-2289 9194,-2467 12126,401 8614,5524 15618,5524 4726,0 8560,-3832 8560,-8560 z m 0,51713 c 0,4728 -3834,8560 -8560,8560 -7004,0 -3492,-5123 -15618,-5525 -5338,177 -7645,1271 -9153,2436 -1468,1585 -3203,3443 -3429,10300 402,12126 5525,8613 5525,15618 0,4726 -3833,8560 -8560,8560 -4728,0 -8561,-3834 -8561,-8560 0,-7005 5123,-3492 5525,-15618 -180,-5454 -1316,-7746 -2511,-9252 -625,-530 -1170,-1150 -1621,-1838 -800,-979 -1393,-2143 -1393,-4528 l 2,-76 -2,-77 c 0,-4728 3834,-8560 8561,-8560 2618,0 3766,717 4812,1634 595,405 1136,885 1611,1423 1508,1178 3806,2289 9194,2467 12126,-401 8614,-5524 15618,-5524 4726,0 8560,3832 8560,8560 z"
   id="path3" />
 </g>
 <g
   id="Layer_x0020_2"
   transform="translate(-20444,-64756.413)">
  <metadata
   id="CorelCorpID_1Corel-Layer" />
  <path
   fill="#49496b"
   d="m 574580,196979 c 4579,0 8289,3710 8289,8289 0,4578 -3710,8288 -8289,8288 -4579,0 -8289,-3710 -8289,-8288 0,-4579 3710,-8289 8289,-8289 z m 50481,-23864 c 4579,0 8289,3709 8289,8289 0,4578 -3710,8289 -8289,8289 -4579,0 -8289,-3711 -8289,-8289 0,-4580 3710,-8289 8289,-8289 z m 26148,-26148 c 4579,0 8289,3709 8289,8289 0,4578 -3710,8288 -8289,8288 -4579,0 -8289,-3710 -8289,-8288 0,-4580 3710,-8289 8289,-8289 z m -52711,0 c 4578,0 8288,3709 8288,8289 0,4578 -3710,8288 -8288,8288 -4579,0 -8289,-3710 -8289,-8288 0,-4580 3710,-8289 8289,-8289 z m 26563,-26150 c 4579,0 8289,3710 8289,8289 0,4579 -3710,8288 -8289,8288 -4579,0 -8289,-3709 -8289,-8288 0,-4579 3710,-8289 8289,-8289 z M 574580,96953 c 4579,0 8289,3710 8289,8289 0,4578 -3710,8288 -8289,8288 -4579,0 -8289,-3710 -8289,-8288 0,-4579 3710,-8289 8289,-8289 z m 101273,0 c 4579,0 8289,3710 8289,8289 0,4578 -3710,8288 -8289,8288 -4579,0 -8289,-3710 -8289,-8288 0,-4579 3710,-8289 8289,-8289 z m 0,100026 c 4579,0 8289,3710 8289,8289 0,4578 -3710,8288 -8289,8288 -4579,0 -8289,-3710 -8289,-8288 0,-4579 3710,-8289 8289,-8289 z"
   id="path7" />
 </g>
 <g
   id="Layer_x0020_3"
   transform="translate(-20444,-64756.413)">
  <metadata
   id="CorelCorpID_2Corel-Layer" />
  <path
   fill="#49496b"
   d="m 122745,117148 -15334,19911 H 80062 v 56643 H 56375 V 137059 H 20444 l 15334,-19911 z m 96122,56872 -15220,19682 h -73693 v -76554 h 88683 l -15333,19911 h -49548 v 9154 h 60648 l -13618,17394 h -47030 v 10413 z m 105504,0 -15219,19682 h -38448 c -6637,0 -12779,-992 -18424,-2975 -5645,-1984 -10508,-4711 -14590,-8182 -4081,-3471 -7285,-7591 -9612,-12358 -2327,-4768 -3490,-9937 -3490,-15506 0,-5569 1163,-10661 3490,-15276 2327,-4616 5531,-8583 9612,-11901 4082,-3319 8945,-5874 14590,-7667 5645,-1793 11787,-2689 18424,-2689 h 53667 l -15219,19911 h -38448 c -3205,0 -6180,458 -8926,1373 -2747,916 -5111,2193 -7095,3833 -1983,1641 -3547,3605 -4692,5894 -1144,2288 -1716,4806 -1716,7552 0,2746 553,5245 1659,7495 1107,2251 2670,4177 4692,5779 2022,1602 4405,2842 7152,3719 2746,877 5721,1316 8926,1316 z m 101157,19682 h -23573 v -29523 h -45543 v 29523 h -23802 v -76554 h 23802 v 27120 h 45543 v -27120 h 23573 z m 92116,1259 c -1526,0 -3032,-248 -4520,-744 -1487,-496 -3147,-1621 -4978,-3376 l -46916,-42110 v 44971 h -21513 v -63509 c 0,-2517 363,-4691 1087,-6523 725,-1830 1678,-3318 2861,-4462 1182,-1145 2555,-1984 4119,-2517 1564,-535 3185,-802 4864,-802 1449,0 2918,248 4405,744 1488,496 3185,1621 5092,3376 l 46917,42110 v -44971 h 21627 v 63395 c 0,2517 -362,4691 -1087,6522 -725,1831 -1678,3338 -2861,4520 -1182,1182 -2574,2041 -4176,2575 -1602,534 -3243,801 -4921,801 z m 285275,-20941 -15334,19682 h -67628 v -76554 h 23687 v 56872 z m 58474,-58131 c 18614,0 32593,3166 41938,9498 9346,6332 14018,16326 14018,29981 0,13732 -4653,23763 -13960,30095 -9307,6332 -23306,9498 -41996,9498 -18767,0 -32784,-3166 -42053,-9498 -9269,-6332 -13904,-16363 -13904,-30095 0,-13655 4654,-23649 13961,-29981 9307,-6332 23305,-9498 41996,-9498 z m 0,59161 c 5950,0 10985,-248 15105,-744 4119,-496 7457,-1469 10012,-2918 2556,-1449 4406,-3452 5550,-6008 1144,-2555 1717,-5893 1717,-10012 0,-4120 -573,-7457 -1717,-10013 -1144,-2555 -2994,-4539 -5550,-5950 -2555,-1412 -5893,-2365 -10012,-2861 -4120,-496 -9155,-744 -15105,-744 -5950,0 -10986,248 -15105,744 -4119,496 -7457,1449 -10013,2861 -2555,1411 -4405,3395 -5549,5950 -1145,2556 -1717,5893 -1717,10013 0,4119 572,7457 1717,10012 1144,2556 2994,4559 5549,6008 2556,1449 5894,2422 10013,2918 4119,496 9155,744 15105,744 z m 115231,-29180 h 48976 v 47832 h -52523 c -6637,0 -12779,-992 -18424,-2975 -5645,-1984 -10508,-4711 -14590,-8182 -4081,-3471 -7285,-7591 -9612,-12358 -2327,-4768 -3490,-9937 -3490,-15506 0,-5569 1163,-10661 3490,-15276 2327,-4616 5531,-8583 9612,-11901 4082,-3319 8945,-5874 14590,-7667 5645,-1793 11787,-2689 18424,-2689 h 54812 l -15334,19911 h -39478 c -3205,0 -6180,458 -8926,1373 -2746,916 -5130,2212 -7152,3891 -2021,1678 -3605,3642 -4749,5893 -1144,2251 -1716,4749 -1716,7495 0,2746 553,5245 1659,7495 1106,2251 2670,4177 4692,5779 2021,1602 4405,2842 7152,3719 2746,877 5759,1316 9040,1316 h 28951 v -11100 h -39593 z m 172218,-28722 -45429,51265 v 25289 h -23802 v -25404 l -46687,-51150 h 30438 l 18309,21284 c 610,687 1411,1583 2403,2689 992,1107 2022,2270 3090,3490 1068,1221 2059,2365 2975,3433 915,1068 1564,1869 1945,2403 763,-1068 1869,-2517 3319,-4348 1449,-1831 3547,-4425 6293,-7781 l 17394,-21170 z"
   id="path11" />
 </g>
 <g
   id="Layer_x0020_4"
   transform="translate(-20444,-64756.413)">
  <metadata
   id="CorelCorpID_3Corel-Layer" />
  <path
   fill="#49496b"
   d="m 56813,212603 v 27995 h 6318 v -7999 h 5560 c 7118,0 11198,-3759 11198,-10278 0,-6199 -4080,-9718 -11198,-9718 z m 6318,5239 h 5239 c 3520,0 5519,1560 5519,4679 0,3199 -1999,4799 -5519,4799 h -5239 z m 47632,22756 h 7159 l -5959,-9239 c 3399,-1600 5239,-4719 5239,-9038 0,-6199 -4159,-9718 -11478,-9718 H 93566 v 27995 h 6319 v -7999 h 5839 600 z M 99885,227320 v -9478 h 5839 c 3479,0 5479,1560 5479,4679 0,3199 -2000,4799 -5479,4799 z m 53590,-9478 v -5239 h -21316 v 27995 h 21756 v -5239 h -15437 v -6199 h 13517 v -5240 h -13517 v -6078 z m 25276,-5519 c -6479,0 -10838,3199 -10838,8278 0,9918 14917,6839 14917,12118 0,1720 -1560,2679 -4159,2679 -2960,0 -7039,-1639 -9919,-4199 l -2519,5159 c 3160,2680 7759,4440 12358,4440 6199,0 10958,-2960 10958,-8439 40,-10078 -14878,-7199 -14878,-12358 0,-1520 1440,-2279 3560,-2279 2239,0 5759,1119 8718,2879 l 2440,-5239 c -2800,-1840 -6719,-3039 -10638,-3039 z m 35114,0 c -6479,0 -10839,3199 -10839,8278 0,9918 14918,6839 14918,12118 0,1720 -1560,2679 -4159,2679 -2960,0 -7039,-1639 -9919,-4199 l -2519,5159 c 3159,2680 7759,4440 12357,4440 6200,0 10959,-2960 10959,-8439 40,-10078 -14878,-7199 -14878,-12358 0,-1520 1440,-2279 3559,-2279 2240,0 5760,1119 8719,2879 l 2440,-5239 c -2800,-1840 -6719,-3039 -10638,-3039 z m 61348,28275 h 7159 l -5959,-9239 c 3400,-1600 5239,-4719 5239,-9038 0,-6199 -4159,-9718 -11478,-9718 h -12157 v 27995 h 6318 v -7999 h 5839 600 z m -10878,-13278 v -9478 h 5839 c 3480,0 5479,1560 5479,4679 0,3199 -1999,4799 -5479,4799 z m 53591,-9478 v -5239 h -21317 v 27995 h 21756 v -5239 h -15437 v -6199 h 13518 v -5240 h -13518 v -6078 z m 21356,17237 v -22476 h -6319 v 27995 h 18317 v -5519 z m 46711,-17237 v -5239 h -21316 v 27995 h 21756 v -5239 h -15437 v -6199 h 13517 v -5240 h -13517 v -6078 z m 33514,17317 2200,5439 h 6759 l -11958,-27995 h -6519 l -12158,27995 h 6519 l 2200,-5439 z m -2039,-5079 h -8839 l 4440,-10878 z m 33794,-17757 c -6479,0 -10838,3199 -10838,8278 0,9918 14917,6839 14917,12118 0,1720 -1560,2679 -4159,2679 -2960,0 -7039,-1639 -9919,-4199 l -2519,5159 c 3160,2680 7759,4440 12358,4440 6199,0 10958,-2960 10958,-8439 40,-10078 -14878,-7199 -14878,-12358 0,-1520 1440,-2279 3560,-2279 2239,0 5759,1119 8718,2879 l 2440,-5239 c -2800,-1840 -6719,-3039 -10638,-3039 z m 46192,5519 v -5239 h -21317 v 27995 h 21756 v -5239 h -15437 v -6199 h 13518 v -5240 h -13518 v -6078 z m 25275,-5519 c -6479,0 -10838,3199 -10838,8278 0,9918 14917,6839 14917,12118 0,1720 -1560,2679 -4159,2679 -2959,0 -7039,-1639 -9918,-4199 l -2520,5159 c 3160,2680 7759,4440 12358,4440 6199,0 10958,-2960 10958,-8439 40,-10078 -14877,-7199 -14877,-12358 0,-1520 1439,-2279 3559,-2279 2240,0 5759,1119 8719,2879 l 2439,-5239 c -2799,-1840 -6719,-3039 -10638,-3039 z"
   id="path15" />
 </g>
</svg>
