<?xml version="1.0" encoding="UTF-8" standalone="no"?>
<!-- Creator: CorelDRAW X7 -->

<svg
   xmlns:dc="http://purl.org/dc/elements/1.1/"
   xmlns:cc="http://creativecommons.org/ns#"
   xmlns:rdf="http://www.w3.org/1999/02/22-rdf-syntax-ns#"
   xmlns:svg="http://www.w3.org/2000/svg"
   xmlns="http://www.w3.org/2000/svg"
   xmlns:sodipodi="http://sodipodi.sourceforge.net/DTD/sodipodi-0.dtd"
   xmlns:inkscape="http://www.inkscape.org/namespaces/inkscape"
   xml:space="preserve"
   width="10.86518in"
   height="2.5565476in"
   version="1.0"
   viewBox="0 0 1086519 255654.76"
   id="svg14"
   sodipodi:docname="cryptotimesgazette-logo-b27-svg_cropped.svg"
   style="clip-rule:evenodd;fill-rule:evenodd;image-rendering:optimizeQuality;shape-rendering:geometricPrecision;text-rendering:geometricPrecision"
   inkscape:version="0.92.3 (2405546, 2018-03-11)"><metadata
   id="metadata20"><rdf:RDF><cc:Work
       rdf:about=""><dc:format>image/svg+xml</dc:format><dc:type
         rdf:resource="http://purl.org/dc/dcmitype/StillImage" /></cc:Work></rdf:RDF></metadata><defs
   id="defs18" /><sodipodi:namedview
   pagecolor="#ffffff"
   bordercolor="#666666"
   borderopacity="1"
   objecttolerance="10"
   gridtolerance="10"
   guidetolerance="10"
   inkscape:pageopacity="0"
   inkscape:pageshadow="2"
   inkscape:window-width="640"
   inkscape:window-height="480"
   id="namedview16"
   showgrid="false"
   inkscape:zoom="0.29734114"
   inkscape:cx="521.52674"
   inkscape:cy="-0.13054462"
   inkscape:window-x="0"
   inkscape:window-y="0"
   inkscape:window-maximized="0"
   inkscape:current-layer="svg14" />
 <g
   id="Layer_x0020_2"
   transform="translate(-41388,-157595.41)">
  <metadata
   id="CorelCorpID_0Corel-Layer" />
  <path
   d="m 182185,158220 c 64530,6489 114906,60963 114906,127203 0,66240 -50376,120713 -114906,127203 v -40542 c 20756,-2668 41035,-12875 55935,-27563 l -17198,-19165 c -13024,12531 -30715,20394 -47916,20394 -34398,0 -61426,-26785 -61426,-60693 0,-33907 27028,-60444 61426,-60444 17448,0 35385,8356 47916,21868 l 16953,-21130 c -14492,-14279 -34711,-23751 -55690,-26012 z m -14876,255030 c -4870,-71 -9677,-407 -14400,-1009 v -41264 c 4663,917 9472,1494 14400,1706 z m -29276,-3819 C 82507,395501 41388,345268 41388,285423 c 0,-59846 41121,-110082 96645,-124009 v 43616 c -33183,12610 -55939,43192 -55939,80274 0,37700 22765,68806 55939,81421 z m 14876,-250826 c 4723,-603 9530,-939 14400,-1010 v 41355 c -4924,254 -9737,862 -14400,1798 z"
   id="path3"
   inkscape:connector-curvature="0"
   style="fill:#c71e0c" />
 </g>
 <g
   id="Layer_x0020_3"
   transform="translate(-41388,-157595.41)">
  <metadata
   id="CorelCorpID_1Corel-Layer" />
  <path
   d="m 438106,330111 c -3608,1522 -7268,2887 -10929,4074 -3686,1211 -7475,2267 -11417,3143 -3916,878 -8069,1548 -12425,2010 -4355,440 -9019,672 -13991,672 -10568,0 -20313,-1134 -29205,-3404 -8865,-2267 -16520,-5668 -22936,-10230 -6419,-4563 -11418,-10233 -14976,-17062 -3582,-6806 -5360,-14796 -5360,-23894 0,-9122 1778,-17085 5360,-23891 3558,-6829 8557,-12526 14976,-17062 6416,-4563 14071,-7964 22936,-10234 8892,-2266 18637,-3401 29205,-3401 4972,0 9636,233 13991,669 4356,466 8509,1135 12425,2011 3942,879 7731,1935 11417,3119 3661,1213 7321,2578 10929,4100 v 25206 c -2860,-1574 -5878,-3119 -9046,-4641 -3172,-1545 -6675,-2936 -10489,-4149 -3841,-1237 -8043,-2240 -12631,-3041 -4562,-774 -9742,-1161 -15465,-1161 -8813,0 -16134,902 -21932,2706 -5826,1830 -10463,4254 -13943,7268 -3481,3018 -5901,6472 -7321,10388 -1417,3893 -2112,7937 -2112,12113 0,2758 308,5490 902,8196 619,2680 1623,5232 3014,7629 1420,2398 3247,4589 5517,6599 2266,2011 5077,3762 8452,5206 3378,1469 7320,2604 11830,3453 4510,827 9692,1237 15593,1237 5723,0 10903,-361 15465,-1083 4588,-748 8790,-1699 12631,-2912 3814,-1210 7317,-2575 10489,-4123 3168,-1522 6186,-3119 9046,-4716 z m 121573,-73171 c -748,-229 -1857,-567 -3273,-1003 -1443,-440 -3119,-850 -5025,-1289 -1909,-440 -4021,-801 -6317,-1083 -2293,-308 -4638,-466 -7062,-466 -5025,0 -9715,620 -14071,1857 -4355,1236 -8429,2863 -12191,4897 -3788,2036 -7295,4355 -10542,6960 -3247,2578 -6238,5231 -8944,7963 v 62450 H 464267 V 233463 h 27987 v 16855 c 3378,-2525 6832,-4949 10387,-7294 3559,-2346 7242,-4409 11083,-6239 3867,-1804 7937,-3247 12218,-4329 4277,-1083 8787,-1624 13582,-1624 1804,0 3660,79 5540,259 1909,181 3739,387 5517,643 1804,259 3453,541 5025,827 1574,308 2912,616 4073,902 z m 141030,40415 c 0,6727 -1647,12756 -4973,18039 -3326,5285 -8042,9745 -14176,13402 -6107,3661 -13506,6419 -22191,8351 -8686,1909 -18401,2863 -29175,2863 -4743,0 -9715,-180 -14924,-567 -5205,-387 -10282,-902 -15258,-1574 -4946,-696 -9587,-1467 -13917,-2345 -4329,-876 -7989,-1854 -10954,-2913 v -24613 c 3224,1368 6805,2654 10748,3867 3942,1211 8249,2267 12860,3195 4641,928 9614,1676 14924,2191 5310,541 10929,800 16855,800 5592,0 10516,-338 14770,-980 4250,-669 7911,-1545 11056,-2654 3120,-1108 5694,-2371 7757,-3814 2063,-1420 3739,-2913 4976,-4461 1263,-1519 2165,-3040 2680,-4562 541,-1519 800,-2913 800,-4225 v -9151 c -5130,3789 -11240,6881 -18351,9331 -7088,2447 -15157,3661 -24203,3661 -10515,0 -19279,-1033 -26314,-3070 -7010,-2033 -12628,-4972 -16856,-8813 -4228,-3867 -7242,-8557 -9019,-14097 -1781,-5543 -2683,-11778 -2683,-18712 v -23041 h 28144 v 20230 c 0,4100 541,7708 1624,10876 1082,3172 2785,5851 5130,7990 2345,2139 5362,3765 9098,4871 3710,1108 8223,1650 13507,1650 4484,0 8711,-542 12706,-1650 4018,-1106 7705,-2575 11057,-4379 3375,-1830 6415,-3893 9147,-6212 2706,-2319 5052,-4664 7013,-7088 v -26288 h 28142 z m 149048,-28479 c 0,5179 -748,9948 -2266,14304 -1522,4355 -3946,8117 -7295,11263 -3352,3142 -7681,5592 -13014,7343 -5337,1778 -11857,2657 -19512,2657 h -46523 v 32783 H 733160 V 233463 h 74536 c 7655,0 14149,875 19486,2600 5333,1729 9662,4176 13014,7321 3349,3146 5799,6881 7295,11211 1518,4329 2266,9098 2266,14281 z m -28299,462 c 0,-2424 -334,-4510 -1030,-6238 -672,-1752 -1804,-3169 -3352,-4277 -1571,-1109 -3607,-1932 -6133,-2450 -2499,-542 -5619,-797 -9279,-797 h -40517 v 26751 h 40517 c 3660,0 6780,-204 9279,-643 2526,-440 4562,-1161 6133,-2191 1548,-1030 2680,-2372 3352,-4048 696,-1649 1030,-3709 1030,-6107 z m 109615,-13300 v 81188 h -27991 v -81188 h -44019 v -22575 h 116108 v 22575 z m 196834,29382 c 0,8918 -1624,16780 -4897,23582 -3273,6832 -7964,12526 -14048,17115 -6107,4588 -13477,8042 -22166,10387 -8685,2345 -18426,3506 -29250,3506 -10827,0 -20594,-1161 -29332,-3506 -8738,-2345 -16186,-5799 -22320,-10387 -6133,-4589 -10876,-10283 -14202,-17115 -3322,-6802 -4972,-14664 -4972,-23582 0,-8915 1650,-16777 4972,-23583 3326,-6829 8069,-12526 14202,-17111 6134,-4589 13582,-8043 22320,-10388 8738,-2345 18505,-3506 29332,-3506 10824,0 20565,1161 29250,3506 8689,2345 16059,5799 22166,10388 6084,4585 10775,10282 14048,17111 3273,6806 4897,14668 4897,23583 z m -28300,0 c 0,-3864 -619,-7731 -1856,-11598 -1236,-3841 -3427,-7291 -6573,-10384 -3142,-3070 -7422,-5544 -12860,-7475 -5438,-1909 -12372,-2864 -20772,-2864 -5644,0 -10594,440 -14871,1316 -4280,875 -7990,2115 -11109,3660 -3119,1571 -5750,3401 -7862,5490 -2112,2087 -3788,4330 -5051,6728 -1263,2371 -2165,4870 -2680,7475 -541,2574 -800,5126 -800,7652 0,2578 259,5156 800,7786 515,2601 1417,5127 2680,7498 1263,2398 2939,4641 5051,6701 2112,2063 4743,3867 7862,5389 3119,1545 6829,2755 11109,3634 4277,876 9227,1312 14871,1312 8400,0 15334,-951 20772,-2860 5438,-1932 9718,-4408 12860,-7475 3146,-3093 5337,-6547 6573,-10385 1237,-3866 1856,-7733 1856,-11600 z"
   id="path7"
   inkscape:connector-curvature="0"
   style="fill:#1a1a1a" />
 </g>
 <g
   id="Layer_x0020_4"
   transform="translate(-41388,-157595.41)">
  <metadata
   id="CorelCorpID_2Corel-Layer" />
  <path
   d="m 771712,353881 v 3847 l 13451,-397 v 33525 h 5035 v -33525 l 13454,397 v -3847 z m 41710,1440 c -668,-676 -1469,-1014 -2407,-1014 -908,-19 -1699,309 -2378,984 -685,670 -1023,1470 -1023,2408 0,908 328,1702 993,2378 699,685 1500,1023 2408,1023 938,20 1732,-308 2378,-994 676,-675 1014,-1479 1014,-2407 0,-958 -329,-1748 -985,-2378 z m -88,10758 h -4533 v 25055 h 4533 z m 19414,-649 c -1315,39 -2588,252 -3818,629 -1004,299 -2096,870 -3283,1719 -1191,833 -2109,1788 -2745,2860 v -4579 h -4533 v 24797 h 4533 v -3799 -10302 c 19,-1624 600,-3198 1748,-4723 1197,-1548 2387,-2581 3575,-3093 1394,-600 2824,-705 4273,-311 1526,357 2657,1056 3402,2069 879,1207 1322,2811 1322,4812 v 11637 3710 h 4591 v -3595 -11549 c 279,-1499 955,-2880 2037,-4165 1093,-1286 2165,-2155 3231,-2608 1391,-600 2830,-705 4300,-311 1525,357 2657,1056 3401,2069 869,1168 1296,2775 1296,4812 v 11637 3710 h 4589 v -3595 -12234 c 0,-2096 -299,-3730 -909,-4920 -715,-1420 -1663,-2483 -2831,-3208 -1207,-794 -2551,-1246 -4051,-1381 -1524,-174 -3217,10 -5064,541 -905,299 -1921,821 -3053,1555 -1099,735 -2027,1643 -2801,2716 v 0 c -59,59 -154,174 -289,367 -98,154 -193,299 -312,453 -55,-259 -193,-617 -423,-1043 -695,-1440 -1633,-2503 -2804,-3208 -1207,-794 -2568,-1246 -4077,-1381 -561,-59 -997,-88 -1305,-88 z m 45302,-86 c -3893,-19 -7101,1237 -9623,3769 -2533,2532 -3799,5631 -3799,9315 0,3565 1257,6563 3769,8977 2522,2417 5740,3778 9653,4097 4264,311 7993,-483 11181,-2375 l -1331,-2145 c -2205,1466 -4920,2145 -8148,2037 -2552,-95 -4772,-879 -6658,-2358 -1866,-1506 -3034,-3681 -3510,-6531 -114,-833 -173,-1519 -173,-2040 h 17104 4900 c -269,-3499 -1652,-6484 -4165,-8977 -2513,-2532 -5576,-3788 -9200,-3769 z m -850,2404 c 1962,0 3739,670 5327,1982 1640,1305 2801,3092 3477,5356 h -16420 c 342,-2080 1103,-3743 2293,-4979 1207,-1305 2686,-2066 4444,-2300 397,-39 686,-59 879,-59 z m 27155,-2404 c -2890,-88 -5248,800 -7085,2697 -597,596 -1082,1390 -1440,2378 -337,954 -443,2046 -308,3253 164,1191 666,2234 1499,3142 377,377 810,745 1305,1102 531,318 1139,636 1834,938 698,299 1295,552 1790,761 532,158 1257,387 2172,705 967,302 1623,535 1981,679 2253,764 3634,1670 4166,2752 337,679 426,1384 252,2119 -125,725 -436,1322 -928,1817 -532,557 -1266,984 -2214,1276 -935,220 -1863,308 -2772,249 -888,-75 -1768,-223 -2657,-453 -1131,-337 -2243,-872 -3315,-1587 -1073,-751 -1837,-1381 -2290,-1892 l -689,3362 c 2195,1518 4583,2436 7174,2784 2860,358 5342,59 7439,-879 2118,-987 3420,-2650 3906,-4989 492,-2299 164,-4191 -988,-5690 -849,-1168 -2735,-2250 -5661,-3257 -515,-164 -1354,-443 -2522,-820 -1132,-377 -1915,-640 -2348,-794 -397,-184 -909,-443 -1529,-764 -570,-338 -1043,-705 -1420,-1102 -463,-531 -705,-1177 -705,-1952 20,-810 242,-1495 646,-2066 476,-659 1191,-1132 2126,-1420 987,-322 2069,-377 3256,-164 1345,184 2621,656 3828,1410 1207,725 2155,1515 2860,2378 l 620,-3113 c -774,-541 -1702,-1082 -2775,-1613 -1643,-814 -3382,-1227 -5208,-1247 z m 48326,-12516 c -3680,-19 -7032,774 -10050,2378 -2985,1594 -5372,3884 -7170,6881 -1767,2985 -2666,6396 -2686,10224 -19,2811 551,5422 1703,7819 1167,2394 2696,4385 4578,5970 1932,1567 4041,2853 6350,3847 2338,948 4763,1545 7275,1817 5625,521 10719,-357 15291,-2666 v -10024 -4136 h -5018 v 4136 9463 c -2677,675 -5130,938 -7364,790 -4280,-374 -7885,-1902 -10814,-4559 -2899,-2676 -4762,-6311 -5576,-10902 -511,-3054 -393,-5934 338,-8630 774,-2706 2050,-4916 3828,-6658 1847,-1748 3982,-2831 6399,-3228 2473,-416 4792,-222 6966,571 2185,810 3874,2060 5065,3729 h 6087 c -1846,-2164 -4116,-3834 -6792,-5005 -2687,-1207 -5491,-1817 -8410,-1817 z m 45751,13336 h -1499 l -3083,1758 c -2532,-1738 -5352,-2597 -8465,-2578 -3874,-19 -7072,1247 -9594,3799 -2571,2531 -3857,5631 -3857,9314 0,3664 1266,6763 3798,9315 2562,2522 5779,3789 9653,3789 3113,-20 5933,-880 8465,-2572 v 1867 h 4582 z m -13897,1132 c 2165,-29 4136,685 5885,2155 1761,1440 2899,3139 3430,5120 v 9154 c 20,974 -213,1863 -685,2656 -433,736 -1004,1332 -1719,1788 -725,397 -1450,715 -2184,958 -735,210 -1460,328 -2185,367 -2397,76 -4572,-813 -6533,-2660 -1922,-1833 -3139,-4241 -3654,-7219 -472,-3043 -46,-5749 1276,-8124 1354,-2417 3191,-3778 5490,-4080 40,0 164,-10 368,-30 223,-55 396,-85 511,-85 z m 18535,-1237 v 2850 c 1702,20 4195,-19 7482,-107 3322,-135 5739,-191 7245,-174 l -15403,20470 v 1758 h 21946 v -2861 c -1836,-59 -4523,-19 -8068,115 -3556,118 -6157,164 -7820,164 l 15203,-20467 v -1748 z m 38654,-715 c -3893,-19 -7101,1237 -9623,3769 -2532,2532 -3799,5631 -3799,9315 0,3565 1257,6563 3769,8977 2522,2417 5740,3778 9653,4097 4264,311 7993,-483 11181,-2375 l -1332,-2145 c -2204,1466 -4919,2145 -8147,2037 -2552,-95 -4772,-879 -6658,-2358 -1866,-1506 -3034,-3681 -3510,-6531 -114,-833 -173,-1519 -173,-2040 h 17104 4900 c -269,-3499 -1653,-6484 -4165,-8977 -2513,-2532 -5576,-3788 -9200,-3769 z m -850,2404 c 1962,0 3739,670 5327,1982 1640,1305 2801,3092 3477,5356 h -16420 c 342,-2080 1103,-3743 2293,-4979 1207,-1305 2686,-2066 4444,-2300 397,-39 686,-59 879,-59 z m 23242,-7642 v 5953 h -5064 v 2424 h 5064 c -10,7819 -20,13307 -20,16488 0,597 20,1148 49,1634 40,472 204,1043 483,1699 252,649 609,1200 1082,1672 502,433 1217,820 2115,1158 948,302 2050,446 3316,427 1883,-20 3536,-443 4956,-1276 v -2319 c -413,262 -1053,482 -1902,656 -823,147 -1509,193 -2030,137 -965,-117 -1719,-475 -2270,-1072 -541,-630 -899,-1200 -1043,-1732 -158,-551 -233,-1102 -233,-1672 l 59,-15800 h 7190 v -2424 h -7190 l -59,-8832 h -1440 z m 21008,0 v 5953 h -5065 v 2424 h 5065 c -10,7819 -20,13307 -20,16488 0,597 20,1148 49,1634 40,472 203,1043 482,1699 253,649 610,1200 1083,1672 501,433 1217,820 2115,1158 948,302 2050,446 3316,427 1883,-20 3536,-443 4956,-1276 v -2319 c -413,262 -1053,482 -1902,656 -823,147 -1509,193 -2031,137 -964,-117 -1718,-475 -2269,-1072 -542,-630 -899,-1200 -1043,-1732 -158,-551 -233,-1102 -233,-1672 l 59,-15800 h 7190 v -2424 h -7190 l -59,-8832 h -1440 z m 29365,5238 c -3894,-19 -7101,1237 -9624,3769 -2532,2532 -3798,5631 -3798,9315 0,3565 1257,6563 3769,8977 2522,2417 5740,3778 9653,4097 4263,311 7993,-483 11181,-2375 l -1332,-2145 c -2204,1466 -4919,2145 -8147,2037 -2552,-95 -4772,-879 -6658,-2358 -1866,-1506 -3034,-3681 -3510,-6531 -115,-833 -174,-1519 -174,-2040 h 17105 4900 c -269,-3499 -1653,-6484 -4165,-8977 -2513,-2532 -5576,-3788 -9200,-3769 z m -850,2404 c 1961,0 3739,670 5327,1982 1640,1305 2801,3092 3477,5356 h -16420 c 341,-2080 1102,-3743 2293,-4979 1207,-1305 2686,-2066 4444,-2300 397,-39 686,-59 879,-59 z"
   id="path11"
   inkscape:connector-curvature="0"
   style="fill:#1a1a1a" />
 </g>
</svg>