<?xml version="1.0" encoding="UTF-8" standalone="no"?>
<svg
   xmlns:dc="http://purl.org/dc/elements/1.1/"
   xmlns:cc="http://creativecommons.org/ns#"
   xmlns:rdf="http://www.w3.org/1999/02/22-rdf-syntax-ns#"
   xmlns:svg="http://www.w3.org/2000/svg"
   xmlns="http://www.w3.org/2000/svg"
   id="Layer_1"
   data-name="Layer 1"
   viewBox="0 0 354.55127 75.76368"
   version="1.1"
   width="354.55127"
   height="75.76368">
  <metadata
     id="metadata59">
    <rdf:RDF>
      <cc:Work
         rdf:about="">
        <dc:format>image/svg+xml</dc:format>
        <dc:type
           rdf:resource="http://purl.org/dc/dcmitype/StillImage" />
      </cc:Work>
    </rdf:RDF>
  </metadata>
  <defs
     id="defs4">
    <style
       id="style2">.cls-1{fill:#00c0ff;}.cls-2{fill:#1565c0;}</style>
  </defs>
  <title
     id="title6">91</title>
  <path
     class="cls-1"
     d="m 109.48784,14.009402 a 6.47,6.47 0 0 1 3.35,0.81 8.23,8.23 0 0 1 2.67,3.17 l 17.33,31.47 a 1.08,1.08 0 0 1 0.13,0.86 c -0.09,0.23 -0.34,0.34 -0.76,0.34 h -6.65 a 1.2,1.2 0 0 1 -1.2,-0.68 l -3.72,-6.75 H 96.027835 l -3.61,6.78 a 1.28,1.28 0 0 1 -1.21,0.68 h -6.8 c -0.46,0 -0.73,-0.11 -0.82,-0.34 a 1.09,1.09 0 0 1 0.14,-0.86 l 17.200005,-31.48 a 8.8,8.8 0 0 1 2.57,-3.17 5.26,5.26 0 0 1 2.93,-0.81 z m -10.160005,23.14 h 18.000005 l -8.32,-15.34 a 0.66,0.66 0 0 0 -0.58,-0.37 h -0.31 a 0.65,0.65 0 0 0 -0.58,0.37 z"
     id="path8" />
  <path
     class="cls-1"
     d="m 144.51784,14.009402 a 17.48,17.48 0 0 1 2.09,0.1 4.09,4.09 0 0 1 1.47,0.45 4.68,4.68 0 0 1 1.2,0.94 15.09,15.09 0 0 1 1.31,1.6 l 19.48,25.55 a 0.74,0.74 0 0 0 0.68,0.37 h 0.47 c 0.28,0 0.42,-0.18 0.42,-0.53 v -27.33 a 1,1 0 0 1 1.15,-1.15 h 5.5 a 1,1 0 0 1 1.15,1.15 v 30.06 c 0,2.13 -0.38,3.57 -1.15,4.32 a 4.94,4.94 0 0 1 -3.56,1.12 h -4.5 a 16.23,16.23 0 0 1 -2,-0.1 4.49,4.49 0 0 1 -1.44,-0.42 4.81,4.81 0 0 1 -1.23,-0.92 16.35,16.35 0 0 1 -1.39,-1.65 l -19.55,-25.56 a 0.92,0.92 0 0 0 -0.68,-0.37 h -0.47 c -0.28,0 -0.42,0.18 -0.42,0.53 v 27.34 a 1,1 0 0 1 -1.15,1.15 h -5.5 c -0.8,0 -1.2,-0.38 -1.2,-1.15 v -30.06 c 0,-2.12 0.38,-3.56 1.15,-4.32 a 4.92,4.92 0 0 1 3.58,-1.12 z"
     id="path10" />
  <path
     class="cls-1"
     d="m 190.01784,14.009402 a 1,1 0 0 1 1.15,1.15 v 20.85 a 14.7,14.7 0 0 0 0.34,3.48 4.65,4.65 0 0 0 1.13,2.2 4.4,4.4 0 0 0 2.12,1.16 14.28,14.28 0 0 0 3.37,0.34 h 14.51 a 14.38,14.38 0 0 0 3.38,-0.34 4.45,4.45 0 0 0 2.12,-1.16 4.53,4.53 0 0 0 1.1,-2.2 16.05,16.05 0 0 0 0.31,-3.48 v -20.85 a 1,1 0 0 1 1.15,-1.15 h 5.71 a 1,1 0 0 1 1.15,1.15 v 21.68 a 22.88,22.88 0 0 1 -0.78,6.41 9.48,9.48 0 0 1 -2.54,4.3 10.34,10.34 0 0 1 -4.56,2.38 27.1,27.1 0 0 1 -6.78,0.73 h -15.08 a 26.74,26.74 0 0 1 -6.75,-0.73 10.33,10.33 0 0 1 -4.53,-2.38 9.61,9.61 0 0 1 -2.57,-4.3 22.08,22.08 0 0 1 -0.81,-6.41 v -21.68 c 0,-0.77 0.4,-1.15 1.2,-1.15 z"
     id="path12" />
  <path
     class="cls-1"
     d="m 253.47784,14.009402 a 6.44,6.44 0 0 1 3.35,0.81 8.23,8.23 0 0 1 2.67,3.17 l 17.33,31.47 a 1.09,1.09 0 0 1 0.14,0.86 c -0.09,0.23 -0.35,0.34 -0.76,0.34 h -6.65 a 1.21,1.21 0 0 1 -1.21,-0.68 l -3.72,-6.75 h -24.61 l -3.61,6.78 a 1.27,1.27 0 0 1 -1.2,0.68 h -6.81 c -0.45,0 -0.73,-0.11 -0.81,-0.34 a 1,1 0 0 1 0.13,-0.86 l 17.21,-31.48 a 8.9,8.9 0 0 1 2.57,-3.17 5.28,5.28 0 0 1 2.93,-0.81 z m -10.16,23.14 h 18 l -8.33,-15.34 a 0.65,0.65 0 0 0 -0.58,-0.37 h -0.31 a 0.65,0.65 0 0 0 -0.58,0.37 z"
     id="path14" />
  <path
     class="cls-1"
     d="m 305.92784,14.009402 c 0.8,0 1.2,0.38 1.2,1.15 v 5.13 a 1.07,1.07 0 0 1 -1.2,1.21 h -16.42 v 28 a 1,1 0 0 1 -1.16,1.15 h -5.7 a 1,1 0 0 1 -1.16,-1.15 v -28 h -16.44 a 1.07,1.07 0 0 1 -1.2,-1.21 v -5.13 c 0,-0.77 0.4,-1.15 1.2,-1.15 z"
     id="path16" />
  <path
     class="cls-1"
     d="m 316.98784,14.009402 a 1,1 0 0 1 1.16,1.15 v 20.85 a 14.7,14.7 0 0 0 0.34,3.48 4.64,4.64 0 0 0 1.12,2.2 4.45,4.45 0 0 0 2.12,1.16 14.38,14.38 0 0 0 3.38,0.34 h 14.5 a 14.32,14.32 0 0 0 3.38,-0.34 4.4,4.4 0 0 0 2.12,-1.16 4.45,4.45 0 0 0 1.1,-2.2 16,16 0 0 0 0.32,-3.48 v -20.85 a 1,1 0 0 1 1.15,-1.15 h 5.71 a 1,1 0 0 1 1.15,1.15 v 21.68 a 22.48,22.48 0 0 1 -0.79,6.41 9.39,9.39 0 0 1 -2.54,4.3 10.35,10.35 0 0 1 -4.55,2.38 27.1,27.1 0 0 1 -6.78,0.73 h -15.08 a 26.76,26.76 0 0 1 -6.76,-0.73 10.33,10.33 0 0 1 -4.53,-2.38 9.6,9.6 0 0 1 -2.56,-4.3 21.71,21.71 0 0 1 -0.82,-6.41 v -21.68 c 0,-0.77 0.41,-1.15 1.21,-1.15 z"
     id="path18" />
  <path
     class="cls-2"
     d="m 97.097835,56.519402 c 0.32,0 0.48,0.15 0.48,0.46 v 2 a 0.42,0.42 0 0 1 -0.48,0.48 h -6.54 v 11.15 a 0.4,0.4 0 0 1 -0.46,0.46 h -2.27 a 0.4,0.4 0 0 1 -0.46,-0.46 v -11.11 h -6.55 a 0.42,0.42 0 0 1 -0.48,-0.48 v -2 c 0,-0.31 0.16,-0.46 0.48,-0.46 z"
     id="path20" />
  <path
     class="cls-2"
     d="m 109.56784,59.669402 a 7.27,7.27 0 0 1 1.76,0.17 2.24,2.24 0 0 1 1.1,0.59 2.15,2.15 0 0 1 0.58,1.06 6.66,6.66 0 0 1 0.16,1.59 v 2 a 1.18,1.18 0 0 1 -0.29,0.93 1.26,1.26 0 0 1 -0.89,0.26 h -10.53 v 0.5 a 1.87,1.87 0 0 0 0.47,1.42 2.75,2.75 0 0 0 1.82,0.44 h 8.7 a 0.32,0.32 0 0 1 0.37,0.37 v 1.75 a 0.33,0.33 0 0 1 -0.37,0.38 h -9 a 10.39,10.39 0 0 1 -2.36,-0.23 3.48,3.48 0 0 1 -1.530005,-0.74 2.91,2.91 0 0 1 -0.82,-1.31 6.46,6.46 0 0 1 -0.25,-1.93 v -3 a 6.41,6.41 0 0 1 0.25,-1.93 2.85,2.85 0 0 1 0.82,-1.31 3.5,3.5 0 0 1 1.530005,-0.76 10.39,10.39 0 0 1 2.36,-0.23 z m -8.11,4.73 h 8.47 a 0.32,0.32 0 0 0 0.36,-0.36 v -0.87 a 1.28,1.28 0 0 0 -0.27,-0.92 1.44,1.44 0 0 0 -1,-0.27 h -5.24 a 2.76,2.76 0 0 0 -1.82,0.43 1.85,1.85 0 0 0 -0.47,1.42 z"
     id="path22" />
  <path
     class="cls-2"
     d="m 128.24784,59.669402 a 0.32,0.32 0 0 1 0.37,0.37 v 1.75 a 0.33,0.33 0 0 1 -0.37,0.38 h -8.09 a 4.44,4.44 0 0 0 -1.13,0.11 1.44,1.44 0 0 0 -0.69,0.38 1.54,1.54 0 0 0 -0.35,0.7 5,5 0 0 0 -0.1,1.1 v 1.85 a 4.89,4.89 0 0 0 0.1,1.11 1.59,1.59 0 0 0 0.35,0.7 1.43,1.43 0 0 0 0.69,0.37 4.38,4.38 0 0 0 1.13,0.12 h 8.09 a 0.32,0.32 0 0 1 0.37,0.37 v 1.75 a 0.33,0.33 0 0 1 -0.37,0.38 h -8.38 a 10.43,10.43 0 0 1 -2.37,-0.23 3.44,3.44 0 0 1 -1.52,-0.74 2.92,2.92 0 0 1 -0.83,-1.31 6.8,6.8 0 0 1 -0.25,-1.93 v -3 a 6.75,6.75 0 0 1 0.25,-1.93 2.87,2.87 0 0 1 0.83,-1.31 3.46,3.46 0 0 1 1.52,-0.76 10.43,10.43 0 0 1 2.37,-0.23 z"
     id="path24" />
  <path
     class="cls-2"
     d="m 133.11784,55.469402 a 0.41,0.41 0 0 1 0.46,0.46 v 3.74 h 7.8 a 10.42,10.42 0 0 1 2.35,0.23 3.44,3.44 0 0 1 1.53,0.76 2.79,2.79 0 0 1 0.83,1.31 6.75,6.75 0 0 1 0.25,1.93 v 6.75 a 0.4,0.4 0 0 1 -0.46,0.46 h -2 a 0.4,0.4 0 0 1 -0.46,-0.46 v -6 a 5.63,5.63 0 0 0 -0.09,-1.09 1.37,1.37 0 0 0 -0.32,-0.71 1.34,1.34 0 0 0 -0.65,-0.37 4.05,4.05 0 0 0 -1.09,-0.12 h -7.65 v 8.34 a 0.4,0.4 0 0 1 -0.46,0.46 h -2 a 0.4,0.4 0 0 1 -0.46,-0.46 v -14.77 a 0.41,0.41 0 0 1 0.46,-0.46 z"
     id="path26" />
  <path
     class="cls-2"
     d="m 159.79784,59.669402 a 10.52,10.52 0 0 1 2.36,0.23 3.44,3.44 0 0 1 1.53,0.76 2.77,2.77 0 0 1 0.82,1.31 6.41,6.41 0 0 1 0.25,1.93 v 6.75 a 0.4,0.4 0 0 1 -0.45,0.46 h -2 a 0.41,0.41 0 0 1 -0.46,-0.46 v -6 a 5.71,5.71 0 0 0 -0.08,-1.09 1.37,1.37 0 0 0 -0.32,-0.71 1.33,1.33 0 0 0 -0.66,-0.37 4,4 0 0 0 -1.08,-0.12 h -5.55 a 4.24,4.24 0 0 0 -1.1,0.12 1.47,1.47 0 0 0 -0.7,0.37 1.41,1.41 0 0 0 -0.36,0.71 4.82,4.82 0 0 0 -0.11,1.09 v 6 a 0.4,0.4 0 0 1 -0.46,0.46 h -2 c -0.32,0 -0.48,-0.15 -0.48,-0.46 v -6.75 a 6.41,6.41 0 0 1 0.25,-1.93 2.85,2.85 0 0 1 0.82,-1.31 3.5,3.5 0 0 1 1.53,-0.76 10.39,10.39 0 0 1 2.36,-0.23 z"
     id="path28" />
  <path
     class="cls-2"
     d="m 178.01784,59.669402 a 10.52,10.52 0 0 1 2.36,0.23 3.44,3.44 0 0 1 1.53,0.76 2.77,2.77 0 0 1 0.82,1.31 6.41,6.41 0 0 1 0.25,1.93 v 3 a 6.46,6.46 0 0 1 -0.25,1.93 2.82,2.82 0 0 1 -0.82,1.31 3.43,3.43 0 0 1 -1.53,0.74 10.52,10.52 0 0 1 -2.36,0.23 h -5.9 a 10.39,10.39 0 0 1 -2.36,-0.23 3.39,3.39 0 0 1 -1.52,-0.74 2.84,2.84 0 0 1 -0.83,-1.31 6.8,6.8 0 0 1 -0.25,-1.93 v -3 a 6.75,6.75 0 0 1 0.25,-1.93 2.79,2.79 0 0 1 0.83,-1.31 3.4,3.4 0 0 1 1.52,-0.76 10.39,10.39 0 0 1 2.36,-0.23 z m -7.88,6.71 a 4.79,4.79 0 0 0 0.11,1.1 1.46,1.46 0 0 0 0.36,0.7 1.52,1.52 0 0 0 0.7,0.37 4.24,4.24 0 0 0 1.1,0.12 h 5.32 a 4.44,4.44 0 0 0 1.13,-0.12 1.43,1.43 0 0 0 0.69,-0.37 1.39,1.39 0 0 0 0.37,-0.7 4.85,4.85 0 0 0 0.1,-1.1 v -2 a 4.82,4.82 0 0 0 -0.1,-1.09 1.47,1.47 0 0 0 -0.37,-0.71 1.36,1.36 0 0 0 -0.69,-0.37 5,5 0 0 0 -1.13,-0.11 h -5.32 a 4.79,4.79 0 0 0 -1.1,0.11 1.43,1.43 0 0 0 -0.7,0.37 1.54,1.54 0 0 0 -0.36,0.71 4.76,4.76 0 0 0 -0.11,1.09 z"
     id="path30" />
  <path
     class="cls-2"
     d="m 187.92784,55.469402 a 0.41,0.41 0 0 1 0.46,0.46 v 14.72 a 0.4,0.4 0 0 1 -0.46,0.46 h -2 a 0.41,0.41 0 0 1 -0.46,-0.46 v -14.72 a 0.41,0.41 0 0 1 0.46,-0.46 z"
     id="path32" />
  <path
     class="cls-2"
     d="m 201.73784,59.669402 a 10.52,10.52 0 0 1 2.36,0.23 3.44,3.44 0 0 1 1.53,0.76 2.77,2.77 0 0 1 0.82,1.31 6.41,6.41 0 0 1 0.25,1.93 v 3 a 6.46,6.46 0 0 1 -0.25,1.93 2.82,2.82 0 0 1 -0.82,1.31 3.43,3.43 0 0 1 -1.53,0.74 10.52,10.52 0 0 1 -2.36,0.23 h -5.9 a 10.39,10.39 0 0 1 -2.36,-0.23 3.44,3.44 0 0 1 -1.52,-0.74 2.84,2.84 0 0 1 -0.83,-1.31 6.8,6.8 0 0 1 -0.25,-1.93 v -3 a 6.75,6.75 0 0 1 0.25,-1.93 2.79,2.79 0 0 1 0.83,-1.31 3.46,3.46 0 0 1 1.52,-0.76 10.39,10.39 0 0 1 2.36,-0.23 z m -7.88,6.71 a 4.79,4.79 0 0 0 0.11,1.1 1.46,1.46 0 0 0 0.36,0.7 1.52,1.52 0 0 0 0.7,0.37 4.27,4.27 0 0 0 1.11,0.12 h 5.31 a 4.44,4.44 0 0 0 1.13,-0.12 1.43,1.43 0 0 0 0.69,-0.37 1.39,1.39 0 0 0 0.37,-0.7 4.85,4.85 0 0 0 0.1,-1.1 v -2 a 4.82,4.82 0 0 0 -0.1,-1.09 1.47,1.47 0 0 0 -0.37,-0.71 1.36,1.36 0 0 0 -0.69,-0.37 5,5 0 0 0 -1.13,-0.11 h -5.31 a 4.82,4.82 0 0 0 -1.11,0.11 1.43,1.43 0 0 0 -0.7,0.37 1.54,1.54 0 0 0 -0.36,0.71 4.76,4.76 0 0 0 -0.11,1.09 z"
     id="path34" />
  <path
     class="cls-2"
     d="m 219.76784,59.669402 a 10.43,10.43 0 0 1 2.37,0.23 3.77,3.77 0 0 1 1.53,0.74 2.7,2.7 0 0 1 0.82,1.31 6.78,6.78 0 0 1 0.24,1.93 v 7.58 a 6.83,6.83 0 0 1 -0.24,2 2.7,2.7 0 0 1 -0.82,1.31 3.55,3.55 0 0 1 -1.53,0.76 10.43,10.43 0 0 1 -2.37,0.23 h -9.84 a 0.33,0.33 0 0 1 -0.38,-0.37 v -1.75 a 0.34,0.34 0 0 1 0.38,-0.38 h 9.52 a 5,5 0 0 0 1.13,-0.11 1.53,1.53 0 0 0 0.7,-0.38 1.46,1.46 0 0 0 0.36,-0.7 5.1,5.1 0 0 0 0.1,-1.12 v -0.54 h -7.81 a 9.83,9.83 0 0 1 -2.37,-0.24 3.56,3.56 0 0 1 -1.52,-0.75 2.81,2.81 0 0 1 -0.82,-1.32 6.44,6.44 0 0 1 -0.25,-1.94 v -2.19 a 6.46,6.46 0 0 1 0.25,-1.95 2.77,2.77 0 0 1 0.82,-1.31 3.46,3.46 0 0 1 1.52,-0.76 10.43,10.43 0 0 1 2.37,-0.23 z m -7.84,6.42 a 3.29,3.29 0 0 0 0.1,0.9 1.23,1.23 0 0 0 0.37,0.61 1.49,1.49 0 0 0 0.69,0.34 5,5 0 0 0 1.11,0.1 h 7.54 v -3.89 a 2.17,2.17 0 0 0 -0.46,-1.57 2.73,2.73 0 0 0 -1.83,-0.46 h -5.22 a 4.88,4.88 0 0 0 -1.11,0.11 1.49,1.49 0 0 0 -0.69,0.34 1.26,1.26 0 0 0 -0.37,0.62 3.36,3.36 0 0 0 -0.1,0.89 z"
     id="path36" />
  <path
     class="cls-2"
     d="m 241.80784,59.669402 a 0.3,0.3 0 0 1 0.3,0.15 0.41,0.41 0 0 1 0,0.37 l -8,14.11 a 2.55,2.55 0 0 1 -1.18,1.07 5.21,5.21 0 0 1 -2.11,0.34 h -1.46 a 0.33,0.33 0 0 1 -0.38,-0.37 v -1.71 a 0.33,0.33 0 0 1 0.38,-0.37 h 1.23 a 1.1,1.1 0 0 0 1.06,-0.48 l 1.13,-2 a 1.61,1.61 0 0 1 -0.8,-0.25 2.14,2.14 0 0 1 -0.54,-0.65 l -5.62,-9.71 a 0.45,0.45 0 0 1 0,-0.37 0.31,0.31 0 0 1 0.31,-0.15 h 2.39 a 0.49,0.49 0 0 1 0.5,0.29 l 4.63,8 a 2.29,2.29 0 0 0 0.26,0.39 0.34,0.34 0 0 0 0.24,0.09 l 4.78,-8.41 a 0.5,0.5 0 0 1 0.5,-0.29 z"
     id="path38" />
  <path
     class="cls-2"
     d="m 253.30784,56.519402 a 0.4,0.4 0 0 1 0.46,0.46 v 8.31 a 6,6 0 0 0 0.14,1.39 1.88,1.88 0 0 0 0.44,0.87 1.71,1.71 0 0 0 0.85,0.46 5.5,5.5 0 0 0 1.34,0.14 h 5.78 a 5.5,5.5 0 0 0 1.34,-0.14 1.71,1.71 0 0 0 0.85,-0.46 1.78,1.78 0 0 0 0.43,-0.87 6,6 0 0 0 0.13,-1.39 v -8.28 a 0.4,0.4 0 0 1 0.46,-0.46 h 2.27 a 0.41,0.41 0 0 1 0.46,0.46 v 8.63 a 9,9 0 0 1 -0.32,2.55 3.67,3.67 0 0 1 -1,1.71 4.12,4.12 0 0 1 -1.81,0.95 11,11 0 0 1 -2.7,0.29 h -6 a 10.9,10.9 0 0 1 -2.69,-0.29 4.08,4.08 0 0 1 -1.8,-0.95 3.87,3.87 0 0 1 -1,-1.71 9,9 0 0 1 -0.32,-2.55 v -8.63 c 0,-0.31 0.16,-0.46 0.48,-0.46 z"
     id="path40" />
  <path
     class="cls-2"
     d="m 281.65784,59.669402 a 10.52,10.52 0 0 1 2.36,0.23 3.5,3.5 0 0 1 1.53,0.76 2.85,2.85 0 0 1 0.82,1.31 6.41,6.41 0 0 1 0.25,1.93 v 3 a 6.46,6.46 0 0 1 -0.25,1.93 2.91,2.91 0 0 1 -0.82,1.31 3.48,3.48 0 0 1 -1.53,0.74 10.52,10.52 0 0 1 -2.36,0.23 h -7.82 v 4.15 a 0.4,0.4 0 0 1 -0.46,0.45 h -2 q -0.48,0 -0.48,-0.45 v -11.36 a 6.75,6.75 0 0 1 0.25,-1.93 2.79,2.79 0 0 1 0.83,-1.31 3.46,3.46 0 0 1 1.52,-0.76 10.39,10.39 0 0 1 2.36,-0.23 z m -7.82,8.94 h 7.53 a 4.85,4.85 0 0 0 1.12,-0.11 1.35,1.35 0 0 0 0.7,-0.37 1.47,1.47 0 0 0 0.37,-0.71 4.89,4.89 0 0 0 0.1,-1.11 v -1.85 a 5,5 0 0 0 -0.1,-1.1 1.39,1.39 0 0 0 -0.37,-0.7 1.43,1.43 0 0 0 -0.7,-0.38 4.35,4.35 0 0 0 -1.12,-0.11 h -5.25 a 4.32,4.32 0 0 0 -1.11,0.11 1.53,1.53 0 0 0 -0.7,0.38 1.46,1.46 0 0 0 -0.36,0.7 4.91,4.91 0 0 0 -0.11,1.1 z"
     id="path42" />
  <path
     class="cls-2"
     d="m 301.68784,59.669402 v -3.74 a 0.41,0.41 0 0 1 0.46,-0.46 h 2 a 0.41,0.41 0 0 1 0.46,0.46 v 11 a 6.46,6.46 0 0 1 -0.25,1.93 2.91,2.91 0 0 1 -0.82,1.31 3.43,3.43 0 0 1 -1.53,0.74 10.52,10.52 0 0 1 -2.36,0.23 h -5.84 a 10.39,10.39 0 0 1 -2.36,-0.23 3.44,3.44 0 0 1 -1.52,-0.74 2.84,2.84 0 0 1 -0.83,-1.31 6.8,6.8 0 0 1 -0.25,-1.93 v -3 a 6.75,6.75 0 0 1 0.25,-1.93 2.79,2.79 0 0 1 0.83,-1.31 3.46,3.46 0 0 1 1.52,-0.76 10.39,10.39 0 0 1 2.36,-0.23 z m -2.29,8.94 a 4.3,4.3 0 0 0 1.12,-0.12 1.34,1.34 0 0 0 1.07,-1.07 4.89,4.89 0 0 0 0.1,-1.11 v -4.14 h -7.54 a 4.32,4.32 0 0 0 -1.11,0.11 1.53,1.53 0 0 0 -0.7,0.38 1.46,1.46 0 0 0 -0.36,0.7 4.91,4.91 0 0 0 -0.11,1.1 v 1.85 a 4.82,4.82 0 0 0 0.11,1.11 1.32,1.32 0 0 0 1.06,1.07 4.27,4.27 0 0 0 1.11,0.12 z"
     id="path44" />
  <path
     class="cls-2"
     d="m 316.48784,59.669402 a 10.52,10.52 0 0 1 2.36,0.23 3.44,3.44 0 0 1 1.53,0.76 2.77,2.77 0 0 1 0.82,1.31 6.41,6.41 0 0 1 0.25,1.93 v 5.54 a 3.73,3.73 0 0 1 -0.07,0.82 1,1 0 0 1 -0.25,0.51 1,1 0 0 1 -0.47,0.27 3.67,3.67 0 0 1 -0.75,0.07 h -9.92 a 5.53,5.53 0 0 1 -1.53,-0.18 2.35,2.35 0 0 1 -1,-0.53 2,2 0 0 1 -0.54,-0.92 5.18,5.18 0 0 1 -0.15,-1.33 v -1 a 4.13,4.13 0 0 1 0.16,-1.14 2,2 0 0 1 0.54,-0.86 2.36,2.36 0 0 1 1,-0.54 6,6 0 0 1 1.53,-0.17 h 8.48 v -0.43 a 3,3 0 0 0 -0.1,-0.85 1.2,1.2 0 0 0 -0.36,-0.58 1.58,1.58 0 0 0 -0.69,-0.32 4.93,4.93 0 0 0 -1.12,-0.1 h -8.71 a 0.34,0.34 0 0 1 -0.38,-0.38 v -1.77 a 0.33,0.33 0 0 1 0.38,-0.37 z m 1.38,9.15 a 0.62,0.62 0 0 0 0.47,-0.16 0.87,0.87 0 0 0 0.13,-0.55 v -1.84 h -7.63 a 1.26,1.26 0 0 0 -0.9,0.26 1,1 0 0 0 -0.27,0.76 v 0.44 a 1.08,1.08 0 0 0 0.27,0.82 1.21,1.21 0 0 0 0.9,0.27 z"
     id="path46" />
  <path
     class="cls-2"
     d="m 325.07784,59.669402 v -2.76 a 0.4,0.4 0 0 1 0.46,-0.45 h 2.06 a 0.4,0.4 0 0 1 0.46,0.45 v 2.76 h 3.65 a 0.32,0.32 0 0 1 0.37,0.37 v 1.71 a 0.32,0.32 0 0 1 -0.37,0.37 h -3.65 v 4.89 a 2,2 0 0 0 0.35,1.28 1.86,1.86 0 0 0 1.4,0.41 h 2 a 0.33,0.33 0 0 1 0.38,0.37 v 1.71 a 0.34,0.34 0 0 1 -0.38,0.38 h -2.52 a 7.86,7.86 0 0 1 -2.06,-0.23 2.88,2.88 0 0 1 -1.31,-0.73 2.66,2.66 0 0 1 -0.67,-1.29 8.07,8.07 0 0 1 -0.19,-1.9 v -4.84 h -2 a 0.33,0.33 0 0 1 -0.38,-0.37 v -1.79 a 0.33,0.33 0 0 1 0.38,-0.37 z"
     id="path48" />
  <path
     class="cls-2"
     d="m 344.50784,59.669402 a 7.33,7.33 0 0 1 1.76,0.17 2.29,2.29 0 0 1 1.1,0.59 2.32,2.32 0 0 1 0.58,1.06 6.66,6.66 0 0 1 0.16,1.59 v 2 a 1.22,1.22 0 0 1 -0.29,0.93 1.27,1.27 0 0 1 -0.9,0.26 h -10.52 v 0.5 a 1.83,1.83 0 0 0 0.47,1.42 2.75,2.75 0 0 0 1.82,0.44 h 8.69 a 0.33,0.33 0 0 1 0.38,0.37 v 1.75 a 0.34,0.34 0 0 1 -0.38,0.38 h -9 a 10.43,10.43 0 0 1 -2.37,-0.23 3.44,3.44 0 0 1 -1.52,-0.74 2.82,2.82 0 0 1 -0.82,-1.31 6.46,6.46 0 0 1 -0.25,-1.93 v -3 a 6.41,6.41 0 0 1 0.25,-1.93 2.77,2.77 0 0 1 0.82,-1.31 3.46,3.46 0 0 1 1.52,-0.76 10.43,10.43 0 0 1 2.37,-0.23 z m -8.11,4.73 h 8.44 c 0.24,0 0.35,-0.12 0.35,-0.36 v -0.87 a 1.28,1.28 0 0 0 -0.27,-0.92 1.41,1.41 0 0 0 -1,-0.27 h -5.23 a 2.76,2.76 0 0 0 -1.82,0.43 1.81,1.81 0 0 0 -0.47,1.42 z"
     id="path50" />
  <path
     class="cls-1"
     d="m 102.06784,0.71940184 c -0.18,-0.47 -0.7,-0.7 -1.57,-0.7 L 53.787835,57.369402 c 4,7 7.36,11.37 10.08,14 a 28.38,28.38 0 0 0 2.45,-3.85 L 101.79784,2.5194018 a 2.23,2.23 0 0 0 0.27,-1.79999996 z"
     id="path52" />
  <path
     class="cls-2"
     d="m 47.057835,55.009402 -29.19,-53.6000002 a 3.17,3.17 0 0 0 -0.92,-1.07999996 2.88,2.88 0 0 0 -1.57,-0.32 h -13.62 c -0.94,0 -1.5,0.23 -1.68,0.7 a 2.23,2.23 0 0 0 0.27,1.77999996 l 35.91,65.0000002 q 2.7,5 5.46,6.6 a 13.59,13.59 0 0 0 7,1.62 h 6.21 a 11.27,11.27 0 0 0 5.75,-1.46 c -5.57,-4.03 -10.43,-12.52 -13.62,-19.24 z"
     id="path54" />
</svg>
