<?xml version="1.0" encoding="UTF-8" standalone="no"?>
<svg
   xmlns:dc="http://purl.org/dc/elements/1.1/"
   xmlns:cc="http://creativecommons.org/ns#"
   xmlns:rdf="http://www.w3.org/1999/02/22-rdf-syntax-ns#"
   xmlns:svg="http://www.w3.org/2000/svg"
   xmlns="http://www.w3.org/2000/svg"
   version="1.1"
   id="Layer_1"
   x="0px"
   y="0px"
   viewBox="-105 284 400.10001 89.800003"
   xml:space="preserve"
   width="400.10001"
   height="89.800003"><metadata
   id="metadata55"><rdf:RDF><cc:Work
       rdf:about=""><dc:format>image/svg+xml</dc:format><dc:type
         rdf:resource="http://purl.org/dc/dcmitype/StillImage" /></cc:Work></rdf:RDF></metadata><defs
   id="defs53" />
<style
   type="text/css"
   id="style2">
	.st0{fill:#04CCF6;}
	.st1{fill:#23292E;}
	.st2{fill:#FFFFFF;}
	.st3{fill:#DD0553;}
</style>
<g
   id="g48"
   transform="translate(0.1,-67.599998)">
	<g
   id="XMLID_2756_">
		<g
   id="XMLID_2765_">
			<g
   id="XMLID_2747_">
				<g
   id="g12">
					<path
   id="XMLID_178_"
   class="st0"
   d="m 18.5,365.7 c 0.8,0 1.5,0 2.2,0 3.5,0.1 4.9,1.1 6,2.3 1.6,1.8 1.7,3.7 1.8,6 0,0.7 0.1,1.3 0.1,2 0,0.3 0.2,5.9 -2.7,8.2 -2,1.5 -5.2,1.6 -7.5,1.6 H 4.5 v 6.7 H -4 v -26.8 z m -14,6.4 v 7.1 h 12 c 1.6,0 2.8,0 3.5,-1.5 0.2,-0.4 0.5,-1 0.5,-2 0,-0.1 0,-2 -0.9,-2.8 C 19,372.2 18,372.1 16.9,372 H 4.5 Z" />
					<path
   id="XMLID_175_"
   class="st0"
   d="m 39.6,384.5 c -0.1,1.5 0,2.5 1.3,3.3 1.5,0.9 3.1,0.6 4.7,0.6 1.2,0 2.5,0.1 3.6,-0.3 0.5,-0.2 0.8,-0.4 1,-0.6 0.2,-0.2 0.3,-0.5 0.5,-1.2 h 6.9 c 0,0.4 0,0.8 -0.1,1.3 -0.1,0.7 -0.3,1.9 -1.6,3.1 -2.2,1.9 -5.1,2 -8.1,2 h -4.1 c -0.7,0 -1.4,0 -2.2,-0.1 -2.2,-0.2 -4.7,-0.6 -6.5,-2 -0.4,-0.3 -1,-0.8 -1.5,-1.9 -0.8,-1.4 -1.1,-2.9 -1.1,-6.1 0,-0.5 0,-0.9 0,-1.4 0.2,-3.3 1.4,-5.1 2.6,-6 2.5,-1.9 7.4,-2 10.2,-2 1.8,0 3.6,0 5.4,0.3 2.7,0.3 3.7,1 4.7,1.9 0.3,0.3 1,1 1.5,2 0.8,1.7 0.7,3.5 0.7,7.1 z m 11.1,-3.8 c -0.1,-1.4 -0.3,-1.9 -0.7,-2.3 -0.6,-0.6 -2.4,-0.8 -4.3,-0.8 -1,0 -2,0 -3,0.1 -0.9,0.1 -1.8,0.3 -2.4,1 -0.6,0.6 -0.6,1.2 -0.5,2 z" />
					<path
   id="XMLID_173_"
   class="st0"
   d="m 70.1,373.5 v 3.4 c 0.1,-0.3 0.3,-0.6 0.5,-0.9 0.3,-0.4 0.8,-1.1 1.9,-1.7 1.6,-0.9 3.4,-1.1 7.1,-1.1 0.9,0 4.2,-0.1 6.8,1.9 0.7,0.5 1.4,1.3 1.7,2 0.5,1 0.7,2 0.9,4.4 v 11.1 H 82 V 383 c 0,-0.1 0,-1.1 -0.1,-1.7 -0.5,-1.9 -2.1,-2.1 -2.7,-2.2 -0.5,-0.1 -3.4,-0.2 -3.8,-0.2 -0.8,0 -1.3,0.1 -1.6,0.1 -0.5,0.1 -2.6,0.6 -3.3,2.3 -0.3,0.7 -0.4,1.4 -0.4,3 v 8.3 h -7 v -19 h 7 z" />
					<path
   id="XMLID_171_"
   class="st0"
   d="m 101.7,373.5 v 3.4 c 0.1,-0.3 0.3,-0.6 0.5,-0.9 0.3,-0.4 0.8,-1.1 1.9,-1.7 1.6,-0.9 3.4,-1.1 7.1,-1.1 0.9,0 4.2,-0.1 6.8,1.9 0.7,0.5 1.4,1.3 1.7,2 0.5,1 0.7,2 0.9,4.4 v 11.1 h -7 V 383 c 0,-0.1 0,-1.1 -0.1,-1.7 -0.5,-1.9 -2.1,-2.1 -2.7,-2.2 -0.5,-0.1 -3.4,-0.2 -3.8,-0.2 -0.8,0 -1.3,0.1 -1.6,0.1 -0.5,0.1 -2.6,0.6 -3.3,2.3 -0.3,0.7 -0.4,1.4 -0.4,3 v 8.3 h -7 v -19 h 7 z" />
					<path
   id="XMLID_169_"
   class="st0"
   d="m 146.1,383.7 c 0,0.6 0,1.1 0.2,1.6 0.3,0.9 1.1,1.2 2.8,1.4 1.7,0.1 3.4,0.1 5.1,0.2 1.8,0 3.6,0 5.5,-0.1 0.3,0 1.4,0.1 2.3,-0.2 0.8,-0.3 1.6,-1.1 1.6,-2 0,-0.2 0,-0.7 -0.4,-1.2 -0.6,-0.9 -1.5,-0.9 -3.4,-1.1 -4,-0.1 -7.9,-0.1 -11.8,-0.3 -1.3,-0.1 -2.5,-0.2 -3.8,-0.3 -0.4,-0.1 -0.8,-0.1 -1.2,-0.2 -0.5,-0.1 -2.4,-0.4 -3.7,-1.8 -0.8,-0.9 -1.6,-2.5 -1.6,-5.3 0,-0.2 0,-3.1 0.7,-4.8 0.3,-0.6 0.6,-1.2 1.1,-1.7 1.6,-1.7 3.6,-1.9 5.8,-2.2 2.9,-0.1 5.9,-0.2 8.8,-0.2 3.2,0 6.5,0.2 9.7,0.3 l 1.5,0.2 c 0.6,0.1 2.4,0.4 3.9,1.7 1.9,1.7 1.9,4.1 1.8,6.5 h -8.1 c -0.5,-2 -0.9,-2.3 -3,-2.5 -2,-0.1 -4,-0.2 -6,-0.2 -1.6,0 -3.1,0.1 -4.6,0.1 -1,0 -2,0.1 -2.6,0.9 -0.1,0.1 -0.5,0.6 -0.5,1.2 0,0.6 0.3,1 0.5,1.2 0.7,0.9 1.6,0.9 2.7,1 l 16.1,0.6 c 2.2,0.2 3,0.5 4,1.2 1.4,1 2.6,2.7 2.6,6.6 0,3 -0.5,4.5 -1.4,5.7 -0.3,0.5 -0.6,0.8 -1.1,1.1 -1.3,0.9 -2.9,1.2 -4.6,1.4 -3.3,0.2 -6.6,0.3 -9.9,0.3 -3.6,0 -7.1,-0.2 -10.8,-0.4 -1.8,-0.3 -3.8,-0.6 -5.1,-2.1 -1.5,-1.6 -1.5,-4.6 -1.5,-6.6 z" />
					<path
   id="XMLID_167_"
   class="st0"
   d="m 208.5,365.7 v 6.2 h -12.1 v 20.6 H 188 v -20.6 h -11.9 v -6.2 z" />
					<path
   id="XMLID_165_"
   class="st0"
   d="m 242.8,365.7 v 5.9 H 221 v 4.5 h 20.6 v 5.6 H 221 v 4.7 h 21.8 v 6.1 h -30 v -26.8 z" />
					<path
   id="XMLID_163_"
   class="st0"
   d="m 262.4,365.7 9.7,17.6 9.8,-17.6 H 295 v 26.8 h -8 v -20.3 l -11.7,20.3 h -6.6 L 257,372.1 v 20.4 h -7.9 v -26.8 z" />
				</g>
			</g>
			<g
   id="XMLID_2746_">
				<polygon
   id="XMLID_2657_"
   class="st1"
   points="295,395 126.9,395 112.8,427.6 295,427.6 " />
				<g
   id="XMLID_2748_">
					<g
   id="g21">
						<path
   id="XMLID_118_"
   class="st2"
   d="m 156.1,400.5 v 4.9 h -9.7 v 16.5 h -6.7 v -16.4 h -9.5 v -5 z" />
						<path
   id="XMLID_115_"
   class="st2"
   d="M 174.3,406.8 V 422 h -5.6 v -15.2 z m 0,-6.3 v 4.2 h -5.6 v -4.2 z" />
						<path
   id="XMLID_113_"
   class="st2"
   d="m 193.9,409.1 c 0.7,-0.9 1.3,-1.7 2.3,-2.1 1.4,-0.5 4.2,-0.5 4.2,-0.5 4.3,0 5.4,1.3 6.8,2.9 0.5,-0.8 0.7,-1.1 1,-1.5 1,-0.9 3,-1.5 6,-1.5 0.4,0 1.6,0 2.7,0.3 1.8,0.4 3.5,1.5 4.3,3.2 0.4,0.9 0.5,1.7 0.7,3.8 v 8.2 h -5.6 v -7.6 c 0,-0.2 0,-1.4 -0.3,-2 -0.4,-0.9 -1.5,-1.3 -3.5,-1.3 -1.1,0 -2.4,0 -3.3,0.7 -0.9,0.7 -1,1.7 -1.1,2.9 v 7.4 h -5.7 v -8.1 c -0.1,-1.5 -0.3,-2 -0.8,-2.4 -0.7,-0.5 -2.3,-0.5 -3.1,-0.5 -2.4,0 -3.6,0.5 -4.1,1.5 -0.3,0.5 -0.4,1.1 -0.4,1.7 v 7.8 h -5.6 v -15.2 h 5.6 v 2.3 z" />
						<path
   id="XMLID_110_"
   class="st2"
   d="m 241.5,415.5 c -0.1,1.2 0,2 1,2.7 1.2,0.7 2.5,0.5 3.7,0.5 0.9,0 2,0.1 2.9,-0.2 0.4,-0.1 0.7,-0.3 0.8,-0.5 0.2,-0.2 0.3,-0.4 0.4,-1 h 5.5 c 0,0.3 0,0.7 -0.1,1 -0.1,0.6 -0.2,1.5 -1.3,2.5 -1.7,1.5 -4.1,1.6 -6.4,1.6 h -3.3 c -0.6,0 -1.1,0 -1.7,-0.1 -1.7,-0.1 -3.8,-0.5 -5.2,-1.6 -0.3,-0.2 -0.8,-0.7 -1.2,-1.5 -0.6,-1.2 -0.8,-2.3 -0.8,-4.9 0,-0.4 0,-0.8 0,-1.2 0.1,-2.7 1.1,-4.1 2.1,-4.8 2,-1.5 5.9,-1.6 8.1,-1.6 1.4,0 2.9,0 4.3,0.2 2.1,0.3 3,0.8 3.8,1.5 0.2,0.2 0.8,0.8 1.2,1.6 0.6,1.3 0.6,2.8 0.5,5.6 h -14.3 z m 8.9,-3 c -0.1,-1.1 -0.2,-1.5 -0.6,-1.8 -0.5,-0.5 -1.9,-0.6 -3.5,-0.6 -0.8,0 -1.6,0 -2.4,0.1 -0.8,0.1 -1.4,0.2 -1.9,0.8 -0.5,0.5 -0.5,0.9 -0.4,1.6 z" />
						<path
   id="XMLID_108_"
   class="st2"
   d="m 282.3,418.7 c 0.5,0 0.8,0 1.3,-0.2 0.5,-0.2 1,-0.7 1,-1.1 0,-0.2 -0.2,-0.7 -0.7,-0.9 -0.8,-0.3 -3.6,-0.2 -4.4,-0.3 -1.3,0 -2.6,-0.1 -4,-0.1 -1.5,0 -3.1,-0.2 -4.3,-1.1 -0.5,-0.3 -0.9,-0.8 -1.2,-1.3 -0.2,-0.4 -0.4,-1 -0.4,-2 0,-0.2 0,-1 0.2,-1.7 0.2,-0.9 0.6,-2.3 2.8,-3 1.1,-0.3 2.1,-0.4 4.4,-0.4 0.9,0 1.9,-0.1 2.8,-0.1 2.8,0 4.5,0.1 5.8,0.3 1.8,0.3 2.6,0.8 3.1,1.3 0.9,0.9 1,1.9 1,3.1 h -5.8 c -0.2,-0.5 -0.3,-0.8 -0.8,-0.9 -0.4,-0.1 -1.1,-0.2 -2,-0.2 -0.5,0 -1,-0.1 -1.5,-0.1 -0.6,0 -1.1,0 -1.7,0 -0.7,0 -0.9,0 -1.2,0.1 -0.5,0.2 -1,0.7 -1,1.1 0,0.5 0.8,0.8 0.9,0.8 0.7,0.2 2.9,0.2 5,0.2 0.9,0 1.8,0 2.7,0.1 1.7,0 3.3,0 4.7,1 0.5,0.4 0.9,0.8 1.2,1.4 0.2,0.4 0.4,1 0.4,2.1 0,0.4 0,2.1 -0.7,3.2 -0.6,1 -2,1.9 -4.6,2.1 -1.2,0.1 -2.3,0.1 -3.5,0.1 -1.6,0 -3.2,0 -4.8,-0.1 -0.4,0 -2.2,0 -3.7,-0.3 -1.4,-0.3 -2.6,-0.8 -3.3,-2.2 -0.5,-0.9 -0.5,-1.7 -0.5,-2.6 h 5.9 c 0,0.2 0.1,0.5 0.2,0.7 0.3,0.6 1.1,0.8 1.2,0.8 0.4,0.1 2.1,0.2 3.6,0.2 z" />
					</g>
				</g>
			</g>
		</g>
	</g>
	<g
   id="XMLID_61_">
		<circle
   id="XMLID_81_"
   class="st2"
   cx="-60.099998"
   cy="396.5"
   r="44.900002" />
		<path
   id="XMLID_80_"
   class="st3"
   d="m -68.8,352.5 c 0,0 0,0 0,0 0,0 0,0 0,0 0,0 0,0 0,0 z" />
		<g
   id="XMLID_70_">
			<path
   id="XMLID_79_"
   class="st1"
   d="m -50.2,369.4 c 4.5,0 8.1,3.6 8.1,8.1 0,0.6 -0.1,1.2 -0.2,1.8 4.7,2.4 9,5.1 12.8,8.2 0.6,-0.3 1.3,-0.5 2.1,-0.5 0.8,0 1.5,0.2 2.2,0.5 2.3,-2.8 4.4,-5.9 6.2,-9 -6.9,-15.8 -22.7,-26.8 -41.1,-26.8 -1.3,0 -2.7,0.1 -4,0.2 -0.9,0.7 -1.8,1.4 -2.7,2.2 5.5,4.3 10.3,9.7 14.2,15.7 0.8,-0.2 1.6,-0.4 2.4,-0.4 z" />
			<path
   id="XMLID_78_"
   class="st1"
   d="m -73.9,369.5 c 5.9,0.8 11.5,2.1 16.8,3.8 0.6,-1 1.4,-1.8 2.3,-2.4 -3.8,-5.9 -8.5,-11 -13.8,-15.2 -2.8,2.7 -5.4,5.7 -7.7,8.9 1.4,1.2 2.4,2.9 2.4,4.9 z" />
			<path
   id="XMLID_77_"
   class="st1"
   d="m -95.2,368.5 c 1.7,-0.1 3.4,-0.1 5.1,-0.1 1.3,0 2.6,0 3.9,0.1 0.6,-2.9 3.1,-5 6.1,-5 0.5,0 1,0.1 1.4,0.2 2.4,-3.4 5.1,-6.5 8,-9.4 -0.5,-0.3 -0.9,-0.6 -1.4,-1 -9.2,2.5 -17.3,7.9 -23.1,15.2 z" />
			<path
   id="XMLID_76_"
   class="st1"
   d="m -84.6,373.8 c -0.7,-0.8 -1.3,-1.8 -1.5,-2.9 -1.3,0 -2.6,-0.1 -3.9,-0.1 -2.4,0 -4.7,0.1 -7.1,0.2 -2.9,4.2 -5.1,9 -6.4,14.1 2.8,5.2 7,10.1 12.4,14.6 0.5,-9.2 2.8,-18 6.5,-25.9 z" />
			<path
   id="XMLID_75_"
   class="st1"
   d="m -48.5,403.8 c 0,-2.7 1.7,-5 4.1,-5.9 -0.7,-4.4 -1.8,-8.6 -3.3,-12.7 -0.8,0.3 -1.6,0.4 -2.5,0.4 -4.5,0 -8.1,-3.6 -8.1,-8.1 0,-0.7 0.1,-1.3 0.2,-1.9 -5.2,-1.6 -10.6,-2.8 -16.3,-3.6 -0.9,2.2 -3.1,3.8 -5.7,3.8 -0.9,0 -1.7,-0.2 -2.4,-0.5 -3.7,8 -5.9,16.9 -6.2,26.4 5.7,4.3 12.6,8 20.3,10.9 7.2,-1.4 14,-3.8 20.3,-6.9 -0.3,-0.6 -0.4,-1.3 -0.4,-1.9 z" />
			<path
   id="XMLID_74_"
   class="st1"
   d="m -32.4,391.9 c 0,-1 0.3,-2 0.9,-2.8 -3.6,-2.8 -7.5,-5.3 -11.8,-7.5 -0.6,0.9 -1.3,1.8 -2.2,2.4 1.6,4.3 2.7,8.8 3.5,13.4 1.7,0 3.2,0.7 4.3,1.8 2.1,-1.5 4.1,-3.2 6,-4.9 -0.4,-0.7 -0.7,-1.5 -0.7,-2.4 z" />
			<path
   id="XMLID_73_"
   class="st1"
   d="m -17.9,381.4 c -1.6,2.7 -3.5,5.3 -5.5,7.7 0.5,0.8 0.8,1.7 0.8,2.7 0,0.6 -0.1,1.1 -0.3,1.6 2.8,2.9 5.1,5.9 7.1,9.1 0.3,-2 0.4,-4 0.4,-6.1 0.1,-5.2 -0.8,-10.3 -2.5,-15 z" />
			<path
   id="XMLID_72_"
   class="st1"
   d="m -24.3,395.6 c -0.9,0.7 -2,1.2 -3.2,1.2 -0.9,0 -1.8,-0.3 -2.5,-0.7 -2,1.9 -4.1,3.6 -6.4,5.2 0.3,0.7 0.5,1.6 0.5,2.4 0,3.1 -2.2,5.6 -5.1,6.2 0,0 0,0 0,0.1 0,1.5 -0.1,3 -0.1,4.5 1.8,0.4 3.2,1.9 3.6,3.8 6.2,0 12.1,-0.6 17.5,-1.9 1.6,-3.2 2.8,-6.6 3.6,-10.1 -2,-3.8 -4.7,-7.4 -7.9,-10.7 z" />
			<path
   id="XMLID_71_"
   class="st1"
   d="m -43.6,414.6 c 0.1,-1.5 0.2,-3 0.2,-4.6 0,0 0,0 0,-0.1 -1.4,-0.3 -2.7,-1 -3.6,-2.1 -5.3,2.7 -11,4.8 -16.9,6.3 2.1,0.7 4.3,1.3 6.5,1.8 3.6,0.9 7.2,1.5 10.8,1.9 0.4,-1.6 1.5,-2.7 3,-3.2 z" />
		</g>
		<g
   id="XMLID_62_">
			<path
   id="XMLID_69_"
   class="st0"
   d="m -24.9,424.2 c 1.2,-1.6 2.4,-3.2 3.4,-4.9 -3.5,0.7 -7.1,1.2 -10.9,1.4 2.6,0.9 5.1,2.1 7.5,3.5 z" />
			<path
   id="XMLID_68_"
   class="st0"
   d="m -38.2,421.7 c -0.8,1.3 -2.3,2.2 -4,2.2 0,0 0,0 0,0 -1,5.4 -2.6,10.6 -4.6,15.5 7.9,-2.5 14.9,-7.1 20.3,-13.2 -3.3,-1.9 -7,-3.4 -10.9,-4.3 -0.3,-0.1 -0.5,-0.2 -0.8,-0.2 z" />
			<path
   id="XMLID_67_"
   class="st0"
   d="m -46.6,420.7 c -0.1,0 -0.3,0 -0.4,0 -7.2,0 -14.3,1.9 -20.5,5.6 -4.7,2.8 -8.7,6.5 -11.7,10.7 5.8,2.7 12.3,4.3 19.1,4.3 3.5,0 7,-0.4 10.3,-1.2 2.4,-5.3 4.2,-11 5.3,-17 -1,-0.5 -1.7,-1.4 -2.1,-2.4 z" />
			<path
   id="XMLID_66_"
   class="st0"
   d="m -68.7,415.1 c -5,0.9 -10.1,1.4 -15.4,1.4 -0.3,0 -0.7,0 -1,0 -0.3,1.2 -1.1,2.1 -2.1,2.7 1.3,5.8 3.3,11.2 5.9,16.3 3.3,-4.5 7.4,-8.4 12.4,-11.4 4.3,-2.6 8.9,-4.3 13.7,-5.2 -1,-0.2 -1.9,-0.4 -2.9,-0.6 -3.6,-0.8 -7.2,-1.9 -10.6,-3.2 z" />
			<path
   id="XMLID_65_"
   class="st0"
   d="m -94,415.9 c -2.4,-0.3 -4.8,-0.7 -7.2,-1.2 3.5,7.9 9.2,14.5 16.3,19.2 -2,-4.4 -3.6,-9.2 -4.7,-14.1 -2.2,0 -4.1,-1.7 -4.4,-3.9 z" />
			<path
   id="XMLID_64_"
   class="st0"
   d="m -88.5,410.8 c 1.6,0.4 2.9,1.6 3.4,3.2 0.3,0 0.7,0 1,0 3.7,0 7.2,-0.2 10.8,-0.7 -5.7,-2.4 -10.9,-5.4 -15.5,-8.6 0,2.1 0.2,4.1 0.3,6.1 z" />
			<path
   id="XMLID_63_"
   class="st0"
   d="m -91,411 c -0.2,-2.3 -0.3,-4.5 -0.3,-6.9 0,-0.4 0,-0.9 0,-1.3 -5.4,-4.3 -9.9,-9 -13.1,-14.1 -0.4,2.5 -0.7,5.1 -0.7,7.8 0,5.4 1,10.6 2.7,15.5 2.8,0.6 5.7,1.2 8.6,1.5 0.7,-1.2 1.6,-2.1 2.8,-2.5 z" />
		</g>
	</g>
</g>
</svg>
