<?xml version="1.0" encoding="UTF-8" standalone="no"?>
<!-- Creator: CorelDRAW 2017 -->

<svg
   xmlns:dc="http://purl.org/dc/elements/1.1/"
   xmlns:cc="http://creativecommons.org/ns#"
   xmlns:rdf="http://www.w3.org/1999/02/22-rdf-syntax-ns#"
   xmlns:svg="http://www.w3.org/2000/svg"
   xmlns="http://www.w3.org/2000/svg"
   xmlns:sodipodi="http://sodipodi.sourceforge.net/DTD/sodipodi-0.dtd"
   xmlns:inkscape="http://www.inkscape.org/namespaces/inkscape"
   xml:space="preserve"
   width="399.01108"
   height="108"
   version="1.1"
   style="clip-rule:evenodd;fill-rule:evenodd;image-rendering:optimizeQuality;shape-rendering:geometricPrecision;text-rendering:geometricPrecision"
   viewBox="0 0 179.76447 48.78"
   id="svg82"
   sodipodi:docname="worldcybercurrencynewscom-logo-b25-SVG_cropped.svg"
   inkscape:version="0.92.3 (2405546, 2018-03-11)"><metadata
   id="metadata86"><rdf:RDF><cc:Work
       rdf:about=""><dc:format>image/svg+xml</dc:format><dc:type
         rdf:resource="http://purl.org/dc/dcmitype/StillImage" /></cc:Work></rdf:RDF></metadata><sodipodi:namedview
   pagecolor="#ffffff"
   bordercolor="#666666"
   borderopacity="1"
   objecttolerance="10"
   gridtolerance="10"
   guidetolerance="10"
   inkscape:pageopacity="0"
   inkscape:pageshadow="2"
   inkscape:window-width="640"
   inkscape:window-height="480"
   id="namedview84"
   showgrid="false"
   inkscape:zoom="0.835"
   inkscape:cx="199.50554"
   inkscape:cy="53.98893"
   inkscape:window-x="0"
   inkscape:window-y="0"
   inkscape:window-maximized="0"
   inkscape:current-layer="svg82" />
 <defs
   id="defs4">
  <style
   type="text/css"
   id="style2">
   <![CDATA[
    .str0 {stroke:#2B2A29;stroke-width:0.17;stroke-miterlimit:22.9256}
    .str1 {stroke:#EB9811;stroke-width:0.17;stroke-miterlimit:22.9256}
    .fil1 {fill:none;fill-rule:nonzero}
    .fil3 {fill:#EB9811}
    .fil0 {fill:#2B2A29;fill-rule:nonzero}
    .fil2 {fill:#EB9811;fill-rule:nonzero}
   ]]>
  </style>
 </defs>
 <g
   id="Layer_x0020_1"
   transform="translate(-0.22333333,0.005)">
  <metadata
   id="CorelCorpID_0Corel-Layer" />
  <g
   id="_2756081533888">
   <path
   class="fil0"
   d="M 57.2,12.91 54.57,3.53 c -0.2,-0.72 -0.4,-1.17 -0.6,-1.38 -0.2,-0.2 -0.48,-0.3 -0.85,-0.3 h -0.3 V 0.44 h 5.31 v 1.41 h -0.59 c -0.26,0 -0.46,0.05 -0.58,0.14 -0.12,0.09 -0.18,0.24 -0.18,0.44 0,0.08 0,0.15 0.01,0.21 0.01,0.06 0.02,0.12 0.04,0.18 l 1.95,7.04 2.24,-6.42 C 60.91,2.87 60.75,2.46 60.53,2.22 60.31,1.97 60,1.85 59.6,1.85 H 59.14 V 0.44 h 5.46 v 1.41 h -0.69 c -0.32,0 -0.54,0.04 -0.67,0.11 -0.13,0.08 -0.2,0.21 -0.2,0.4 0,0.08 0.03,0.22 0.08,0.42 0.01,0.04 0.02,0.07 0.03,0.09 l 2.11,6.81 1.85,-6.34 C 67.16,3.16 67.2,2.99 67.24,2.83 67.27,2.67 67.28,2.53 67.28,2.41 67.28,2.22 67.2,2.08 67.03,1.99 66.86,1.9 66.59,1.85 66.24,1.85 H 65.63 V 0.44 h 5.11 v 1.41 h -0.41 c -0.32,0 -0.57,0.1 -0.77,0.29 -0.2,0.2 -0.36,0.53 -0.5,0.98 l -2.84,9.79 h -2.45 l -1.96,-6.67 -2.24,6.67 z"
   id="path7"
   inkscape:connector-curvature="0"
   style="fill:#2b2a29;fill-rule:nonzero" />
   <path
   id="1"
   class="fil0"
   d="m 73.91,6.66 c 0,1.61 0.35,2.87 1.05,3.77 0.69,0.9 1.66,1.35 2.89,1.35 1.24,0 2.2,-0.45 2.89,-1.35 0.69,-0.89 1.04,-2.15 1.04,-3.77 0,-1.61 -0.35,-2.86 -1.04,-3.75 -0.68,-0.89 -1.65,-1.34 -2.89,-1.34 -1.23,0 -2.2,0.45 -2.89,1.34 -0.7,0.89 -1.05,2.14 -1.05,3.75 z m -2.93,0 c 0,-1.97 0.63,-3.56 1.89,-4.77 1.26,-1.2 2.92,-1.81 4.98,-1.81 2.07,0 3.72,0.61 4.98,1.81 1.26,1.21 1.88,2.8 1.88,4.77 0,1.98 -0.62,3.58 -1.89,4.79 -1.25,1.21 -2.91,1.81 -4.97,1.81 -2.06,0 -3.72,-0.6 -4.98,-1.82 -1.26,-1.21 -1.89,-2.8 -1.89,-4.78 z"
   inkscape:connector-curvature="0"
   style="fill:#2b2a29;fill-rule:nonzero" />
   <path
   id="2"
   class="fil0"
   d="m 90.38,5.6 h 2.2 c 0.89,0 1.53,-0.14 1.95,-0.44 0.41,-0.3 0.61,-0.78 0.61,-1.43 0,-0.68 -0.19,-1.16 -0.59,-1.44 -0.39,-0.3 -1.07,-0.44 -2.03,-0.44 h -2.14 z m 0,4.74 c 0,0.51 0.07,0.82 0.21,0.96 0.13,0.13 0.48,0.2 1.04,0.2 h 0.87 v 1.41 H 85.81 V 11.5 h 0.73 c 0.55,0 0.89,-0.07 1.02,-0.2 0.14,-0.13 0.2,-0.45 0.2,-0.96 V 3 C 87.76,2.49 87.7,2.17 87.56,2.04 87.43,1.91 87.09,1.85 86.54,1.85 H 85.81 V 0.44 h 7.45 c 1.56,0 2.72,0.24 3.48,0.73 0.76,0.49 1.13,1.25 1.13,2.26 0,0.9 -0.3,1.61 -0.9,2.15 -0.6,0.54 -1.49,0.87 -2.67,1.01 0.9,0.14 1.52,0.39 1.87,0.76 0.36,0.37 0.56,1.02 0.63,1.94 l 0.08,1.12 c 0.03,0.43 0.08,0.71 0.16,0.85 0.08,0.13 0.21,0.2 0.39,0.2 0.36,0 0.55,-0.68 0.58,-2.05 0,-0.02 0,-0.04 0,-0.05 h 1.18 c 0.01,0.08 0.02,0.16 0.02,0.25 0,0.09 0,0.21 0,0.38 0,1.14 -0.2,1.97 -0.62,2.5 -0.41,0.53 -1.07,0.79 -1.96,0.79 -0.74,0 -1.32,-0.2 -1.74,-0.61 -0.41,-0.4 -0.64,-0.96 -0.66,-1.68 L 94.18,9.52 C 94.14,8.55 93.92,7.89 93.53,7.54 93.13,7.19 92.38,7.02 91.28,7.02 h -0.9 z"
   inkscape:connector-curvature="0"
   style="fill:#2b2a29;fill-rule:nonzero" />
   <path
   id="3"
   class="fil0"
   d="m 100.18,0.44 h 6.69 V 1.85 H 106 c -0.56,0 -0.91,0.06 -1.04,0.2 -0.14,0.13 -0.21,0.45 -0.21,0.95 v 8.5 h 2.33 c 0.83,0 1.45,-0.07 1.86,-0.22 0.41,-0.14 0.71,-0.38 0.89,-0.71 0.18,-0.32 0.31,-0.71 0.39,-1.17 0.08,-0.46 0.13,-1.01 0.13,-1.65 V 7.52 h 1.43 v 5.39 h -11.6 V 11.5 h 0.72 c 0.56,0 0.9,-0.07 1.03,-0.2 0.14,-0.13 0.2,-0.45 0.2,-0.96 V 3 c 0,-0.51 -0.06,-0.83 -0.2,-0.96 -0.13,-0.13 -0.47,-0.19 -1.03,-0.19 h -0.72 z"
   inkscape:connector-curvature="0"
   style="fill:#2b2a29;fill-rule:nonzero" />
   <path
   id="4"
   class="fil0"
   d="M 112.71,12.91 V 11.5 h 0.72 c 0.55,0 0.9,-0.07 1.03,-0.2 0.13,-0.13 0.2,-0.45 0.2,-0.96 V 3 c 0,-0.51 -0.07,-0.83 -0.2,-0.96 -0.13,-0.13 -0.48,-0.19 -1.03,-0.19 h -0.72 V 0.44 h 7.07 c 2.18,0 3.83,0.52 4.95,1.58 1.12,1.05 1.67,2.6 1.67,4.64 0,2.05 -0.56,3.6 -1.67,4.66 -1.13,1.06 -2.77,1.59 -4.95,1.59 z m 4.57,-1.41 h 1.63 c 0.98,0 1.7,-0.08 2.19,-0.23 0.48,-0.15 0.9,-0.41 1.25,-0.77 0.35,-0.36 0.63,-0.88 0.83,-1.56 0.2,-0.68 0.31,-1.44 0.31,-2.27 0,-0.84 -0.11,-1.59 -0.31,-2.26 C 122.98,3.74 122.7,3.22 122.35,2.86 122,2.49 121.58,2.24 121.1,2.08 120.61,1.93 119.89,1.85 118.91,1.85 h -1.63 z"
   inkscape:connector-curvature="0"
   style="fill:#2b2a29;fill-rule:nonzero" />
   <path
   id="5"
   class="fil1 str0"
   d="M 57.2,12.91 54.57,3.53 c -0.2,-0.72 -0.4,-1.17 -0.6,-1.38 -0.2,-0.2 -0.48,-0.3 -0.85,-0.3 h -0.3 V 0.44 h 5.31 v 1.41 h -0.59 c -0.26,0 -0.46,0.05 -0.58,0.14 -0.12,0.09 -0.18,0.24 -0.18,0.44 0,0.08 0,0.15 0.01,0.21 0.01,0.06 0.02,0.12 0.04,0.18 l 1.95,7.04 2.24,-6.42 C 60.91,2.87 60.75,2.46 60.53,2.22 60.31,1.97 60,1.85 59.6,1.85 H 59.14 V 0.44 h 5.46 v 1.41 h -0.69 c -0.32,0 -0.54,0.04 -0.67,0.11 -0.13,0.08 -0.2,0.21 -0.2,0.4 0,0.08 0.03,0.22 0.08,0.42 0.01,0.04 0.02,0.07 0.03,0.09 l 2.11,6.81 1.85,-6.34 C 67.16,3.16 67.2,2.99 67.24,2.83 67.27,2.67 67.28,2.53 67.28,2.41 67.28,2.22 67.2,2.08 67.03,1.99 66.86,1.9 66.59,1.85 66.24,1.85 H 65.63 V 0.44 h 5.11 v 1.41 h -0.41 c -0.32,0 -0.57,0.1 -0.77,0.29 -0.2,0.2 -0.36,0.53 -0.5,0.98 l -2.84,9.79 h -2.45 l -1.96,-6.67 -2.24,6.67 z"
   inkscape:connector-curvature="0"
   style="fill:none;fill-rule:nonzero;stroke:#2b2a29;stroke-width:0.17;stroke-miterlimit:22.92560005" />
   <path
   id="6"
   class="fil1 str0"
   d="m 73.91,6.66 c 0,1.61 0.35,2.87 1.05,3.77 0.69,0.9 1.66,1.35 2.89,1.35 1.24,0 2.2,-0.45 2.89,-1.35 0.69,-0.89 1.04,-2.15 1.04,-3.77 0,-1.61 -0.35,-2.86 -1.04,-3.75 -0.68,-0.89 -1.65,-1.34 -2.89,-1.34 -1.23,0 -2.2,0.45 -2.89,1.34 -0.7,0.89 -1.05,2.14 -1.05,3.75 z m -2.93,0 c 0,-1.97 0.63,-3.56 1.89,-4.77 1.26,-1.2 2.92,-1.81 4.98,-1.81 2.07,0 3.72,0.61 4.98,1.81 1.26,1.21 1.88,2.8 1.88,4.77 0,1.98 -0.62,3.58 -1.89,4.79 -1.25,1.21 -2.91,1.81 -4.97,1.81 -2.06,0 -3.72,-0.6 -4.98,-1.82 -1.26,-1.21 -1.89,-2.8 -1.89,-4.78 z"
   inkscape:connector-curvature="0"
   style="fill:none;fill-rule:nonzero;stroke:#2b2a29;stroke-width:0.17;stroke-miterlimit:22.92560005" />
   <path
   id="7"
   class="fil1 str0"
   d="m 90.38,5.6 h 2.2 c 0.89,0 1.53,-0.14 1.95,-0.44 0.41,-0.3 0.61,-0.78 0.61,-1.43 0,-0.68 -0.19,-1.16 -0.59,-1.44 -0.39,-0.3 -1.07,-0.44 -2.03,-0.44 h -2.14 z m 0,4.74 c 0,0.51 0.07,0.82 0.21,0.96 0.13,0.13 0.48,0.2 1.04,0.2 h 0.87 v 1.41 H 85.81 V 11.5 h 0.73 c 0.55,0 0.89,-0.07 1.02,-0.2 0.14,-0.13 0.2,-0.45 0.2,-0.96 V 3 C 87.76,2.49 87.7,2.17 87.56,2.04 87.43,1.91 87.09,1.85 86.54,1.85 H 85.81 V 0.44 h 7.45 c 1.56,0 2.72,0.24 3.48,0.73 0.76,0.49 1.13,1.25 1.13,2.26 0,0.9 -0.3,1.61 -0.9,2.15 -0.6,0.54 -1.49,0.87 -2.67,1.01 0.9,0.14 1.52,0.39 1.87,0.76 0.36,0.37 0.56,1.02 0.63,1.94 l 0.08,1.12 c 0.03,0.43 0.08,0.71 0.16,0.85 0.08,0.13 0.21,0.2 0.39,0.2 0.36,0 0.55,-0.68 0.58,-2.05 0,-0.02 0,-0.04 0,-0.05 h 1.18 c 0.01,0.08 0.02,0.16 0.02,0.25 0,0.09 0,0.21 0,0.38 0,1.14 -0.2,1.97 -0.62,2.5 -0.41,0.53 -1.07,0.79 -1.96,0.79 -0.74,0 -1.32,-0.2 -1.74,-0.61 -0.41,-0.4 -0.64,-0.96 -0.66,-1.68 L 94.18,9.52 C 94.14,8.55 93.92,7.89 93.53,7.54 93.13,7.19 92.38,7.02 91.28,7.02 h -0.9 z"
   inkscape:connector-curvature="0"
   style="fill:none;fill-rule:nonzero;stroke:#2b2a29;stroke-width:0.17;stroke-miterlimit:22.92560005" />
   <path
   id="8"
   class="fil1 str0"
   d="m 100.18,0.44 h 6.69 V 1.85 H 106 c -0.56,0 -0.91,0.06 -1.04,0.2 -0.14,0.13 -0.21,0.45 -0.21,0.95 v 8.5 h 2.33 c 0.83,0 1.45,-0.07 1.86,-0.22 0.41,-0.14 0.71,-0.38 0.89,-0.71 0.18,-0.32 0.31,-0.71 0.39,-1.17 0.08,-0.46 0.13,-1.01 0.13,-1.65 V 7.52 h 1.43 v 5.39 h -11.6 V 11.5 h 0.72 c 0.56,0 0.9,-0.07 1.03,-0.2 0.14,-0.13 0.2,-0.45 0.2,-0.96 V 3 c 0,-0.51 -0.06,-0.83 -0.2,-0.96 -0.13,-0.13 -0.47,-0.19 -1.03,-0.19 h -0.72 z"
   inkscape:connector-curvature="0"
   style="fill:none;fill-rule:nonzero;stroke:#2b2a29;stroke-width:0.17;stroke-miterlimit:22.92560005" />
   <path
   id="9"
   class="fil1 str0"
   d="M 112.71,12.91 V 11.5 h 0.72 c 0.55,0 0.9,-0.07 1.03,-0.2 0.13,-0.13 0.2,-0.45 0.2,-0.96 V 3 c 0,-0.51 -0.07,-0.83 -0.2,-0.96 -0.13,-0.13 -0.48,-0.19 -1.03,-0.19 h -0.72 V 0.44 h 7.07 c 2.18,0 3.83,0.52 4.95,1.58 1.12,1.05 1.67,2.6 1.67,4.64 0,2.05 -0.56,3.6 -1.67,4.66 -1.13,1.06 -2.77,1.59 -4.95,1.59 z m 4.57,-1.41 h 1.63 c 0.98,0 1.7,-0.08 2.19,-0.23 0.48,-0.15 0.9,-0.41 1.25,-0.77 0.35,-0.36 0.63,-0.88 0.83,-1.56 0.2,-0.68 0.31,-1.44 0.31,-2.27 0,-0.84 -0.11,-1.59 -0.31,-2.26 C 122.98,3.74 122.7,3.22 122.35,2.86 122,2.49 121.58,2.24 121.1,2.08 120.61,1.93 119.89,1.85 118.91,1.85 h -1.63 z"
   inkscape:connector-curvature="0"
   style="fill:none;fill-rule:nonzero;stroke:#2b2a29;stroke-width:0.17;stroke-miterlimit:22.92560005" />
   <path
   class="fil2"
   d="m 10.07,25.78 h 1.59 c -0.12,1.66 -0.63,2.94 -1.53,3.85 -0.89,0.9 -2.11,1.36 -3.64,1.36 -0.91,0 -1.74,-0.15 -2.48,-0.43 C 3.27,30.27 2.61,29.84 2.04,29.25 1.39,28.62 0.91,27.88 0.58,27.05 0.25,26.22 0.08,25.33 0.08,24.37 c 0,-0.96 0.16,-1.84 0.48,-2.65 0.33,-0.8 0.81,-1.52 1.46,-2.17 0.58,-0.59 1.24,-1.03 1.97,-1.33 0.72,-0.3 1.5,-0.45 2.34,-0.45 0.66,0 1.29,0.11 1.88,0.31 0.59,0.21 1.17,0.54 1.74,0.97 l 0.37,-1.11 h 1.34 v 5.11 H 10.23 C 10.09,21.86 9.71,20.93 9.09,20.28 8.46,19.62 7.66,19.29 6.69,19.29 c -1.15,0 -2.04,0.46 -2.69,1.37 -0.65,0.92 -0.98,2.18 -0.98,3.8 0,1.54 0.32,2.72 0.97,3.56 0.65,0.84 1.56,1.26 2.73,1.26 0.91,0 1.65,-0.3 2.22,-0.9 0.57,-0.59 0.94,-1.46 1.13,-2.6 z"
   id="path18"
   inkscape:connector-curvature="0"
   style="fill:#eb9811;fill-rule:nonzero" />
   <path
   id="path20"
   class="fil2"
   d="m 20.7,28.05 c 0,0.5 0.07,0.82 0.2,0.95 0.14,0.14 0.49,0.2 1.04,0.2 h 1.08 v 1.41 H 15.77 V 29.2 h 1.08 c 0.55,0 0.9,-0.06 1.03,-0.19 0.13,-0.13 0.2,-0.45 0.2,-0.96 V 25.4 l -3.09,-4.56 c -0.33,-0.48 -0.62,-0.82 -0.89,-1 -0.26,-0.19 -0.57,-0.29 -0.91,-0.29 h -0.62 v -1.41 h 6.6 v 1.41 h -0.9 c -0.29,0 -0.49,0.04 -0.62,0.1 -0.13,0.06 -0.2,0.16 -0.2,0.3 0,0.08 0.02,0.17 0.06,0.27 0.05,0.1 0.11,0.21 0.19,0.34 l 2.11,2.92 2.22,-3.03 c 0.09,-0.12 0.16,-0.23 0.19,-0.31 0.04,-0.08 0.06,-0.16 0.06,-0.25 0,-0.11 -0.06,-0.19 -0.18,-0.25 -0.11,-0.06 -0.28,-0.09 -0.49,-0.09 h -1.1 v -1.41 h 5.78 v 1.41 h -0.42 c -0.33,0 -0.6,0.06 -0.8,0.17 -0.2,0.11 -0.42,0.33 -0.65,0.66 L 20.7,25.4 Z"
   inkscape:connector-curvature="0"
   style="fill:#eb9811;fill-rule:nonzero" />
   <path
   id="path22"
   class="fil2"
   d="m 31.38,23.44 h 1.79 c 1.01,0 1.74,-0.15 2.17,-0.45 0.44,-0.3 0.65,-0.79 0.65,-1.48 0,-0.69 -0.2,-1.19 -0.6,-1.49 -0.39,-0.3 -1.07,-0.45 -2.02,-0.45 h -1.99 z m 0,5.78 h 2.06 c 1.07,0 1.83,-0.17 2.28,-0.51 0.46,-0.34 0.68,-0.9 0.68,-1.68 0,-0.78 -0.23,-1.34 -0.7,-1.66 -0.47,-0.33 -1.28,-0.5 -2.42,-0.5 h -1.9 z m -4.57,1.39 V 29.2 h 0.72 c 0.56,0 0.9,-0.06 1.03,-0.19 0.14,-0.13 0.2,-0.45 0.2,-0.96 v -7.34 c 0,-0.51 -0.06,-0.83 -0.2,-0.96 -0.13,-0.13 -0.47,-0.2 -1.03,-0.2 h -0.72 v -1.41 h 7.2 c 1.55,0 2.71,0.26 3.47,0.76 0.76,0.52 1.13,1.3 1.13,2.35 0,0.72 -0.2,1.31 -0.61,1.76 -0.41,0.44 -1.04,0.77 -1.9,0.99 1.01,0.21 1.77,0.58 2.27,1.11 0.49,0.53 0.75,1.24 0.75,2.12 0,1.22 -0.42,2.08 -1.25,2.6 -0.83,0.52 -2.23,0.78 -4.22,0.78 z"
   inkscape:connector-curvature="0"
   style="fill:#eb9811;fill-rule:nonzero" />
   <path
   id="path24"
   class="fil2"
   d="M 40.38,30.61 V 29.2 h 0.72 c 0.56,0 0.9,-0.06 1.03,-0.19 0.14,-0.13 0.2,-0.46 0.2,-0.97 V 20.7 c 0,-0.5 -0.06,-0.82 -0.2,-0.95 -0.13,-0.13 -0.47,-0.2 -1.03,-0.2 h -0.72 v -1.41 h 12.27 v 4.97 h -1.42 c -0.03,-1.42 -0.26,-2.37 -0.69,-2.85 -0.43,-0.47 -1.29,-0.71 -2.6,-0.71 h -2.99 v 3.83 h 0.71 c 0.78,0 1.29,-0.13 1.53,-0.4 0.25,-0.27 0.4,-0.89 0.46,-1.86 l 1.41,-0.01 v 6.25 l -1.41,-0.01 c -0.06,-1.07 -0.2,-1.76 -0.45,-2.07 -0.24,-0.31 -0.75,-0.46 -1.52,-0.46 h -0.73 v 4.38 h 3.27 c 1.09,0 1.84,-0.25 2.24,-0.76 0.41,-0.5 0.67,-1.54 0.77,-3.1 h 1.42 v 5.27 z"
   inkscape:connector-curvature="0"
   style="fill:#eb9811;fill-rule:nonzero" />
   <path
   id="path26"
   class="fil2"
   d="m 58.98,23.31 h 2.2 c 0.89,0 1.53,-0.15 1.94,-0.45 0.42,-0.3 0.62,-0.77 0.62,-1.43 0,-0.67 -0.19,-1.15 -0.59,-1.44 -0.39,-0.29 -1.07,-0.44 -2.03,-0.44 h -2.14 z m 0,4.74 c 0,0.5 0.07,0.82 0.21,0.95 0.13,0.13 0.48,0.2 1.04,0.2 h 0.87 v 1.41 H 54.41 V 29.2 h 0.72 c 0.56,0 0.9,-0.06 1.03,-0.19 0.14,-0.13 0.2,-0.45 0.2,-0.96 v -7.34 c 0,-0.51 -0.06,-0.83 -0.2,-0.96 -0.13,-0.13 -0.47,-0.2 -1.03,-0.2 h -0.72 v -1.41 h 7.45 c 1.56,0 2.72,0.25 3.48,0.74 0.76,0.49 1.13,1.24 1.13,2.26 0,0.89 -0.3,1.61 -0.9,2.14 -0.6,0.54 -1.49,0.88 -2.67,1.02 0.89,0.13 1.52,0.38 1.87,0.75 0.36,0.38 0.56,1.02 0.63,1.94 l 0.08,1.12 c 0.03,0.44 0.08,0.72 0.16,0.85 0.08,0.14 0.21,0.2 0.39,0.2 0.36,0 0.55,-0.68 0.57,-2.04 0,-0.02 0,-0.04 0,-0.05 h 1.18 c 0.02,0.07 0.03,0.16 0.03,0.25 0,0.08 0,0.21 0,0.37 0,1.15 -0.21,1.98 -0.62,2.51 -0.41,0.52 -1.07,0.79 -1.96,0.79 -0.74,0 -1.32,-0.2 -1.74,-0.61 -0.41,-0.41 -0.64,-0.97 -0.66,-1.69 l -0.06,-1.46 c -0.03,-0.97 -0.25,-1.64 -0.64,-1.98 -0.4,-0.35 -1.15,-0.53 -2.26,-0.53 h -0.89 z"
   inkscape:connector-curvature="0"
   style="fill:#eb9811;fill-rule:nonzero" />
   <path
   id="path28"
   class="fil2"
   d="m 79,25.78 h 1.6 c -0.12,1.66 -0.63,2.94 -1.53,3.85 -0.9,0.9 -2.11,1.36 -3.64,1.36 -0.92,0 -1.74,-0.15 -2.48,-0.43 -0.74,-0.29 -1.4,-0.72 -1.98,-1.31 -0.64,-0.63 -1.13,-1.37 -1.45,-2.2 -0.34,-0.83 -0.5,-1.72 -0.5,-2.68 0,-0.96 0.16,-1.84 0.48,-2.65 0.32,-0.8 0.81,-1.52 1.45,-2.17 0.59,-0.59 1.25,-1.03 1.97,-1.33 0.73,-0.3 1.51,-0.45 2.34,-0.45 0.67,0 1.3,0.11 1.89,0.31 0.59,0.21 1.16,0.54 1.73,0.97 l 0.38,-1.11 h 1.34 v 5.11 h -1.43 c -0.15,-1.19 -0.53,-2.12 -1.15,-2.77 -0.62,-0.66 -1.42,-0.99 -2.4,-0.99 -1.14,0 -2.04,0.46 -2.69,1.37 -0.65,0.92 -0.97,2.18 -0.97,3.8 0,1.54 0.32,2.72 0.97,3.56 0.64,0.84 1.56,1.26 2.73,1.26 0.91,0 1.65,-0.3 2.22,-0.9 0.56,-0.59 0.94,-1.46 1.12,-2.6 z"
   inkscape:connector-curvature="0"
   style="fill:#eb9811;fill-rule:nonzero" />
   <path
   id="path30"
   class="fil2"
   d="m 83.72,20.71 c 0,-0.51 -0.06,-0.83 -0.19,-0.96 -0.14,-0.13 -0.48,-0.2 -1.03,-0.2 h -0.6 v -1.41 h 6.49 v 1.41 h -0.8 c -0.56,0 -0.9,0.07 -1.04,0.2 -0.14,0.14 -0.21,0.46 -0.21,0.96 v 5.97 c 0,0.87 0.21,1.5 0.62,1.89 0.41,0.38 1.07,0.58 1.99,0.58 0.86,0 1.51,-0.21 1.95,-0.63 0.45,-0.41 0.67,-1.02 0.67,-1.84 v -5.97 c 0,-0.51 -0.07,-0.83 -0.2,-0.96 -0.13,-0.13 -0.48,-0.2 -1.03,-0.2 h -0.72 v -1.41 h 5.7 v 1.41 h -0.58 c -0.55,0 -0.89,0.07 -1.02,0.2 -0.14,0.13 -0.2,0.45 -0.2,0.96 v 5.97 c 0,1.4 -0.42,2.47 -1.26,3.2 -0.84,0.74 -2.07,1.11 -3.67,1.11 -1.59,0 -2.8,-0.37 -3.63,-1.1 -0.82,-0.73 -1.24,-1.8 -1.24,-3.21 z"
   inkscape:connector-curvature="0"
   style="fill:#eb9811;fill-rule:nonzero" />
   <path
   id="path32"
   class="fil2"
   d="m 100.72,23.31 h 2.2 c 0.88,0 1.53,-0.15 1.94,-0.45 0.41,-0.3 0.61,-0.77 0.61,-1.43 0,-0.67 -0.19,-1.15 -0.58,-1.44 -0.4,-0.29 -1.08,-0.44 -2.04,-0.44 h -2.13 z m 0,4.74 c 0,0.5 0.06,0.82 0.2,0.95 0.14,0.13 0.48,0.2 1.04,0.2 h 0.87 v 1.41 H 96.14 V 29.2 h 0.73 c 0.55,0 0.89,-0.06 1.03,-0.19 0.13,-0.13 0.19,-0.45 0.19,-0.96 v -7.34 c 0,-0.51 -0.06,-0.83 -0.19,-0.96 -0.14,-0.13 -0.48,-0.2 -1.03,-0.2 h -0.73 v -1.41 h 7.45 c 1.57,0 2.72,0.25 3.48,0.74 0.76,0.49 1.14,1.24 1.14,2.26 0,0.89 -0.3,1.61 -0.91,2.14 -0.6,0.54 -1.49,0.88 -2.67,1.02 0.9,0.13 1.52,0.38 1.88,0.75 0.35,0.38 0.56,1.02 0.62,1.94 l 0.08,1.12 c 0.03,0.44 0.08,0.72 0.16,0.85 0.08,0.14 0.21,0.2 0.39,0.2 0.36,0 0.55,-0.68 0.58,-2.04 0,-0.02 0,-0.04 0,-0.05 h 1.18 c 0.01,0.07 0.02,0.16 0.02,0.25 0.01,0.08 0.01,0.21 0.01,0.37 0,1.15 -0.21,1.98 -0.63,2.51 -0.41,0.52 -1.07,0.79 -1.96,0.79 -0.74,0 -1.32,-0.2 -1.74,-0.61 -0.41,-0.41 -0.63,-0.97 -0.66,-1.69 l -0.05,-1.46 c -0.04,-0.97 -0.25,-1.64 -0.65,-1.98 -0.4,-0.35 -1.15,-0.53 -2.25,-0.53 h -0.89 z"
   inkscape:connector-curvature="0"
   style="fill:#eb9811;fill-rule:nonzero" />
   <path
   id="path34"
   class="fil2"
   d="m 114.71,23.31 h 2.2 c 0.89,0 1.53,-0.15 1.94,-0.45 0.42,-0.3 0.62,-0.77 0.62,-1.43 0,-0.67 -0.19,-1.15 -0.59,-1.44 -0.39,-0.29 -1.07,-0.44 -2.03,-0.44 h -2.14 z m 0,4.74 c 0,0.5 0.07,0.82 0.21,0.95 0.13,0.13 0.48,0.2 1.04,0.2 h 0.87 v 1.41 h -6.69 V 29.2 h 0.73 c 0.55,0 0.89,-0.06 1.02,-0.19 0.14,-0.13 0.2,-0.45 0.2,-0.96 v -7.34 c 0,-0.51 -0.06,-0.83 -0.2,-0.96 -0.13,-0.13 -0.47,-0.2 -1.02,-0.2 h -0.73 v -1.41 h 7.45 c 1.56,0 2.72,0.25 3.48,0.74 0.76,0.49 1.13,1.24 1.13,2.26 0,0.89 -0.3,1.61 -0.9,2.14 -0.6,0.54 -1.49,0.88 -2.67,1.02 0.89,0.13 1.52,0.38 1.87,0.75 0.36,0.38 0.56,1.02 0.63,1.94 l 0.08,1.12 c 0.03,0.44 0.08,0.72 0.16,0.85 0.08,0.14 0.21,0.2 0.39,0.2 0.36,0 0.55,-0.68 0.57,-2.04 0,-0.02 0,-0.04 0,-0.05 h 1.18 c 0.02,0.07 0.03,0.16 0.03,0.25 0,0.08 0,0.21 0,0.37 0,1.15 -0.21,1.98 -0.62,2.51 -0.41,0.52 -1.07,0.79 -1.96,0.79 -0.74,0 -1.32,-0.2 -1.74,-0.61 -0.41,-0.41 -0.64,-0.97 -0.66,-1.69 l -0.06,-1.46 c -0.03,-0.97 -0.25,-1.64 -0.64,-1.98 -0.4,-0.35 -1.15,-0.53 -2.26,-0.53 h -0.89 z"
   inkscape:connector-curvature="0"
   style="fill:#eb9811;fill-rule:nonzero" />
   <path
   id="path36"
   class="fil2"
   d="M 124.51,30.61 V 29.2 h 0.72 c 0.56,0 0.9,-0.06 1.03,-0.19 0.14,-0.13 0.2,-0.46 0.2,-0.97 V 20.7 c 0,-0.5 -0.06,-0.82 -0.2,-0.95 -0.13,-0.13 -0.47,-0.2 -1.03,-0.2 h -0.72 v -1.41 h 12.27 v 4.97 h -1.42 c -0.03,-1.42 -0.27,-2.37 -0.69,-2.85 -0.43,-0.47 -1.29,-0.71 -2.6,-0.71 h -2.99 v 3.83 h 0.71 c 0.78,0 1.29,-0.13 1.53,-0.4 0.25,-0.27 0.4,-0.89 0.46,-1.86 l 1.41,-0.01 v 6.25 l -1.41,-0.01 c -0.06,-1.07 -0.2,-1.76 -0.45,-2.07 -0.24,-0.31 -0.75,-0.46 -1.52,-0.46 h -0.73 v 4.38 h 3.27 c 1.09,0 1.84,-0.25 2.24,-0.76 0.41,-0.5 0.67,-1.54 0.77,-3.1 h 1.42 v 5.27 z"
   inkscape:connector-curvature="0"
   style="fill:#eb9811;fill-rule:nonzero" />
   <path
   id="10"
   class="fil2"
   d="m 151.22,30.61 h -2.63 l -6.2,-10.16 v 7.6 c 0,0.51 0.07,0.83 0.2,0.96 0.13,0.13 0.47,0.19 1.02,0.19 h 0.86 v 1.41 h -6.13 V 29.2 h 0.87 c 0.55,0 0.89,-0.06 1.02,-0.19 0.14,-0.13 0.21,-0.45 0.21,-0.96 v -7.34 c 0,-0.51 -0.07,-0.83 -0.21,-0.96 -0.13,-0.13 -0.47,-0.2 -1.02,-0.2 h -0.8 v -1.41 h 5.33 l 5.52,9.06 v -6.49 c 0,-0.51 -0.06,-0.83 -0.19,-0.96 -0.14,-0.13 -0.48,-0.2 -1.03,-0.2 h -0.88 v -1.41 h 5.9 v 1.41 h -0.6 c -0.56,0 -0.9,0.07 -1.04,0.2 -0.14,0.14 -0.2,0.46 -0.2,0.96 z"
   inkscape:connector-curvature="0"
   style="fill:#eb9811;fill-rule:nonzero" />
   <path
   id="11"
   class="fil2"
   d="m 164.04,25.78 h 1.6 c -0.12,1.66 -0.63,2.94 -1.53,3.85 -0.9,0.9 -2.12,1.36 -3.65,1.36 -0.91,0 -1.73,-0.15 -2.47,-0.43 -0.74,-0.29 -1.4,-0.72 -1.98,-1.31 -0.64,-0.63 -1.13,-1.37 -1.46,-2.2 -0.33,-0.83 -0.49,-1.72 -0.49,-2.68 0,-0.96 0.16,-1.84 0.48,-2.65 0.32,-0.8 0.8,-1.52 1.45,-2.17 0.59,-0.59 1.24,-1.03 1.97,-1.33 0.73,-0.3 1.51,-0.45 2.34,-0.45 0.67,0 1.29,0.11 1.88,0.31 0.59,0.21 1.17,0.54 1.74,0.97 l 0.38,-1.11 h 1.34 v 5.11 h -1.43 c -0.15,-1.19 -0.53,-2.12 -1.15,-2.77 -0.62,-0.66 -1.42,-0.99 -2.4,-0.99 -1.14,0 -2.04,0.46 -2.69,1.37 -0.65,0.92 -0.98,2.18 -0.98,3.8 0,1.54 0.33,2.72 0.97,3.56 0.65,0.84 1.56,1.26 2.73,1.26 0.92,0 1.66,-0.3 2.22,-0.9 0.57,-0.59 0.95,-1.46 1.13,-2.6 z"
   inkscape:connector-curvature="0"
   style="fill:#eb9811;fill-rule:nonzero" />
   <path
   id="12"
   class="fil2"
   d="m 174.53,28.05 c 0,0.5 0.07,0.82 0.21,0.95 0.13,0.14 0.48,0.2 1.03,0.2 h 1.09 v 1.41 h -7.25 V 29.2 h 1.08 c 0.55,0 0.89,-0.06 1.02,-0.19 0.14,-0.13 0.2,-0.45 0.2,-0.96 V 25.4 l -3.08,-4.56 c -0.33,-0.48 -0.63,-0.82 -0.89,-1 -0.27,-0.19 -0.57,-0.29 -0.91,-0.29 h -0.62 v -1.41 h 6.6 v 1.41 h -0.91 c -0.28,0 -0.49,0.04 -0.62,0.1 -0.13,0.06 -0.2,0.16 -0.2,0.3 0,0.08 0.03,0.17 0.07,0.27 0.04,0.1 0.11,0.21 0.19,0.34 l 2.1,2.92 2.23,-3.03 c 0.09,-0.12 0.15,-0.23 0.19,-0.31 0.03,-0.08 0.05,-0.16 0.05,-0.25 0,-0.11 -0.06,-0.19 -0.17,-0.25 -0.12,-0.06 -0.28,-0.09 -0.5,-0.09 h -1.1 v -1.41 h 5.79 v 1.41 h -0.43 c -0.33,0 -0.59,0.06 -0.8,0.17 -0.2,0.11 -0.42,0.33 -0.64,0.66 l -3.73,5.02 z"
   inkscape:connector-curvature="0"
   style="fill:#eb9811;fill-rule:nonzero" />
   <path
   id="13"
   class="fil1 str1"
   d="m 10.07,25.78 h 1.59 c -0.12,1.66 -0.63,2.94 -1.53,3.85 -0.89,0.9 -2.11,1.36 -3.64,1.36 -0.91,0 -1.74,-0.15 -2.48,-0.43 C 3.27,30.27 2.61,29.84 2.04,29.25 1.39,28.62 0.91,27.88 0.58,27.05 0.25,26.22 0.08,25.33 0.08,24.37 c 0,-0.96 0.16,-1.84 0.48,-2.65 0.33,-0.8 0.81,-1.52 1.46,-2.17 0.58,-0.59 1.24,-1.03 1.97,-1.33 0.72,-0.3 1.5,-0.45 2.34,-0.45 0.66,0 1.29,0.11 1.88,0.31 0.59,0.21 1.17,0.54 1.74,0.97 l 0.37,-1.11 h 1.34 v 5.11 H 10.23 C 10.09,21.86 9.71,20.93 9.09,20.28 8.46,19.62 7.66,19.29 6.69,19.29 c -1.15,0 -2.04,0.46 -2.69,1.37 -0.65,0.92 -0.98,2.18 -0.98,3.8 0,1.54 0.32,2.72 0.97,3.56 0.65,0.84 1.56,1.26 2.73,1.26 0.91,0 1.65,-0.3 2.22,-0.9 0.57,-0.59 0.94,-1.46 1.13,-2.6 z"
   inkscape:connector-curvature="0"
   style="fill:none;fill-rule:nonzero;stroke:#eb9811;stroke-width:0.17;stroke-miterlimit:22.92560005" />
   <path
   id="14"
   class="fil1 str1"
   d="m 20.7,28.05 c 0,0.5 0.07,0.82 0.2,0.95 0.14,0.14 0.49,0.2 1.04,0.2 h 1.08 v 1.41 H 15.77 V 29.2 h 1.08 c 0.55,0 0.9,-0.06 1.03,-0.19 0.13,-0.13 0.2,-0.45 0.2,-0.96 V 25.4 l -3.09,-4.56 c -0.33,-0.48 -0.62,-0.82 -0.89,-1 -0.26,-0.19 -0.57,-0.29 -0.91,-0.29 h -0.62 v -1.41 h 6.6 v 1.41 h -0.9 c -0.29,0 -0.49,0.04 -0.62,0.1 -0.13,0.06 -0.2,0.16 -0.2,0.3 0,0.08 0.02,0.17 0.06,0.27 0.05,0.1 0.11,0.21 0.19,0.34 l 2.11,2.92 2.22,-3.03 c 0.09,-0.12 0.16,-0.23 0.19,-0.31 0.04,-0.08 0.06,-0.16 0.06,-0.25 0,-0.11 -0.06,-0.19 -0.18,-0.25 -0.11,-0.06 -0.28,-0.09 -0.49,-0.09 h -1.1 v -1.41 h 5.78 v 1.41 h -0.42 c -0.33,0 -0.6,0.06 -0.8,0.17 -0.2,0.11 -0.42,0.33 -0.65,0.66 L 20.7,25.4 Z"
   inkscape:connector-curvature="0"
   style="fill:none;fill-rule:nonzero;stroke:#eb9811;stroke-width:0.17;stroke-miterlimit:22.92560005" />
   <path
   id="15"
   class="fil1 str1"
   d="m 31.38,23.44 h 1.79 c 1.01,0 1.74,-0.15 2.17,-0.45 0.44,-0.3 0.65,-0.79 0.65,-1.48 0,-0.69 -0.2,-1.19 -0.6,-1.49 -0.39,-0.3 -1.07,-0.45 -2.02,-0.45 h -1.99 z m 0,5.78 h 2.06 c 1.07,0 1.83,-0.17 2.28,-0.51 0.46,-0.34 0.68,-0.9 0.68,-1.68 0,-0.78 -0.23,-1.34 -0.7,-1.66 -0.47,-0.33 -1.28,-0.5 -2.42,-0.5 h -1.9 z m -4.57,1.39 V 29.2 h 0.72 c 0.56,0 0.9,-0.06 1.03,-0.19 0.14,-0.13 0.2,-0.45 0.2,-0.96 v -7.34 c 0,-0.51 -0.06,-0.83 -0.2,-0.96 -0.13,-0.13 -0.47,-0.2 -1.03,-0.2 h -0.72 v -1.41 h 7.2 c 1.55,0 2.71,0.26 3.47,0.76 0.76,0.52 1.13,1.3 1.13,2.35 0,0.72 -0.2,1.31 -0.61,1.76 -0.41,0.44 -1.04,0.77 -1.9,0.99 1.01,0.21 1.77,0.58 2.27,1.11 0.49,0.53 0.75,1.24 0.75,2.12 0,1.22 -0.42,2.08 -1.25,2.6 -0.83,0.52 -2.23,0.78 -4.22,0.78 z"
   inkscape:connector-curvature="0"
   style="fill:none;fill-rule:nonzero;stroke:#eb9811;stroke-width:0.17;stroke-miterlimit:22.92560005" />
   <path
   id="16"
   class="fil1 str1"
   d="M 40.38,30.61 V 29.2 h 0.72 c 0.56,0 0.9,-0.06 1.03,-0.19 0.14,-0.13 0.2,-0.46 0.2,-0.97 V 20.7 c 0,-0.5 -0.06,-0.82 -0.2,-0.95 -0.13,-0.13 -0.47,-0.2 -1.03,-0.2 h -0.72 v -1.41 h 12.27 v 4.97 h -1.42 c -0.03,-1.42 -0.26,-2.37 -0.69,-2.85 -0.43,-0.47 -1.29,-0.71 -2.6,-0.71 h -2.99 v 3.83 h 0.71 c 0.78,0 1.29,-0.13 1.53,-0.4 0.25,-0.27 0.4,-0.89 0.46,-1.86 l 1.41,-0.01 v 6.25 l -1.41,-0.01 c -0.06,-1.07 -0.2,-1.76 -0.45,-2.07 -0.24,-0.31 -0.75,-0.46 -1.52,-0.46 h -0.73 v 4.38 h 3.27 c 1.09,0 1.84,-0.25 2.24,-0.76 0.41,-0.5 0.67,-1.54 0.77,-3.1 h 1.42 v 5.27 z"
   inkscape:connector-curvature="0"
   style="fill:none;fill-rule:nonzero;stroke:#eb9811;stroke-width:0.17;stroke-miterlimit:22.92560005" />
   <path
   id="17"
   class="fil1 str1"
   d="m 58.98,23.31 h 2.2 c 0.89,0 1.53,-0.15 1.94,-0.45 0.42,-0.3 0.62,-0.77 0.62,-1.43 0,-0.67 -0.19,-1.15 -0.59,-1.44 -0.39,-0.29 -1.07,-0.44 -2.03,-0.44 h -2.14 z m 0,4.74 c 0,0.5 0.07,0.82 0.21,0.95 0.13,0.13 0.48,0.2 1.04,0.2 h 0.87 v 1.41 H 54.41 V 29.2 h 0.72 c 0.56,0 0.9,-0.06 1.03,-0.19 0.14,-0.13 0.2,-0.45 0.2,-0.96 v -7.34 c 0,-0.51 -0.06,-0.83 -0.2,-0.96 -0.13,-0.13 -0.47,-0.2 -1.03,-0.2 h -0.72 v -1.41 h 7.45 c 1.56,0 2.72,0.25 3.48,0.74 0.76,0.49 1.13,1.24 1.13,2.26 0,0.89 -0.3,1.61 -0.9,2.14 -0.6,0.54 -1.49,0.88 -2.67,1.02 0.89,0.13 1.52,0.38 1.87,0.75 0.36,0.38 0.56,1.02 0.63,1.94 l 0.08,1.12 c 0.03,0.44 0.08,0.72 0.16,0.85 0.08,0.14 0.21,0.2 0.39,0.2 0.36,0 0.55,-0.68 0.57,-2.04 0,-0.02 0,-0.04 0,-0.05 h 1.18 c 0.02,0.07 0.03,0.16 0.03,0.25 0,0.08 0,0.21 0,0.37 0,1.15 -0.21,1.98 -0.62,2.51 -0.41,0.52 -1.07,0.79 -1.96,0.79 -0.74,0 -1.32,-0.2 -1.74,-0.61 -0.41,-0.41 -0.64,-0.97 -0.66,-1.69 l -0.06,-1.46 c -0.03,-0.97 -0.25,-1.64 -0.64,-1.98 -0.4,-0.35 -1.15,-0.53 -2.26,-0.53 h -0.89 z"
   inkscape:connector-curvature="0"
   style="fill:none;fill-rule:nonzero;stroke:#eb9811;stroke-width:0.17;stroke-miterlimit:22.92560005" />
   <path
   id="18"
   class="fil1 str1"
   d="m 79,25.78 h 1.6 c -0.12,1.66 -0.63,2.94 -1.53,3.85 -0.9,0.9 -2.11,1.36 -3.64,1.36 -0.92,0 -1.74,-0.15 -2.48,-0.43 -0.74,-0.29 -1.4,-0.72 -1.98,-1.31 -0.64,-0.63 -1.13,-1.37 -1.45,-2.2 -0.34,-0.83 -0.5,-1.72 -0.5,-2.68 0,-0.96 0.16,-1.84 0.48,-2.65 0.32,-0.8 0.81,-1.52 1.45,-2.17 0.59,-0.59 1.25,-1.03 1.97,-1.33 0.73,-0.3 1.51,-0.45 2.34,-0.45 0.67,0 1.3,0.11 1.89,0.31 0.59,0.21 1.16,0.54 1.73,0.97 l 0.38,-1.11 h 1.34 v 5.11 h -1.43 c -0.15,-1.19 -0.53,-2.12 -1.15,-2.77 -0.62,-0.66 -1.42,-0.99 -2.4,-0.99 -1.14,0 -2.04,0.46 -2.69,1.37 -0.65,0.92 -0.97,2.18 -0.97,3.8 0,1.54 0.32,2.72 0.97,3.56 0.64,0.84 1.56,1.26 2.73,1.26 0.91,0 1.65,-0.3 2.22,-0.9 0.56,-0.59 0.94,-1.46 1.12,-2.6 z"
   inkscape:connector-curvature="0"
   style="fill:none;fill-rule:nonzero;stroke:#eb9811;stroke-width:0.17;stroke-miterlimit:22.92560005" />
   <path
   id="19"
   class="fil1 str1"
   d="m 83.72,20.71 c 0,-0.51 -0.06,-0.83 -0.19,-0.96 -0.14,-0.13 -0.48,-0.2 -1.03,-0.2 h -0.6 v -1.41 h 6.49 v 1.41 h -0.8 c -0.56,0 -0.9,0.07 -1.04,0.2 -0.14,0.14 -0.21,0.46 -0.21,0.96 v 5.97 c 0,0.87 0.21,1.5 0.62,1.89 0.41,0.38 1.07,0.58 1.99,0.58 0.86,0 1.51,-0.21 1.95,-0.63 0.45,-0.41 0.67,-1.02 0.67,-1.84 v -5.97 c 0,-0.51 -0.07,-0.83 -0.2,-0.96 -0.13,-0.13 -0.48,-0.2 -1.03,-0.2 h -0.72 v -1.41 h 5.7 v 1.41 h -0.58 c -0.55,0 -0.89,0.07 -1.02,0.2 -0.14,0.13 -0.2,0.45 -0.2,0.96 v 5.97 c 0,1.4 -0.42,2.47 -1.26,3.2 -0.84,0.74 -2.07,1.11 -3.67,1.11 -1.59,0 -2.8,-0.37 -3.63,-1.1 -0.82,-0.73 -1.24,-1.8 -1.24,-3.21 z"
   inkscape:connector-curvature="0"
   style="fill:none;fill-rule:nonzero;stroke:#eb9811;stroke-width:0.17;stroke-miterlimit:22.92560005" />
   <path
   id="20"
   class="fil1 str1"
   d="m 100.72,23.31 h 2.2 c 0.88,0 1.53,-0.15 1.94,-0.45 0.41,-0.3 0.61,-0.77 0.61,-1.43 0,-0.67 -0.19,-1.15 -0.58,-1.44 -0.4,-0.29 -1.08,-0.44 -2.04,-0.44 h -2.13 z m 0,4.74 c 0,0.5 0.06,0.82 0.2,0.95 0.14,0.13 0.48,0.2 1.04,0.2 h 0.87 v 1.41 H 96.14 V 29.2 h 0.73 c 0.55,0 0.89,-0.06 1.03,-0.19 0.13,-0.13 0.19,-0.45 0.19,-0.96 v -7.34 c 0,-0.51 -0.06,-0.83 -0.19,-0.96 -0.14,-0.13 -0.48,-0.2 -1.03,-0.2 h -0.73 v -1.41 h 7.45 c 1.57,0 2.72,0.25 3.48,0.74 0.76,0.49 1.14,1.24 1.14,2.26 0,0.89 -0.3,1.61 -0.91,2.14 -0.6,0.54 -1.49,0.88 -2.67,1.02 0.9,0.13 1.52,0.38 1.88,0.75 0.35,0.38 0.56,1.02 0.62,1.94 l 0.08,1.12 c 0.03,0.44 0.08,0.72 0.16,0.85 0.08,0.14 0.21,0.2 0.39,0.2 0.36,0 0.55,-0.68 0.58,-2.04 0,-0.02 0,-0.04 0,-0.05 h 1.18 c 0.01,0.07 0.02,0.16 0.02,0.25 0.01,0.08 0.01,0.21 0.01,0.37 0,1.15 -0.21,1.98 -0.63,2.51 -0.41,0.52 -1.07,0.79 -1.96,0.79 -0.74,0 -1.32,-0.2 -1.74,-0.61 -0.41,-0.41 -0.63,-0.97 -0.66,-1.69 l -0.05,-1.46 c -0.04,-0.97 -0.25,-1.64 -0.65,-1.98 -0.4,-0.35 -1.15,-0.53 -2.25,-0.53 h -0.89 z"
   inkscape:connector-curvature="0"
   style="fill:none;fill-rule:nonzero;stroke:#eb9811;stroke-width:0.17;stroke-miterlimit:22.92560005" />
   <path
   id="21"
   class="fil1 str1"
   d="m 114.71,23.31 h 2.2 c 0.89,0 1.53,-0.15 1.94,-0.45 0.42,-0.3 0.62,-0.77 0.62,-1.43 0,-0.67 -0.19,-1.15 -0.59,-1.44 -0.39,-0.29 -1.07,-0.44 -2.03,-0.44 h -2.14 z m 0,4.74 c 0,0.5 0.07,0.82 0.21,0.95 0.13,0.13 0.48,0.2 1.04,0.2 h 0.87 v 1.41 h -6.69 V 29.2 h 0.73 c 0.55,0 0.89,-0.06 1.02,-0.19 0.14,-0.13 0.2,-0.45 0.2,-0.96 v -7.34 c 0,-0.51 -0.06,-0.83 -0.2,-0.96 -0.13,-0.13 -0.47,-0.2 -1.02,-0.2 h -0.73 v -1.41 h 7.45 c 1.56,0 2.72,0.25 3.48,0.74 0.76,0.49 1.13,1.24 1.13,2.26 0,0.89 -0.3,1.61 -0.9,2.14 -0.6,0.54 -1.49,0.88 -2.67,1.02 0.89,0.13 1.52,0.38 1.87,0.75 0.36,0.38 0.56,1.02 0.63,1.94 l 0.08,1.12 c 0.03,0.44 0.08,0.72 0.16,0.85 0.08,0.14 0.21,0.2 0.39,0.2 0.36,0 0.55,-0.68 0.57,-2.04 0,-0.02 0,-0.04 0,-0.05 h 1.18 c 0.02,0.07 0.03,0.16 0.03,0.25 0,0.08 0,0.21 0,0.37 0,1.15 -0.21,1.98 -0.62,2.51 -0.41,0.52 -1.07,0.79 -1.96,0.79 -0.74,0 -1.32,-0.2 -1.74,-0.61 -0.41,-0.41 -0.64,-0.97 -0.66,-1.69 l -0.06,-1.46 c -0.03,-0.97 -0.25,-1.64 -0.64,-1.98 -0.4,-0.35 -1.15,-0.53 -2.26,-0.53 h -0.89 z"
   inkscape:connector-curvature="0"
   style="fill:none;fill-rule:nonzero;stroke:#eb9811;stroke-width:0.17;stroke-miterlimit:22.92560005" />
   <path
   id="22"
   class="fil1 str1"
   d="M 124.51,30.61 V 29.2 h 0.72 c 0.56,0 0.9,-0.06 1.03,-0.19 0.14,-0.13 0.2,-0.46 0.2,-0.97 V 20.7 c 0,-0.5 -0.06,-0.82 -0.2,-0.95 -0.13,-0.13 -0.47,-0.2 -1.03,-0.2 h -0.72 v -1.41 h 12.27 v 4.97 h -1.42 c -0.03,-1.42 -0.27,-2.37 -0.69,-2.85 -0.43,-0.47 -1.29,-0.71 -2.6,-0.71 h -2.99 v 3.83 h 0.71 c 0.78,0 1.29,-0.13 1.53,-0.4 0.25,-0.27 0.4,-0.89 0.46,-1.86 l 1.41,-0.01 v 6.25 l -1.41,-0.01 c -0.06,-1.07 -0.2,-1.76 -0.45,-2.07 -0.24,-0.31 -0.75,-0.46 -1.52,-0.46 h -0.73 v 4.38 h 3.27 c 1.09,0 1.84,-0.25 2.24,-0.76 0.41,-0.5 0.67,-1.54 0.77,-3.1 h 1.42 v 5.27 z"
   inkscape:connector-curvature="0"
   style="fill:none;fill-rule:nonzero;stroke:#eb9811;stroke-width:0.17;stroke-miterlimit:22.92560005" />
   <path
   id="23"
   class="fil1 str1"
   d="m 151.22,30.61 h -2.63 l -6.2,-10.16 v 7.6 c 0,0.51 0.07,0.83 0.2,0.96 0.13,0.13 0.47,0.19 1.02,0.19 h 0.86 v 1.41 h -6.13 V 29.2 h 0.87 c 0.55,0 0.89,-0.06 1.02,-0.19 0.14,-0.13 0.21,-0.45 0.21,-0.96 v -7.34 c 0,-0.51 -0.07,-0.83 -0.21,-0.96 -0.13,-0.13 -0.47,-0.2 -1.02,-0.2 h -0.8 v -1.41 h 5.33 l 5.52,9.06 v -6.49 c 0,-0.51 -0.06,-0.83 -0.19,-0.96 -0.14,-0.13 -0.48,-0.2 -1.03,-0.2 h -0.88 v -1.41 h 5.9 v 1.41 h -0.6 c -0.56,0 -0.9,0.07 -1.04,0.2 -0.14,0.14 -0.2,0.46 -0.2,0.96 z"
   inkscape:connector-curvature="0"
   style="fill:none;fill-rule:nonzero;stroke:#eb9811;stroke-width:0.17;stroke-miterlimit:22.92560005" />
   <path
   id="24"
   class="fil1 str1"
   d="m 164.04,25.78 h 1.6 c -0.12,1.66 -0.63,2.94 -1.53,3.85 -0.9,0.9 -2.12,1.36 -3.65,1.36 -0.91,0 -1.73,-0.15 -2.47,-0.43 -0.74,-0.29 -1.4,-0.72 -1.98,-1.31 -0.64,-0.63 -1.13,-1.37 -1.46,-2.2 -0.33,-0.83 -0.49,-1.72 -0.49,-2.68 0,-0.96 0.16,-1.84 0.48,-2.65 0.32,-0.8 0.8,-1.52 1.45,-2.17 0.59,-0.59 1.24,-1.03 1.97,-1.33 0.73,-0.3 1.51,-0.45 2.34,-0.45 0.67,0 1.29,0.11 1.88,0.31 0.59,0.21 1.17,0.54 1.74,0.97 l 0.38,-1.11 h 1.34 v 5.11 h -1.43 c -0.15,-1.19 -0.53,-2.12 -1.15,-2.77 -0.62,-0.66 -1.42,-0.99 -2.4,-0.99 -1.14,0 -2.04,0.46 -2.69,1.37 -0.65,0.92 -0.98,2.18 -0.98,3.8 0,1.54 0.33,2.72 0.97,3.56 0.65,0.84 1.56,1.26 2.73,1.26 0.92,0 1.66,-0.3 2.22,-0.9 0.57,-0.59 0.95,-1.46 1.13,-2.6 z"
   inkscape:connector-curvature="0"
   style="fill:none;fill-rule:nonzero;stroke:#eb9811;stroke-width:0.17;stroke-miterlimit:22.92560005" />
   <path
   id="25"
   class="fil1 str1"
   d="m 174.53,28.05 c 0,0.5 0.07,0.82 0.21,0.95 0.13,0.14 0.48,0.2 1.03,0.2 h 1.09 v 1.41 h -7.25 V 29.2 h 1.08 c 0.55,0 0.89,-0.06 1.02,-0.19 0.14,-0.13 0.2,-0.45 0.2,-0.96 V 25.4 l -3.08,-4.56 c -0.33,-0.48 -0.63,-0.82 -0.89,-1 -0.27,-0.19 -0.57,-0.29 -0.91,-0.29 h -0.62 v -1.41 h 6.6 v 1.41 h -0.91 c -0.28,0 -0.49,0.04 -0.62,0.1 -0.13,0.06 -0.2,0.16 -0.2,0.3 0,0.08 0.03,0.17 0.07,0.27 0.04,0.1 0.11,0.21 0.19,0.34 l 2.1,2.92 2.23,-3.03 c 0.09,-0.12 0.15,-0.23 0.19,-0.31 0.03,-0.08 0.05,-0.16 0.05,-0.25 0,-0.11 -0.06,-0.19 -0.17,-0.25 -0.12,-0.06 -0.28,-0.09 -0.5,-0.09 h -1.1 v -1.41 h 5.79 v 1.41 h -0.43 c -0.33,0 -0.59,0.06 -0.8,0.17 -0.2,0.11 -0.42,0.33 -0.64,0.66 l -3.73,5.02 z"
   inkscape:connector-curvature="0"
   style="fill:none;fill-rule:nonzero;stroke:#eb9811;stroke-width:0.17;stroke-miterlimit:22.92560005" />
   <path
   class="fil0"
   d="m 73.64,48.32 h -2.63 l -6.2,-10.16 v 7.59 c 0,0.51 0.07,0.83 0.2,0.96 0.13,0.13 0.47,0.2 1.03,0.2 h 0.85 v 1.41 h -6.13 v -1.41 h 0.87 c 0.55,0 0.89,-0.07 1.03,-0.2 0.13,-0.13 0.2,-0.45 0.2,-0.96 v -7.34 c 0,-0.51 -0.07,-0.82 -0.2,-0.95 -0.14,-0.13 -0.48,-0.2 -1.03,-0.2 h -0.8 v -1.41 h 5.34 l 5.52,9.05 v -6.49 c 0,-0.51 -0.07,-0.82 -0.2,-0.95 -0.14,-0.13 -0.48,-0.2 -1.02,-0.2 h -0.88 v -1.41 h 5.89 v 1.41 h -0.6 c -0.56,0 -0.9,0.07 -1.04,0.2 -0.13,0.13 -0.2,0.45 -0.2,0.95 z"
   id="path54"
   inkscape:connector-curvature="0"
   style="fill:#2b2a29;fill-rule:nonzero" />
   <path
   id="path56"
   class="fil0"
   d="m 76.24,48.32 v -1.41 h 0.72 c 0.55,0 0.9,-0.07 1.03,-0.2 0.13,-0.13 0.2,-0.45 0.2,-0.96 v -7.34 c 0,-0.51 -0.07,-0.83 -0.2,-0.95 -0.13,-0.13 -0.48,-0.2 -1.03,-0.2 h -0.72 v -1.41 h 12.27 v 4.96 H 87.09 C 87.06,39.39 86.82,38.44 86.4,37.97 85.97,37.5 85.11,37.26 83.8,37.26 h -2.99 v 3.83 h 0.71 c 0.78,0 1.29,-0.14 1.53,-0.41 0.24,-0.27 0.4,-0.89 0.45,-1.86 l 1.42,-0.01 v 6.26 L 83.5,45.06 C 83.45,43.99 83.3,43.3 83.06,42.99 82.82,42.68 82.31,42.52 81.53,42.52 h -0.72 v 4.39 h 3.26 c 1.1,0 1.85,-0.26 2.25,-0.76 0.41,-0.51 0.66,-1.54 0.77,-3.11 h 1.42 v 5.28 z"
   inkscape:connector-curvature="0"
   style="fill:#2b2a29;fill-rule:nonzero" />
   <path
   id="path58"
   class="fil0"
   d="m 94.02,48.32 -2.63,-9.38 c -0.21,-0.72 -0.4,-1.17 -0.6,-1.38 -0.2,-0.2 -0.49,-0.3 -0.85,-0.3 h -0.3 v -1.41 h 5.31 v 1.41 h -0.59 c -0.27,0 -0.46,0.05 -0.58,0.14 -0.12,0.1 -0.19,0.24 -0.19,0.44 0,0.08 0.01,0.15 0.02,0.21 0.01,0.06 0.02,0.12 0.04,0.18 l 1.95,7.04 2.24,-6.42 c -0.12,-0.57 -0.28,-0.98 -0.5,-1.22 -0.21,-0.25 -0.52,-0.37 -0.92,-0.37 h -0.46 v -1.41 h 5.46 v 1.41 h -0.69 c -0.32,0 -0.55,0.04 -0.68,0.11 -0.13,0.08 -0.19,0.21 -0.19,0.4 0,0.08 0.03,0.22 0.08,0.42 0.01,0.04 0.02,0.07 0.03,0.1 l 2.1,6.8 1.86,-6.34 c 0.05,-0.18 0.09,-0.35 0.12,-0.5 0.03,-0.17 0.05,-0.31 0.05,-0.43 0,-0.19 -0.09,-0.33 -0.25,-0.42 -0.17,-0.09 -0.44,-0.14 -0.79,-0.14 h -0.61 v -1.41 h 5.1 v 1.41 h -0.4 c -0.32,0 -0.57,0.1 -0.77,0.29 -0.2,0.2 -0.37,0.53 -0.5,0.98 l -2.84,9.79 h -2.46 l -1.95,-6.67 -2.25,6.67 z"
   inkscape:connector-curvature="0"
   style="fill:#2b2a29;fill-rule:nonzero" />
   <path
   id="path60"
   class="fil0"
   d="m 108.5,48.32 v -5.15 h 1.45 c 0.2,1.24 0.66,2.19 1.38,2.85 0.72,0.65 1.66,0.98 2.81,0.98 0.83,0 1.46,-0.14 1.9,-0.42 0.44,-0.28 0.66,-0.68 0.66,-1.2 0,-0.48 -0.17,-0.86 -0.51,-1.16 -0.33,-0.29 -0.87,-0.53 -1.61,-0.7 l -2.02,-0.47 c -1.46,-0.33 -2.5,-0.79 -3.14,-1.37 -0.64,-0.58 -0.95,-1.35 -0.95,-2.32 0,-1.17 0.4,-2.12 1.22,-2.82 0.82,-0.71 1.91,-1.06 3.28,-1.06 0.68,0 1.31,0.1 1.9,0.31 0.59,0.21 1.16,0.53 1.72,0.97 l 0.65,-0.91 h 1.11 v 4.72 h -1.41 c -0.21,-1.13 -0.66,-2.01 -1.34,-2.63 -0.68,-0.63 -1.53,-0.94 -2.56,-0.94 -0.75,0 -1.33,0.14 -1.75,0.42 -0.41,0.28 -0.61,0.68 -0.61,1.18 0,0.42 0.14,0.76 0.43,1.01 0.3,0.26 0.76,0.46 1.4,0.61 l 2.52,0.58 c 1.33,0.3 2.33,0.77 2.99,1.42 0.66,0.64 0.98,1.46 0.98,2.46 0,1.18 -0.43,2.14 -1.29,2.89 -0.87,0.75 -1.99,1.12 -3.37,1.12 -0.7,0 -1.39,-0.13 -2.07,-0.38 -0.69,-0.25 -1.38,-0.64 -2.08,-1.16 l -0.41,1.17 z"
   inkscape:connector-curvature="0"
   style="fill:#2b2a29;fill-rule:nonzero" />
   <path
   id="path62"
   class="fil1 str0"
   d="m 73.64,48.32 h -2.63 l -6.2,-10.16 v 7.59 c 0,0.51 0.07,0.83 0.2,0.96 0.13,0.13 0.47,0.2 1.03,0.2 h 0.85 v 1.41 h -6.13 v -1.41 h 0.87 c 0.55,0 0.89,-0.07 1.03,-0.2 0.13,-0.13 0.2,-0.45 0.2,-0.96 v -7.34 c 0,-0.51 -0.07,-0.82 -0.2,-0.95 -0.14,-0.13 -0.48,-0.2 -1.03,-0.2 h -0.8 v -1.41 h 5.34 l 5.52,9.05 v -6.49 c 0,-0.51 -0.07,-0.82 -0.2,-0.95 -0.14,-0.13 -0.48,-0.2 -1.02,-0.2 h -0.88 v -1.41 h 5.89 v 1.41 h -0.6 c -0.56,0 -0.9,0.07 -1.04,0.2 -0.13,0.13 -0.2,0.45 -0.2,0.95 z"
   inkscape:connector-curvature="0"
   style="fill:none;fill-rule:nonzero;stroke:#2b2a29;stroke-width:0.17;stroke-miterlimit:22.92560005" />
   <path
   id="path64"
   class="fil1 str0"
   d="m 76.24,48.32 v -1.41 h 0.72 c 0.55,0 0.9,-0.07 1.03,-0.2 0.13,-0.13 0.2,-0.45 0.2,-0.96 v -7.34 c 0,-0.51 -0.07,-0.83 -0.2,-0.95 -0.13,-0.13 -0.48,-0.2 -1.03,-0.2 h -0.72 v -1.41 h 12.27 v 4.96 H 87.09 C 87.06,39.39 86.82,38.44 86.4,37.97 85.97,37.5 85.11,37.26 83.8,37.26 h -2.99 v 3.83 h 0.71 c 0.78,0 1.29,-0.14 1.53,-0.41 0.24,-0.27 0.4,-0.89 0.45,-1.86 l 1.42,-0.01 v 6.26 L 83.5,45.06 C 83.45,43.99 83.3,43.3 83.06,42.99 82.82,42.68 82.31,42.52 81.53,42.52 h -0.72 v 4.39 h 3.26 c 1.1,0 1.85,-0.26 2.25,-0.76 0.41,-0.51 0.66,-1.54 0.77,-3.11 h 1.42 v 5.28 z"
   inkscape:connector-curvature="0"
   style="fill:none;fill-rule:nonzero;stroke:#2b2a29;stroke-width:0.17;stroke-miterlimit:22.92560005" />
   <path
   id="path66"
   class="fil1 str0"
   d="m 94.02,48.32 -2.63,-9.38 c -0.21,-0.72 -0.4,-1.17 -0.6,-1.38 -0.2,-0.2 -0.49,-0.3 -0.85,-0.3 h -0.3 v -1.41 h 5.31 v 1.41 h -0.59 c -0.27,0 -0.46,0.05 -0.58,0.14 -0.12,0.1 -0.19,0.24 -0.19,0.44 0,0.08 0.01,0.15 0.02,0.21 0.01,0.06 0.02,0.12 0.04,0.18 l 1.95,7.04 2.24,-6.42 c -0.12,-0.57 -0.28,-0.98 -0.5,-1.22 -0.21,-0.25 -0.52,-0.37 -0.92,-0.37 h -0.46 v -1.41 h 5.46 v 1.41 h -0.69 c -0.32,0 -0.55,0.04 -0.68,0.11 -0.13,0.08 -0.19,0.21 -0.19,0.4 0,0.08 0.03,0.22 0.08,0.42 0.01,0.04 0.02,0.07 0.03,0.1 l 2.1,6.8 1.86,-6.34 c 0.05,-0.18 0.09,-0.35 0.12,-0.5 0.03,-0.17 0.05,-0.31 0.05,-0.43 0,-0.19 -0.09,-0.33 -0.25,-0.42 -0.17,-0.09 -0.44,-0.14 -0.79,-0.14 h -0.61 v -1.41 h 5.1 v 1.41 h -0.4 c -0.32,0 -0.57,0.1 -0.77,0.29 -0.2,0.2 -0.37,0.53 -0.5,0.98 l -2.84,9.79 h -2.46 l -1.95,-6.67 -2.25,6.67 z"
   inkscape:connector-curvature="0"
   style="fill:none;fill-rule:nonzero;stroke:#2b2a29;stroke-width:0.17;stroke-miterlimit:22.92560005" />
   <path
   id="path68"
   class="fil1 str0"
   d="m 108.5,48.32 v -5.15 h 1.45 c 0.2,1.24 0.66,2.19 1.38,2.85 0.72,0.65 1.66,0.98 2.81,0.98 0.83,0 1.46,-0.14 1.9,-0.42 0.44,-0.28 0.66,-0.68 0.66,-1.2 0,-0.48 -0.17,-0.86 -0.51,-1.16 -0.33,-0.29 -0.87,-0.53 -1.61,-0.7 l -2.02,-0.47 c -1.46,-0.33 -2.5,-0.79 -3.14,-1.37 -0.64,-0.58 -0.95,-1.35 -0.95,-2.32 0,-1.17 0.4,-2.12 1.22,-2.82 0.82,-0.71 1.91,-1.06 3.28,-1.06 0.68,0 1.31,0.1 1.9,0.31 0.59,0.21 1.16,0.53 1.72,0.97 l 0.65,-0.91 h 1.11 v 4.72 h -1.41 c -0.21,-1.13 -0.66,-2.01 -1.34,-2.63 -0.68,-0.63 -1.53,-0.94 -2.56,-0.94 -0.75,0 -1.33,0.14 -1.75,0.42 -0.41,0.28 -0.61,0.68 -0.61,1.18 0,0.42 0.14,0.76 0.43,1.01 0.3,0.26 0.76,0.46 1.4,0.61 l 2.52,0.58 c 1.33,0.3 2.33,0.77 2.99,1.42 0.66,0.64 0.98,1.46 0.98,2.46 0,1.18 -0.43,2.14 -1.29,2.89 -0.87,0.75 -1.99,1.12 -3.37,1.12 -0.7,0 -1.39,-0.13 -2.07,-0.38 -0.69,-0.25 -1.38,-0.64 -2.08,-1.16 l -0.41,1.17 z"
   inkscape:connector-curvature="0"
   style="fill:none;fill-rule:nonzero;stroke:#2b2a29;stroke-width:0.17;stroke-miterlimit:22.92560005" />
   <g
   id="g78">
    <rect
   class="fil3"
   x="29.82"
   y="15.28"
   width="1.67"
   height="2.8399999"
   id="rect70"
   style="fill:#eb9811" />
    <rect
   class="fil3"
   x="29.82"
   y="30.66"
   width="1.67"
   height="2.8399999"
   id="rect72"
   style="fill:#eb9811" />
    <rect
   class="fil3"
   x="32.900002"
   y="15.28"
   width="1.67"
   height="2.8399999"
   id="rect74"
   style="fill:#eb9811" />
    <rect
   class="fil3"
   x="32.900002"
   y="30.66"
   width="1.67"
   height="2.8399999"
   id="rect76"
   style="fill:#eb9811" />
   </g>
  </g>
 </g>
</svg>