<?xml version="1.0" encoding="UTF-8" standalone="no"?>
<!-- Generator: Adobe Illustrator 19.0.0, SVG Export Plug-In . SVG Version: 6.00 Build 0)  -->

<svg
   xmlns:dc="http://purl.org/dc/elements/1.1/"
   xmlns:cc="http://creativecommons.org/ns#"
   xmlns:rdf="http://www.w3.org/1999/02/22-rdf-syntax-ns#"
   xmlns:svg="http://www.w3.org/2000/svg"
   xmlns="http://www.w3.org/2000/svg"
   xmlns:sodipodi="http://sodipodi.sourceforge.net/DTD/sodipodi-0.dtd"
   xmlns:inkscape="http://www.inkscape.org/namespaces/inkscape"
   version="1.1"
   id="Layer_1"
   x="0px"
   y="0px"
   viewBox="0 0 400.10046 124.14481"
   xml:space="preserve"
   sodipodi:docname="Sci-TechNewsToday-Logo-B29-SVG_cropped.svg"
   width="400.10046"
   height="124.14481"
   inkscape:version="0.92.3 (2405546, 2018-03-11)"><metadata
   id="metadata35"><rdf:RDF><cc:Work
       rdf:about=""><dc:format>image/svg+xml</dc:format><dc:type
         rdf:resource="http://purl.org/dc/dcmitype/StillImage" /></cc:Work></rdf:RDF></metadata><defs
   id="defs33" /><sodipodi:namedview
   pagecolor="#ffffff"
   bordercolor="#666666"
   borderopacity="1"
   objecttolerance="10"
   gridtolerance="10"
   guidetolerance="10"
   inkscape:pageopacity="0"
   inkscape:pageshadow="2"
   inkscape:window-width="640"
   inkscape:window-height="480"
   id="namedview31"
   showgrid="false"
   inkscape:zoom="0.835"
   inkscape:cx="200.10048"
   inkscape:cy="62.099995"
   inkscape:window-x="0"
   inkscape:window-y="0"
   inkscape:window-maximized="0"
   inkscape:current-layer="Layer_1" />
<style
   type="text/css"
   id="style2">
	.st0{fill:#DA5607;}
	.st1{fill:#03013B;}
	.st2{fill:#FFFFFF;}
</style>
<g
   id="XMLID_4_"
   transform="translate(0.10047562,-50.455185)">
	<g
   id="XMLID_32_">
		<g
   id="XMLID_8_">
			<path
   id="XMLID_5_"
   class="st0"
   d="m 115.5,75.4 c 0,0 -0.9,-12.5 8.5,-17.8 0,0 9.7,-6 18.8,0.6 -0.3,-0.2 -0.6,-1 -0.8,-1.4 -0.8,-1.1 -1.7,-2.1 -2.7,-3 -7.7,-6.9 -20,-2.3 -24.3,6.3 -1,2 -1.6,4.1 -1.7,6.3 -0.1,1.4 0.1,2.8 0.4,4.2 0.2,0.8 0.4,1.6 0.7,2.3 0.3,0.7 1.1,1.8 1.1,2.5 z"
   inkscape:connector-curvature="0"
   style="fill:#da5607" />
			<path
   id="XMLID_6_"
   class="st0"
   d="m 121.4,65.4 c 0,0 11.9,-8.2 20.2,1.2 0,0 4.2,3.1 4.2,10.7 0,-0.2 0.6,-0.9 0.7,-1.1 0.5,-1 0.9,-2.1 1.2,-3.3 1.5,-7.9 -6,-14.3 -13.3,-15 -5.1,-0.4 -10.6,2.9 -13,7.5 z"
   inkscape:connector-curvature="0"
   style="fill:#da5607" />
			<path
   id="XMLID_9_"
   class="st0"
   d="m 142.2,77.8 c 0,-6.5 -5.3,-11.8 -11.8,-11.8 -6.5,0 -11.8,5.3 -11.8,11.8 0,4.7 2.8,8.8 6.9,10.7 0.5,1.6 2.3,2.8 4.5,2.8 2.1,0 3.8,-1 4.4,-2.4 4.5,-1.8 7.8,-6.1 7.8,-11.1 z"
   inkscape:connector-curvature="0"
   style="fill:#da5607" />
		</g>
		<g
   id="XMLID_7_">
			<path
   id="XMLID_13_"
   class="st1"
   d="m 14.8,113.2 c 0,1.1 0,1.9 0.3,2.7 0.5,1.5 1.9,2.1 5,2.4 3,0.1 5.9,0.3 9,0.3 3.2,0.1 6.4,-0.1 9.7,-0.1 0.5,0 2.5,0.2 4,-0.4 1.5,-0.5 2.7,-2 2.7,-3.6 0,-0.4 -0.1,-1.2 -0.7,-2.1 -1.1,-1.6 -2.6,-1.5 -5.9,-2 -6.9,-0.1 -13.9,-0.2 -20.8,-0.6 -2.2,-0.1 -4.4,-0.3 -6.6,-0.5 -0.7,-0.1 -1.4,-0.2 -2.1,-0.3 -0.9,-0.1 -4.2,-0.7 -6.5,-3.1 -1.5,-1.6 -2.8,-4.5 -2.8,-9.3 0,-0.3 0,-5.5 1.2,-8.5 0.5,-1.1 1.1,-2.1 1.9,-3 2.7,-2.9 6.3,-3.4 10.3,-3.9 5.1,-0.2 10.3,-0.4 15.4,-0.4 5.7,0 11.4,0.3 17,0.6 l 2.6,0.4 c 1,0.1 4.3,0.7 6.8,3.1 3.3,3 3.3,7.2 3.1,11.4 L 44.1,96.2 c -0.9,-3.6 -1.5,-4.1 -5.3,-4.5 -3.5,-0.2 -7,-0.3 -10.5,-0.3 -2.7,0 -5.4,0.1 -8.1,0.2 -1.8,0.1 -3.5,0.1 -4.6,1.6 -0.2,0.3 -0.8,1.1 -0.8,2.1 0,1 0.5,1.8 0.8,2.1 1.3,1.6 2.9,1.7 4.7,1.8 l 28.3,1 c 3.9,0.4 5.3,0.9 7,2.1 2.4,1.7 4.5,4.8 4.5,11.7 0,5.3 -0.9,7.9 -2.4,10 -0.6,0.8 -1.1,1.4 -1.9,2 -2.2,1.6 -5.1,2.1 -8,2.5 -5.8,0.3 -11.6,0.6 -17.4,0.6 -6.3,0 -12.6,-0.4 -18.9,-0.7 -3.1,-0.5 -6.7,-1.1 -9,-3.6 -2.7,-2.9 -2.6,-8.1 -2.6,-11.7 z"
   inkscape:connector-curvature="0"
   style="fill:#03013b" />
			<path
   id="XMLID_15_"
   class="st1"
   d="m 102.7,108.6 c -0.1,-0.9 -0.2,-1.6 -0.9,-2.3 -0.4,-0.5 -1.1,-0.9 -1.7,-1.2 -1.2,-0.5 -3.7,-0.9 -7,-0.9 -1.6,0 -3.2,0.1 -4.9,0.3 -2.1,0.2 -3,0.5 -3.7,0.9 -2.7,1.5 -2.6,6.2 -2.6,6.9 0,3.5 1.3,5.7 2.7,6.4 1.3,0.8 4,1 7.5,1 1.7,0 3.3,-0.1 5,-0.1 0.5,0 3.2,0 4.7,-1.6 0.8,-0.9 0.9,-1.7 1.1,-2.9 l 12.6,0.1 c -0.3,4.9 -0.7,6.8 -1.9,8.7 -1,1.5 -3.1,3.4 -7.2,4.4 -2.1,0.5 -6.9,1.1 -12.8,1.1 -1.9,0 -3.8,-0.1 -5.7,-0.1 -6.3,-0.3 -10.1,-1.1 -12.6,-2.5 -3.1,-1.7 -4.3,-4.5 -4.7,-5.5 -0.7,-1.7 -1.3,-5 -1.3,-9.6 0,-0.6 -0.1,-10 4.9,-13.8 3.4,-2.5 10.2,-3.2 19.3,-3.2 3.1,0 6.1,0.1 9.4,0.5 4.7,0.5 8.8,1.5 11,5.8 1.3,2.5 1.3,4.9 1.3,7.7 h -12.5 z"
   inkscape:connector-curvature="0"
   style="fill:#03013b" />
			<path
   id="XMLID_17_"
   class="st1"
   d="m 136.8,95.2 v 33.4 H 124.4 V 95.2 Z"
   inkscape:connector-curvature="0"
   style="fill:#03013b" />
			<path
   id="XMLID_20_"
   class="st1"
   d="M 178,103.7 V 116 h -33.2 v -12.3 z"
   inkscape:connector-curvature="0"
   style="fill:#03013b" />
			<path
   id="XMLID_22_"
   class="st0"
   d="m 239.9,81.4 v 10.9 h -21.2 v 36.3 H 203.9 V 92.4 H 183 v -11 z"
   inkscape:connector-curvature="0"
   style="fill:#da5607" />
			<path
   id="XMLID_24_"
   class="st0"
   d="m 258.7,114.5 c -0.1,2.7 -0.1,4.5 2.2,5.9 2.6,1.5 5.5,1.1 8.2,1.1 2.1,0 4.3,0.2 6.4,-0.5 0.9,-0.3 1.5,-0.7 1.7,-1 0.3,-0.4 0.6,-0.9 0.8,-2.1 l 12.2,0.1 c 0,0.7 0,1.5 -0.1,2.2 -0.1,1.3 -0.5,3.3 -2.9,5.5 -3.8,3.4 -9,3.5 -14.2,3.5 h -7.3 c -1.3,-0.1 -2.5,-0.1 -3.8,-0.2 -3.8,-0.3 -8.3,-1 -11.4,-3.5 -0.7,-0.5 -1.7,-1.5 -2.7,-3.3 -1.3,-2.5 -1.9,-5.1 -1.9,-10.7 0,-0.9 0.1,-1.7 0.1,-2.5 0.3,-5.9 2.5,-9 4.5,-10.6 4.3,-3.3 13,-3.5 17.9,-3.5 3.1,0 6.3,0.1 9.6,0.5 4.7,0.6 6.5,1.7 8.3,3.3 0.5,0.5 1.8,1.7 2.6,3.5 1.4,2.9 1.3,6.1 1.2,12.4 h -31.4 z m 19.4,-6.7 c -0.2,-2.4 -0.5,-3.3 -1.3,-4 -1.1,-1 -4.1,-1.4 -7.6,-1.4 -1.7,0 -3.5,0.1 -5.3,0.3 -1.7,0.1 -3.1,0.5 -4.3,1.7 -1.1,1.1 -1,2.1 -0.9,3.5 z"
   inkscape:connector-curvature="0"
   style="fill:#da5607" />
			<path
   id="XMLID_27_"
   class="st0"
   d="m 332.3,108.6 c -0.1,-0.9 -0.2,-1.6 -0.9,-2.3 -0.4,-0.5 -1.1,-0.9 -1.7,-1.2 -1.2,-0.5 -3.7,-0.9 -7,-0.9 -1.6,0 -3.2,0.1 -4.9,0.3 -2.1,0.2 -3,0.5 -3.7,0.9 -2.7,1.5 -2.6,6.2 -2.6,6.9 0,3.5 1.3,5.7 2.7,6.4 1.3,0.8 4,1 7.5,1 1.7,0 3.3,-0.1 5,-0.1 0.5,0 3.2,0 4.7,-1.6 0.8,-0.9 0.9,-1.7 1.1,-2.9 l 12.6,0.1 c -0.3,4.9 -0.7,6.8 -1.9,8.7 -1,1.5 -3.1,3.4 -7.2,4.4 -2.1,0.5 -6.9,1.1 -12.8,1.1 -1.9,0 -3.8,-0.1 -5.7,-0.1 -6.3,-0.3 -10.1,-1.1 -12.6,-2.5 -3.1,-1.7 -4.3,-4.5 -4.7,-5.5 -0.7,-1.7 -1.3,-5 -1.3,-9.6 0,-0.6 -0.1,-10 4.9,-13.8 3.4,-2.5 10.2,-3.2 19.3,-3.2 3.1,0 6.1,0.1 9.4,0.5 4.7,0.5 8.8,1.5 11,5.8 1.3,2.5 1.3,4.9 1.3,7.7 h -12.5 z"
   inkscape:connector-curvature="0"
   style="fill:#da5607" />
			<path
   id="XMLID_29_"
   class="st0"
   d="M 366.6,81.4 V 101 c 1.2,-2.4 2,-3.7 4.4,-4.9 2.7,-1.3 5.7,-1.6 11.6,-1.6 0.9,0 1.7,0.1 2.6,0.1 1.5,0.1 6.4,0.3 10.5,3.7 0.7,0.6 2,1.7 2.9,3.5 1.1,2.3 1.3,5.1 1.4,7.8 v 18.8 h -12.5 v -16.8 c 0,-0.7 0.3,-5.7 -3.5,-7 -1.7,-0.6 -4.7,-0.5 -6.5,-0.5 -3.7,0 -6.1,0.3 -7.6,1.1 -0.6,0.4 -1.3,0.9 -1.7,1.5 -1.4,1.8 -1.5,4.1 -1.5,6.5 v 15.2 h -12.5 v -47 z"
   inkscape:connector-curvature="0"
   style="fill:#da5607" />
		</g>
	</g>
	<rect
   id="XMLID_19_"
   x="0"
   y="134.89999"
   class="st1"
   width="400"
   height="39.700001"
   style="fill:#03013b" />
	<g
   id="XMLID_31_">
		<path
   id="XMLID_33_"
   class="st2"
   d="m 21.7,144.2 c 2.3,2.8 4.6,5.6 6.8,8.4 2,2.6 4,5.2 6,7.8 l -0.1,-9.6 v -6.5 h 6.1 v 21 H 30.2 c -2.5,-3 -4.9,-6 -7.3,-9.1 -1.8,-2.3 -3.5,-4.6 -5.3,-7 v 16.1 h -6.1 v -21 h 10.2 z"
   inkscape:connector-curvature="0"
   style="fill:#ffffff" />
		<path
   id="XMLID_35_"
   class="st2"
   d="m 77.2,144.2 v 4.6 H 60.1 v 3.5 h 16.1 v 4.4 H 60.1 v 3.7 h 17.1 v 4.8 H 53.7 v -21 z"
   inkscape:connector-curvature="0"
   style="fill:#ffffff" />
		<path
   id="XMLID_37_"
   class="st2"
   d="m 106.5,144.2 h 7.9 l 5.1,15.8 6.3,-15.8 h 6.7 c -0.3,0.6 -0.6,1.2 -0.9,1.8 -0.4,0.9 -0.8,1.8 -1.2,2.7 -1,2.4 -2,4.9 -3,7.4 -1.2,3.1 -2.6,6.1 -3.9,9.2 h -8.6 l -4.7,-15 -4.9,15 h -8.6 l -8.5,-21 H 95 c 1.2,3.2 2.4,6.3 3.7,9.5 0.8,2.1 1.7,4.2 2.5,6.3 z"
   inkscape:connector-curvature="0"
   style="fill:#ffffff" />
		<path
   id="XMLID_39_"
   class="st2"
   d="m 149.9,158.4 c 0,0.5 0,0.9 0.2,1.2 0.2,0.7 0.9,1 2.2,1.1 1.3,0.1 2.6,0.1 4,0.1 1.4,0 2.9,0 4.3,-0.1 0.2,0 1.1,0.1 1.8,-0.2 0.7,-0.2 1.2,-0.9 1.2,-1.6 0,-0.2 0,-0.5 -0.3,-0.9 -0.5,-0.7 -1.2,-0.7 -2.6,-0.9 -3.1,-0.1 -6.2,-0.1 -9.2,-0.3 -1,-0.1 -2,-0.1 -2.9,-0.2 -0.3,-0.1 -0.6,-0.1 -0.9,-0.1 -0.4,-0.1 -1.9,-0.3 -2.9,-1.4 -0.7,-0.7 -1.2,-2 -1.2,-4.1 0,-0.1 0,-2.4 0.5,-3.8 0.2,-0.5 0.5,-1 0.9,-1.3 1.2,-1.3 2.8,-1.5 4.6,-1.7 2.3,-0.1 4.6,-0.2 6.9,-0.2 2.5,0 5.1,0.1 7.6,0.3 l 1.2,0.2 c 0.4,0.1 1.9,0.3 3,1.4 1.5,1.3 1.5,3.2 1.4,5.1 h -6.4 c -0.4,-1.6 -0.7,-1.8 -2.4,-2 -1.5,-0.1 -3.1,-0.1 -4.7,-0.1 -1.2,0 -2.4,0.1 -3.6,0.1 -0.8,0 -1.5,0.1 -2.1,0.7 -0.1,0.1 -0.4,0.5 -0.4,1 0,0.4 0.2,0.8 0.4,0.9 0.6,0.7 1.3,0.7 2.1,0.8 l 12.6,0.4 c 1.7,0.2 2.4,0.4 3.1,1 1.1,0.8 2,2.1 2,5.2 0,2.4 -0.4,3.5 -1.1,4.4 -0.3,0.4 -0.5,0.6 -0.9,0.9 -1,0.7 -2.3,0.9 -3.6,1.1 -2.6,0.1 -5.1,0.3 -7.7,0.3 -2.8,0 -5.6,-0.2 -8.4,-0.3 -1.4,-0.2 -3,-0.5 -4,-1.6 -1.2,-1.3 -1.2,-3.6 -1.2,-5.2 z"
   inkscape:connector-curvature="0"
   style="fill:#ffffff" />
		<path
   id="XMLID_41_"
   class="st2"
   d="M 224.5,144.2 V 149 H 215 v 16.1 h -6.6 V 149 h -9.3 v -4.9 h 25.4 z"
   inkscape:connector-curvature="0"
   style="fill:#ffffff" />
		<path
   id="XMLID_43_"
   class="st2"
   d="m 235.7,150.1 c 0,-0.3 0.1,-0.7 0.1,-1 0.3,-1.6 1.1,-3 2.6,-3.9 1.1,-0.7 2.1,-0.8 3.4,-1 2.6,-0.1 5.1,-0.3 7.7,-0.3 3,0 6.1,0.1 9.1,0.3 0.3,0 0.7,0.1 1,0.1 0.9,0.1 3,0.6 4.3,2.8 0.7,1.4 0.9,2.7 1,4.2 0.1,1.5 0.1,3 0.1,4.5 0,1 -0.1,2 -0.2,3 -0.2,1.5 -0.4,2.8 -1.5,4 -1.6,2 -4.1,2.2 -6.4,2.4 -2.1,0 -4.2,0.1 -6.3,0.1 -2.4,0 -4.8,-0.1 -7.2,-0.1 -1.9,-0.1 -3.7,-0.2 -5.3,-1.4 -2.5,-1.8 -2.6,-5 -2.6,-7.7 z m 18.9,10.2 c 1.4,-0.1 2.6,-0.2 3.3,-1.4 0.3,-0.4 0.4,-0.9 0.5,-1.9 v -4.5 c 0,-0.5 -0.1,-0.8 -0.2,-1.3 -0.5,-1.7 -1.7,-1.8 -3.4,-1.9 h -9 c -1.5,0.1 -2,0.3 -2.6,0.7 -0.4,0.3 -0.6,0.6 -0.7,0.8 -0.2,0.4 -0.3,1 -0.4,1.2 -0.1,0.7 -0.1,1.9 -0.1,3.5 0.1,1.8 0.2,3.1 0.7,3.7 0.5,0.7 1.6,1 3.4,1.1 z"
   inkscape:connector-curvature="0"
   style="fill:#ffffff" />
		<path
   id="XMLID_46_"
   class="st2"
   d="m 297.4,144.2 c 0.6,0 1.1,0 1.7,0.1 3.3,0.3 4.8,1.6 5.6,2.9 1,1.7 1.1,3.7 1.2,5.5 v 3.4 c 0,0.5 0,1 0,1.5 -0.2,3.8 -1.2,5.5 -2.8,6.5 -1.6,1 -3.1,1.1 -4.9,1.1 H 278 v -21 z m -13.1,16 H 295 c 0.2,0 0.8,0 1.5,-0.1 2.6,-0.4 2.7,-2.3 2.7,-4.5 V 153 c -0.1,-1 -0.2,-1.8 -0.9,-2.6 -0.9,-0.9 -2.2,-1 -3.5,-1 h -10.5 z"
   inkscape:connector-curvature="0"
   style="fill:#ffffff" />
		<path
   id="XMLID_49_"
   class="st2"
   d="m 336.7,144.2 11.8,21 h -7.3 l -2,-3.7 h -13.5 l -2,3.7 h -7.1 l 11.7,-21 z m -8.6,12.8 h 8.8 l -4.3,-8.2 z"
   inkscape:connector-curvature="0"
   style="fill:#ffffff" />
		<path
   id="XMLID_52_"
   class="st2"
   d="m 373.1,152.8 7.1,-8.6 h 8.4 l -12.1,13.6 v 7.3 h -6.6 v -7.3 L 358,144.2 h 8.1 z"
   inkscape:connector-curvature="0"
   style="fill:#ffffff" />
	</g>
</g>
</svg>