<?xml version="1.0" encoding="UTF-8" standalone="no"?>
<!-- Creator: CorelDRAW 2017 -->

<svg
   xmlns:dc="http://purl.org/dc/elements/1.1/"
   xmlns:cc="http://creativecommons.org/ns#"
   xmlns:rdf="http://www.w3.org/1999/02/22-rdf-syntax-ns#"
   xmlns:svg="http://www.w3.org/2000/svg"
   xmlns="http://www.w3.org/2000/svg"
   xmlns:sodipodi="http://sodipodi.sourceforge.net/DTD/sodipodi-0.dtd"
   xmlns:inkscape="http://www.inkscape.org/namespaces/inkscape"
   xml:space="preserve"
   width="398.53497"
   height="79"
   version="1.1"
   style="clip-rule:evenodd;fill-rule:evenodd;image-rendering:optimizeQuality;shape-rendering:geometricPrecision;text-rendering:geometricPrecision"
   viewBox="0 0 203.82217 40.45"
   id="svg93"
   sodipodi:docname="The-Business-Gazette-Online-Oleksiy-SVG_cropped.svg"
   inkscape:version="0.92.3 (2405546, 2018-03-11)"><metadata
   id="metadata97"><rdf:RDF><cc:Work
       rdf:about=""><dc:format>image/svg+xml</dc:format><dc:type
         rdf:resource="http://purl.org/dc/dcmitype/StillImage" /></cc:Work></rdf:RDF></metadata><sodipodi:namedview
   pagecolor="#ffffff"
   bordercolor="#666666"
   borderopacity="1"
   objecttolerance="10"
   gridtolerance="10"
   guidetolerance="10"
   inkscape:pageopacity="0"
   inkscape:pageshadow="2"
   inkscape:window-width="640"
   inkscape:window-height="480"
   id="namedview95"
   showgrid="false"
   inkscape:zoom="0.83709273"
   inkscape:cx="199.26749"
   inkscape:cy="39.500001"
   inkscape:window-x="0"
   inkscape:window-y="0"
   inkscape:window-maximized="0"
   inkscape:current-layer="svg93" />
 <defs
   id="defs4">
  <style
   type="text/css"
   id="style2">
   <![CDATA[
    .str0 {stroke:#FEFEFE;stroke-width:0.15;stroke-miterlimit:22.9256}
    .fil3 {fill:none;fill-rule:nonzero}
    .fil1 {fill:#00A0E3}
    .fil0 {fill:#393185}
    .fil2 {fill:#FEFEFE;fill-rule:nonzero}
   ]]>
  </style>
 </defs>
 <g
   id="Layer_x0020_1"
   transform="translate(-0.11905063)">
  <metadata
   id="CorelCorpID_0Corel-Layer" />
  <rect
   class="fil0"
   width="110.89"
   height="40.450001"
   id="rect7"
   x="0"
   y="0"
   style="fill:#393185" />
  <rect
   class="fil1"
   x="111.95"
   width="92.110001"
   height="40.450001"
   id="rect9"
   y="0"
   style="fill:#00a0e3" />
  <path
   class="fil2"
   d="m 8.24,13.43 v 13.58 h 5.34 c 3.82,0 5.02,-1.75 5.02,-3.9 0,-1.61 -0.89,-2.85 -2.31,-3.18 1.05,-0.43 1.79,-1.38 1.79,-2.89 0,-1.34 -0.66,-3.61 -4.6,-3.61 z m 2.68,2.52 h 2.85 c 1.52,0 1.79,0.83 1.79,1.45 0,0.64 -0.35,1.46 -1.79,1.46 h -2.85 z m 0,5.22 h 3.22 c 1.4,0 1.94,0.79 1.94,1.65 0,0.87 -0.48,1.65 -1.94,1.65 h -3.22 z"
   id="path11"
   inkscape:connector-curvature="0"
   style="fill:#fefefe;fill-rule:nonzero" />
  <path
   id="1"
   class="fil2"
   d="m 32.2,13.43 h -2.68 v 7.82 c 0,2.54 -1.42,3.37 -2.83,3.37 -1.42,0 -2.84,-0.83 -2.84,-3.37 v -7.82 h -2.67 v 7.87 c 0,3.92 2.63,5.84 5.51,5.84 2.85,0 5.51,-1.92 5.51,-5.84 z"
   inkscape:connector-curvature="0"
   style="fill:#fefefe;fill-rule:nonzero" />
  <path
   id="2"
   class="fil2"
   d="m 39.91,13.29 c -2.81,0.04 -5.02,1.59 -5.02,4.13 0,2.39 1.99,3.42 4.59,3.73 l 1.07,0.12 c 1.4,0.17 2.5,0.5 2.5,1.68 0,1.03 -1.02,1.65 -2.6,1.67 h -0.11 c -2.02,0 -3.42,-0.97 -4.02,-1.82 l -1.74,1.61 c 1.06,1.45 3.04,2.73 5.76,2.73 h 0.11 c 3.01,-0.02 5.28,-1.61 5.28,-4.19 0,-2.81 -2.06,-3.84 -4.81,-4.17 l -1.09,-0.11 c -1.22,-0.16 -2.27,-0.43 -2.27,-1.34 0,-1.19 1.46,-1.52 2.35,-1.52 h 0.16 c 0.99,0 2.48,0.53 3.49,1.34 l 1.74,-1.61 c -1.39,-1.32 -3.31,-2.25 -5.23,-2.25 z"
   inkscape:connector-curvature="0"
   style="fill:#fefefe;fill-rule:nonzero" />
  <polygon
   id="3"
   class="fil2"
   points="54.22,15.95 54.22,13.43 48.28,13.43 48.28,15.95 49.91,15.95 49.91,24.49 48.28,24.49 48.28,27.01 54.22,27.01 54.22,24.49 52.59,24.49 52.59,15.95 "
   style="fill:#fefefe;fill-rule:nonzero" />
  <polygon
   id="4"
   class="fil2"
   points="65.64,13.43 65.64,21.98 59.2,13.43 57.63,13.43 57.63,27.01 60.31,27.01 60.31,18.45 66.73,27.01 68.32,27.01 68.32,13.43 "
   style="fill:#fefefe;fill-rule:nonzero" />
  <polygon
   id="5"
   class="fil2"
   points="80.75,15.95 80.75,13.43 71.71,13.43 71.71,27.01 80.75,27.01 80.75,24.49 74.38,24.49 74.38,21.44 80.26,21.44 80.26,18.92 74.38,18.92 74.38,15.95 "
   style="fill:#fefefe;fill-rule:nonzero" />
  <path
   id="6"
   class="fil2"
   d="m 87.65,13.29 c -2.82,0.04 -5.03,1.59 -5.03,4.13 0,2.39 2,3.42 4.6,3.73 l 1.07,0.12 c 1.39,0.17 2.5,0.5 2.5,1.68 0,1.03 -1.03,1.65 -2.6,1.67 h -0.12 c -2.01,0 -3.41,-0.97 -4.01,-1.82 l -1.75,1.61 c 1.07,1.45 3.05,2.73 5.76,2.73 h 0.12 c 3.01,-0.02 5.28,-1.61 5.28,-4.19 0,-2.81 -2.06,-3.84 -4.81,-4.17 l -1.09,-0.11 c -1.22,-0.16 -2.27,-0.43 -2.27,-1.34 0,-1.19 1.46,-1.52 2.35,-1.52 h 0.15 c 0.99,0 2.49,0.53 3.5,1.34 l 1.74,-1.61 c -1.4,-1.32 -3.32,-2.25 -5.24,-2.25 z"
   inkscape:connector-curvature="0"
   style="fill:#fefefe;fill-rule:nonzero" />
  <path
   id="7"
   class="fil2"
   d="m 100.5,13.16 c -2.88,0.04 -5.15,1.63 -5.15,4.23 0,2.45 2.05,3.5 4.71,3.82 l 1.1,0.12 c 1.43,0.18 2.56,0.51 2.56,1.73 0,1.05 -1.06,1.68 -2.66,1.7 h -0.12 c -2.07,0 -3.5,-0.99 -4.12,-1.86 l -1.78,1.65 c 1.09,1.48 3.12,2.8 5.9,2.8 h 0.12 c 3.07,-0.02 5.4,-1.65 5.4,-4.29 0,-2.88 -2.11,-3.94 -4.93,-4.28 l -1.11,-0.11 C 99.17,18.51 98.1,18.23 98.1,17.3 c 0,-1.22 1.49,-1.55 2.4,-1.55 h 0.16 c 1.01,0 2.54,0.53 3.57,1.37 l 1.79,-1.65 c -1.43,-1.35 -3.4,-2.31 -5.36,-2.31 z"
   inkscape:connector-curvature="0"
   style="fill:#fefefe;fill-rule:nonzero" />
  <path
   id="8"
   class="fil3 str0"
   d="m 8.24,13.43 v 13.58 h 5.34 c 3.82,0 5.02,-1.75 5.02,-3.9 0,-1.61 -0.89,-2.85 -2.31,-3.18 1.05,-0.43 1.79,-1.38 1.79,-2.89 0,-1.34 -0.66,-3.61 -4.6,-3.61 z m 2.68,2.52 h 2.85 c 1.52,0 1.79,0.83 1.79,1.45 0,0.64 -0.35,1.46 -1.79,1.46 h -2.85 z m 0,5.22 h 3.22 c 1.4,0 1.94,0.79 1.94,1.65 0,0.87 -0.48,1.65 -1.94,1.65 h -3.22 z"
   inkscape:connector-curvature="0"
   style="fill:none;fill-rule:nonzero;stroke:#fefefe;stroke-width:0.15000001;stroke-miterlimit:22.92560005" />
  <path
   id="9"
   class="fil3 str0"
   d="m 32.2,13.43 h -2.68 v 7.82 c 0,2.54 -1.42,3.37 -2.83,3.37 -1.42,0 -2.84,-0.83 -2.84,-3.37 v -7.82 h -2.67 v 7.87 c 0,3.92 2.63,5.84 5.51,5.84 2.85,0 5.51,-1.92 5.51,-5.84 z"
   inkscape:connector-curvature="0"
   style="fill:none;fill-rule:nonzero;stroke:#fefefe;stroke-width:0.15000001;stroke-miterlimit:22.92560005" />
  <path
   id="10"
   class="fil3 str0"
   d="m 39.91,13.29 c -2.81,0.04 -5.02,1.59 -5.02,4.13 0,2.39 1.99,3.42 4.59,3.73 l 1.07,0.12 c 1.4,0.17 2.5,0.5 2.5,1.68 0,1.03 -1.02,1.65 -2.6,1.67 h -0.11 c -2.02,0 -3.42,-0.97 -4.02,-1.82 l -1.74,1.61 c 1.06,1.45 3.04,2.73 5.76,2.73 h 0.11 c 3.01,-0.02 5.28,-1.61 5.28,-4.19 0,-2.81 -2.06,-3.84 -4.81,-4.17 l -1.09,-0.11 c -1.22,-0.16 -2.27,-0.43 -2.27,-1.34 0,-1.19 1.46,-1.52 2.35,-1.52 h 0.16 c 0.99,0 2.48,0.53 3.49,1.34 l 1.74,-1.61 c -1.39,-1.32 -3.31,-2.25 -5.23,-2.25 z"
   inkscape:connector-curvature="0"
   style="fill:none;fill-rule:nonzero;stroke:#fefefe;stroke-width:0.15000001;stroke-miterlimit:22.92560005" />
  <polygon
   id="11"
   class="fil3 str0"
   points="54.22,15.95 54.22,13.43 48.28,13.43 48.28,15.95 49.91,15.95 49.91,24.49 48.28,24.49 48.28,27.01 54.22,27.01 54.22,24.49 52.59,24.49 52.59,15.95 "
   style="fill:none;fill-rule:nonzero;stroke:#fefefe;stroke-width:0.15000001;stroke-miterlimit:22.92560005" />
  <polygon
   id="12"
   class="fil3 str0"
   points="65.64,13.43 65.64,21.98 59.2,13.43 57.63,13.43 57.63,27.01 60.31,27.01 60.31,18.45 66.73,27.01 68.32,27.01 68.32,13.43 "
   style="fill:none;fill-rule:nonzero;stroke:#fefefe;stroke-width:0.15000001;stroke-miterlimit:22.92560005" />
  <polygon
   id="13"
   class="fil3 str0"
   points="80.75,15.95 80.75,13.43 71.71,13.43 71.71,27.01 80.75,27.01 80.75,24.49 74.38,24.49 74.38,21.44 80.26,21.44 80.26,18.92 74.38,18.92 74.38,15.95 "
   style="fill:none;fill-rule:nonzero;stroke:#fefefe;stroke-width:0.15000001;stroke-miterlimit:22.92560005" />
  <path
   id="14"
   class="fil3 str0"
   d="m 87.65,13.29 c -2.82,0.04 -5.03,1.59 -5.03,4.13 0,2.39 2,3.42 4.6,3.73 l 1.07,0.12 c 1.39,0.17 2.5,0.5 2.5,1.68 0,1.03 -1.03,1.65 -2.6,1.67 h -0.12 c -2.01,0 -3.41,-0.97 -4.01,-1.82 l -1.75,1.61 c 1.07,1.45 3.05,2.73 5.76,2.73 h 0.12 c 3.01,-0.02 5.28,-1.61 5.28,-4.19 0,-2.81 -2.06,-3.84 -4.81,-4.17 l -1.09,-0.11 c -1.22,-0.16 -2.27,-0.43 -2.27,-1.34 0,-1.19 1.46,-1.52 2.35,-1.52 h 0.15 c 0.99,0 2.49,0.53 3.5,1.34 l 1.74,-1.61 c -1.4,-1.32 -3.32,-2.25 -5.24,-2.25 z"
   inkscape:connector-curvature="0"
   style="fill:none;fill-rule:nonzero;stroke:#fefefe;stroke-width:0.15000001;stroke-miterlimit:22.92560005" />
  <path
   id="15"
   class="fil3 str0"
   d="m 100.5,13.16 c -2.88,0.04 -5.15,1.63 -5.15,4.23 0,2.45 2.05,3.5 4.71,3.82 l 1.1,0.12 c 1.43,0.18 2.56,0.51 2.56,1.73 0,1.05 -1.06,1.68 -2.66,1.7 h -0.12 c -2.07,0 -3.5,-0.99 -4.12,-1.86 l -1.78,1.65 c 1.09,1.48 3.12,2.8 5.9,2.8 h 0.12 c 3.07,-0.02 5.4,-1.65 5.4,-4.29 0,-2.88 -2.11,-3.94 -4.93,-4.28 l -1.11,-0.11 C 99.17,18.51 98.1,18.23 98.1,17.3 c 0,-1.22 1.49,-1.55 2.4,-1.55 h 0.16 c 1.01,0 2.54,0.53 3.57,1.37 l 1.79,-1.65 c -1.43,-1.35 -3.4,-2.31 -5.36,-2.31 z"
   inkscape:connector-curvature="0"
   style="fill:none;fill-rule:nonzero;stroke:#fefefe;stroke-width:0.15000001;stroke-miterlimit:22.92560005" />
  <path
   class="fil2"
   d="m 123.18,13.31 c -3.82,0 -6.91,3.1 -6.91,6.93 0,3.82 3.09,6.92 6.91,6.92 2.02,0 3.84,-0.87 5.12,-2.25 v -5.39 h -5.16 v 2.02 h 2.49 v 2.34 c -0.68,0.49 -1.54,0.76 -2.45,0.76 -2.37,0 -4.23,-1.8 -4.23,-4.4 0,-2.62 1.86,-4.41 4.23,-4.41 1.32,0 2.5,0.47 3.38,1.34 l 1.74,-1.61 c -1.28,-1.38 -3.1,-2.25 -5.12,-2.25 z"
   id="path28"
   inkscape:connector-curvature="0"
   style="fill:#fefefe;fill-rule:nonzero" />
  <path
   id="path30"
   class="fil2"
   d="m 134.33,24.52 h 4.79 l 0.97,2.49 h 2.97 l -5.51,-13.58 h -1.57 l -5.59,13.58 h 2.97 z m 2.41,-6.24 1.45,3.7 h -2.93 z"
   inkscape:connector-curvature="0"
   style="fill:#fefefe;fill-rule:nonzero" />
  <polygon
   id="polygon32"
   class="fil2"
   points="148.14,24.49 154.36,15.02 154.36,13.43 144.95,13.43 144.95,15.95 150.66,15.95 144.43,25.44 144.43,27.01 154.54,27.01 154.54,24.49 "
   style="fill:#fefefe;fill-rule:nonzero" />
  <polygon
   id="polygon34"
   class="fil2"
   points="166.13,15.95 166.13,13.43 157.09,13.43 157.09,27.01 166.13,27.01 166.13,24.49 159.77,24.49 159.77,21.44 165.65,21.44 165.65,18.92 159.77,18.92 159.77,15.95 "
   style="fill:#fefefe;fill-rule:nonzero" />
  <polygon
   id="polygon36"
   class="fil2"
   points="177.24,13.43 167.12,13.43 167.12,15.95 170.84,15.95 170.84,27.01 173.52,27.01 173.52,15.95 177.24,15.95 "
   style="fill:#fefefe;fill-rule:nonzero" />
  <polygon
   id="polygon38"
   class="fil2"
   points="186.22,13.43 176.09,13.43 176.09,15.95 179.82,15.95 179.82,27.01 182.49,27.01 182.49,15.95 186.22,15.95 "
   style="fill:#fefefe;fill-rule:nonzero" />
  <polygon
   id="polygon40"
   class="fil2"
   points="196.86,15.95 196.86,13.43 187.82,13.43 187.82,27.01 196.86,27.01 196.86,24.49 190.5,24.49 190.5,21.44 196.38,21.44 196.38,18.92 190.5,18.92 190.5,15.95 "
   style="fill:#fefefe;fill-rule:nonzero" />
  <path
   id="path42"
   class="fil3 str0"
   d="m 123.18,13.31 c -3.82,0 -6.91,3.1 -6.91,6.93 0,3.82 3.09,6.92 6.91,6.92 2.02,0 3.84,-0.87 5.12,-2.25 v -5.39 h -5.16 v 2.02 h 2.49 v 2.34 c -0.68,0.49 -1.54,0.76 -2.45,0.76 -2.37,0 -4.23,-1.8 -4.23,-4.4 0,-2.62 1.86,-4.41 4.23,-4.41 1.32,0 2.5,0.47 3.38,1.34 l 1.74,-1.61 c -1.28,-1.38 -3.1,-2.25 -5.12,-2.25 z"
   inkscape:connector-curvature="0"
   style="fill:none;fill-rule:nonzero;stroke:#fefefe;stroke-width:0.15000001;stroke-miterlimit:22.92560005" />
  <path
   id="path44"
   class="fil3 str0"
   d="m 134.33,24.52 h 4.79 l 0.97,2.49 h 2.97 l -5.51,-13.58 h -1.57 l -5.59,13.58 h 2.97 z m 2.41,-6.24 1.45,3.7 h -2.93 z"
   inkscape:connector-curvature="0"
   style="fill:none;fill-rule:nonzero;stroke:#fefefe;stroke-width:0.15000001;stroke-miterlimit:22.92560005" />
  <polygon
   id="polygon46"
   class="fil3 str0"
   points="148.14,24.49 154.36,15.02 154.36,13.43 144.95,13.43 144.95,15.95 150.66,15.95 144.43,25.44 144.43,27.01 154.54,27.01 154.54,24.49 "
   style="fill:none;fill-rule:nonzero;stroke:#fefefe;stroke-width:0.15000001;stroke-miterlimit:22.92560005" />
  <polygon
   id="polygon48"
   class="fil3 str0"
   points="166.13,15.95 166.13,13.43 157.09,13.43 157.09,27.01 166.13,27.01 166.13,24.49 159.77,24.49 159.77,21.44 165.65,21.44 165.65,18.92 159.77,18.92 159.77,15.95 "
   style="fill:none;fill-rule:nonzero;stroke:#fefefe;stroke-width:0.15000001;stroke-miterlimit:22.92560005" />
  <polygon
   id="polygon50"
   class="fil3 str0"
   points="177.24,13.43 167.12,13.43 167.12,15.95 170.84,15.95 170.84,27.01 173.52,27.01 173.52,15.95 177.24,15.95 "
   style="fill:none;fill-rule:nonzero;stroke:#fefefe;stroke-width:0.15000001;stroke-miterlimit:22.92560005" />
  <polygon
   id="polygon52"
   class="fil3 str0"
   points="186.22,13.43 176.09,13.43 176.09,15.95 179.82,15.95 179.82,27.01 182.49,27.01 182.49,15.95 186.22,15.95 "
   style="fill:none;fill-rule:nonzero;stroke:#fefefe;stroke-width:0.15000001;stroke-miterlimit:22.92560005" />
  <polygon
   id="polygon54"
   class="fil3 str0"
   points="196.86,15.95 196.86,13.43 187.82,13.43 187.82,27.01 196.86,27.01 196.86,24.49 190.5,24.49 190.5,21.44 196.38,21.44 196.38,18.92 190.5,18.92 190.5,15.95 "
   style="fill:none;fill-rule:nonzero;stroke:#fefefe;stroke-width:0.15000001;stroke-miterlimit:22.92560005" />
  <path
   class="fil2"
   d="m 147.26,30.34 c -1.82,0 -3.29,1.47 -3.29,3.29 0,1.83 1.47,3.3 3.29,3.3 1.82,0 3.3,-1.47 3.3,-3.3 0,-1.82 -1.48,-3.29 -3.3,-3.29 z m 0,0.67 c 1.43,0 2.58,1.13 2.58,2.62 0,1.51 -1.15,2.63 -2.58,2.63 -1.43,0 -2.57,-1.12 -2.57,-2.63 0,-1.49 1.14,-2.62 2.57,-2.62 z"
   id="path56"
   inkscape:connector-curvature="0"
   style="fill:#fefefe;fill-rule:nonzero" />
  <polygon
   id="polygon58"
   class="fil2"
   points="159.74,30.4 159.74,35.45 155.97,30.4 155.57,30.4 155.57,36.87 156.29,36.87 156.29,31.81 160.07,36.87 160.46,36.87 160.46,30.4 "
   style="fill:#fefefe;fill-rule:nonzero" />
  <polygon
   id="polygon60"
   class="fil2"
   points="166.6,36.19 166.6,30.4 165.88,30.4 165.88,36.87 169.91,36.87 169.91,36.19 "
   style="fill:#fefefe;fill-rule:nonzero" />
  <polygon
   id="polygon62"
   class="fil2"
   points="177.04,31.07 177.04,30.4 174.81,30.4 174.81,31.07 175.56,31.07 175.56,36.19 174.81,36.19 174.81,36.87 177.04,36.87 177.04,36.19 176.28,36.19 176.28,31.07 "
   style="fill:#fefefe;fill-rule:nonzero" />
  <polygon
   id="polygon64"
   class="fil2"
   points="186.63,30.4 186.63,35.45 182.86,30.4 182.46,30.4 182.46,36.87 183.18,36.87 183.18,31.81 186.96,36.87 187.35,36.87 187.35,30.4 "
   style="fill:#fefefe;fill-rule:nonzero" />
  <polygon
   id="polygon66"
   class="fil2"
   points="196.86,31.07 196.86,30.4 192.77,30.4 192.77,36.87 196.86,36.87 196.86,36.19 193.49,36.19 193.49,33.94 196.66,33.94 196.66,33.26 193.49,33.26 193.49,31.07 "
   style="fill:#fefefe;fill-rule:nonzero" />
  <path
   id="path68"
   class="fil3 str0"
   d="m 147.26,30.34 c -1.82,0 -3.29,1.47 -3.29,3.29 0,1.83 1.47,3.3 3.29,3.3 1.82,0 3.3,-1.47 3.3,-3.3 0,-1.82 -1.48,-3.29 -3.3,-3.29 z m 0,0.67 c 1.43,0 2.58,1.13 2.58,2.62 0,1.51 -1.15,2.63 -2.58,2.63 -1.43,0 -2.57,-1.12 -2.57,-2.63 0,-1.49 1.14,-2.62 2.57,-2.62 z"
   inkscape:connector-curvature="0"
   style="fill:none;fill-rule:nonzero;stroke:#fefefe;stroke-width:0.15000001;stroke-miterlimit:22.92560005" />
  <polygon
   id="polygon70"
   class="fil3 str0"
   points="159.74,30.4 159.74,35.45 155.97,30.4 155.57,30.4 155.57,36.87 156.29,36.87 156.29,31.81 160.07,36.87 160.46,36.87 160.46,30.4 "
   style="fill:none;fill-rule:nonzero;stroke:#fefefe;stroke-width:0.15000001;stroke-miterlimit:22.92560005" />
  <polygon
   id="polygon72"
   class="fil3 str0"
   points="166.6,36.19 166.6,30.4 165.88,30.4 165.88,36.87 169.91,36.87 169.91,36.19 "
   style="fill:none;fill-rule:nonzero;stroke:#fefefe;stroke-width:0.15000001;stroke-miterlimit:22.92560005" />
  <polygon
   id="polygon74"
   class="fil3 str0"
   points="177.04,31.07 177.04,30.4 174.81,30.4 174.81,31.07 175.56,31.07 175.56,36.19 174.81,36.19 174.81,36.87 177.04,36.87 177.04,36.19 176.28,36.19 176.28,31.07 "
   style="fill:none;fill-rule:nonzero;stroke:#fefefe;stroke-width:0.15000001;stroke-miterlimit:22.92560005" />
  <polygon
   id="polygon76"
   class="fil3 str0"
   points="186.63,30.4 186.63,35.45 182.86,30.4 182.46,30.4 182.46,36.87 183.18,36.87 183.18,31.81 186.96,36.87 187.35,36.87 187.35,30.4 "
   style="fill:none;fill-rule:nonzero;stroke:#fefefe;stroke-width:0.15000001;stroke-miterlimit:22.92560005" />
  <polygon
   id="polygon78"
   class="fil3 str0"
   points="196.86,31.07 196.86,30.4 192.77,30.4 192.77,36.87 196.86,36.87 196.86,36.19 193.49,36.19 193.49,33.94 196.66,33.94 196.66,33.26 193.49,33.26 193.49,31.07 "
   style="fill:none;fill-rule:nonzero;stroke:#fefefe;stroke-width:0.15000001;stroke-miterlimit:22.92560005" />
  <polygon
   class="fil2"
   points="34.6,4.2 29.88,4.2 29.88,4.87 31.89,4.87 31.89,10.67 32.61,10.67 32.61,4.87 34.6,4.87 "
   id="polygon80"
   style="fill:#fefefe;fill-rule:nonzero" />
  <polygon
   id="polygon82"
   class="fil2"
   points="43.67,4.2 43.67,7.05 40.22,7.05 40.22,4.2 39.5,4.2 39.5,10.67 40.22,10.67 40.22,7.73 43.67,7.73 43.67,10.67 44.39,10.67 44.39,4.2 "
   style="fill:#fefefe;fill-rule:nonzero" />
  <polygon
   id="polygon84"
   class="fil2"
   points="53.98,4.87 53.98,4.2 49.89,4.2 49.89,10.67 53.98,10.67 53.98,9.99 50.61,9.99 50.61,7.74 53.78,7.74 53.78,7.06 50.61,7.06 50.61,4.87 "
   style="fill:#fefefe;fill-rule:nonzero" />
  <polygon
   id="polygon86"
   class="fil3 str0"
   points="34.6,4.2 29.88,4.2 29.88,4.87 31.89,4.87 31.89,10.67 32.61,10.67 32.61,4.87 34.6,4.87 "
   style="fill:none;fill-rule:nonzero;stroke:#fefefe;stroke-width:0.15000001;stroke-miterlimit:22.92560005" />
  <polygon
   id="polygon88"
   class="fil3 str0"
   points="43.67,4.2 43.67,7.05 40.22,7.05 40.22,4.2 39.5,4.2 39.5,10.67 40.22,10.67 40.22,7.73 43.67,7.73 43.67,10.67 44.39,10.67 44.39,4.2 "
   style="fill:none;fill-rule:nonzero;stroke:#fefefe;stroke-width:0.15000001;stroke-miterlimit:22.92560005" />
  <polygon
   id="polygon90"
   class="fil3 str0"
   points="53.98,4.87 53.98,4.2 49.89,4.2 49.89,10.67 53.98,10.67 53.98,9.99 50.61,9.99 50.61,7.74 53.78,7.74 53.78,7.06 50.61,7.06 50.61,4.87 "
   style="fill:none;fill-rule:nonzero;stroke:#fefefe;stroke-width:0.15000001;stroke-miterlimit:22.92560005" />
 </g>
</svg>