<?xml version="1.0" encoding="UTF-8" standalone="no"?>
<!-- Generator: Adobe Illustrator 23.0.5, SVG Export Plug-In . SVG Version: 6.00 Build 0)  -->

<svg
   xmlns:dc="http://purl.org/dc/elements/1.1/"
   xmlns:cc="http://creativecommons.org/ns#"
   xmlns:rdf="http://www.w3.org/1999/02/22-rdf-syntax-ns#"
   xmlns:svg="http://www.w3.org/2000/svg"
   xmlns="http://www.w3.org/2000/svg"
   xmlns:sodipodi="http://sodipodi.sourceforge.net/DTD/sodipodi-0.dtd"
   xmlns:inkscape="http://www.inkscape.org/namespaces/inkscape"
   version="1.1"
   id="Layer_1"
   x="0px"
   y="0px"
   viewBox="0 0 298.60001 91.5"
   enable-background="new 0 0 400 225"
   xml:space="preserve"
   sodipodi:docname="TodayFromCanada-logo-b10-SVG-Resized_cropped.svg"
   width="298.60001"
   height="91.5"
   inkscape:version="0.92.3 (2405546, 2018-03-11)"><metadata
   id="metadata41"><rdf:RDF><cc:Work
       rdf:about=""><dc:format>image/svg+xml</dc:format><dc:type
         rdf:resource="http://purl.org/dc/dcmitype/StillImage" /></cc:Work></rdf:RDF></metadata><defs
   id="defs39" /><sodipodi:namedview
   pagecolor="#ffffff"
   bordercolor="#666666"
   borderopacity="1"
   objecttolerance="10"
   gridtolerance="10"
   guidetolerance="10"
   inkscape:pageopacity="0"
   inkscape:pageshadow="2"
   inkscape:window-width="640"
   inkscape:window-height="480"
   id="namedview37"
   showgrid="false"
   inkscape:zoom="0.835"
   inkscape:cx="157.3"
   inkscape:cy="42.4"
   inkscape:window-x="0"
   inkscape:window-y="0"
   inkscape:window-maximized="0"
   inkscape:current-layer="Layer_1" />
<polygon
   points="133.5,102.9 125,104.2 122.5,99.7 116.6,106.5 114.1,100.8 104.4,108.1 110.3,91.5 104.2,91.3 106.2,80.8 99.5,82 90.6,63.4 81.4,82 74.8,80.1 76.9,90.6 69.8,91.1 74.9,105.8 66.7,99.6 64.3,104.2 58.3,97.9 55.5,102.8 45.7,100.7 47.6,110.9 42.7,113.6 49,119.7 43.6,122.8 68.1,137.2 60.7,154.9 90.6,146 113.6,153 90.3,144.5 65.3,151.1 71.7,136.4 50.8,123.4 54.8,120.6 49.1,114.4 51.6,112.3 50.2,105.9 57.5,106.9 58.9,104.5 65.7,110.8 68.1,105.6 83.8,117.8 75.4,94.9 81.5,94.7 79.6,85.7 83.8,86.4 90.5,72.3 97.7,86.4 101.8,85.3 100.1,94.2 106.2,94.2 99.1,115.9 113.2,104.4 116.1,109.7 122.2,102.7 124.3,105.6 132.3,104.3 130.8,112.2 134.8,114.2 129.3,119.5 135.9,114.3 132.3,111.6 "
   id="polygon2"
   style="fill:#d22129"
   transform="translate(-42.7,-63.4)" />
<g
   enable-background="new    "
   id="g34"
   transform="translate(-42.7,-63.4)">
	<path
   d="m 81.5,142.5 v -2.4 l 2.1,-0.4 V 125.8 H 80 l -0.2,2.4 h -3 v -5.4 h 17.6 v 5.4 h -3 l -0.2,-2.4 h -3.6 v 13.9 l 2.1,0.4 v 2.4 z"
   id="path4"
   inkscape:connector-curvature="0"
   style="fill:#3f3e3e" />
	<path
   d="m 101.8,142.8 c -1.4,0 -2.7,-0.3 -3.7,-1 -1,-0.6 -1.8,-1.5 -2.4,-2.6 -0.6,-1.1 -0.8,-2.4 -0.8,-3.9 V 135 c 0,-1.5 0.3,-2.8 0.8,-3.9 0.6,-1.1 1.3,-2 2.4,-2.6 1.1,-0.6 2.3,-1 3.7,-1 1.5,0 2.7,0.3 3.7,1 1,0.6 1.8,1.5 2.4,2.6 0.6,1.1 0.8,2.4 0.8,3.9 v 0.3 c 0,1.5 -0.3,2.8 -0.8,3.9 -0.6,1.1 -1.3,2 -2.4,2.6 -1,0.7 -2.2,1 -3.7,1 z m 0,-3.1 c 0.7,0 1.3,-0.2 1.7,-0.6 0.4,-0.4 0.8,-0.9 1,-1.6 0.2,-0.7 0.3,-1.4 0.3,-2.3 V 135 c 0,-0.9 -0.1,-1.6 -0.3,-2.3 -0.2,-0.7 -0.5,-1.2 -1,-1.6 -0.5,-0.4 -1,-0.6 -1.7,-0.6 -0.7,0 -1.2,0.2 -1.7,0.6 -0.4,0.4 -0.8,0.9 -1,1.6 -0.2,0.7 -0.3,1.4 -0.3,2.3 v 0.3 c 0,0.9 0.1,1.7 0.3,2.3 0.2,0.7 0.5,1.2 1,1.6 0.5,0.4 1,0.5 1.7,0.5 z"
   id="path6"
   inkscape:connector-curvature="0"
   style="fill:#3f3e3e" />
	<path
   d="m 116.3,142.8 c -1.2,0 -2.2,-0.3 -3,-0.9 -0.8,-0.6 -1.5,-1.4 -1.9,-2.5 -0.4,-1.1 -0.7,-2.3 -0.7,-3.8 v -0.3 c 0,-1.5 0.2,-2.9 0.7,-4.1 0.5,-1.2 1.1,-2.1 1.9,-2.7 0.8,-0.6 1.8,-1 3,-1 0.8,0 1.5,0.2 2.1,0.5 0.6,0.3 1.1,0.8 1.6,1.4 v -5.3 l -2.1,-0.4 v -2.4 h 2.1 4 v 18.4 l 1.9,0.4 v 2.4 h -5.3 l -0.3,-1.8 c -0.5,0.7 -1,1.2 -1.7,1.5 -0.7,0.4 -1.4,0.6 -2.3,0.6 z m 1.2,-3.1 c 0.6,0 1,-0.1 1.5,-0.4 0.4,-0.2 0.8,-0.6 1,-1 v -6.2 c -0.3,-0.5 -0.6,-0.8 -1,-1.1 -0.4,-0.3 -0.9,-0.4 -1.4,-0.4 -0.7,0 -1.2,0.2 -1.6,0.6 -0.4,0.4 -0.7,0.9 -0.9,1.6 -0.2,0.7 -0.3,1.5 -0.3,2.4 v 0.3 c 0,1.3 0.2,2.3 0.7,3 0.3,0.8 1,1.2 2,1.2 z"
   id="path8"
   inkscape:connector-curvature="0"
   style="fill:#3f3e3e" />
	<path
   d="m 132,142.8 c -1.5,0 -2.6,-0.4 -3.5,-1.2 -0.9,-0.8 -1.3,-1.9 -1.3,-3.2 0,-0.9 0.3,-1.7 0.8,-2.4 0.5,-0.7 1.2,-1.2 2.2,-1.6 1,-0.4 2.2,-0.6 3.6,-0.6 h 1.9 v -1.1 c 0,-0.7 -0.2,-1.3 -0.6,-1.7 -0.4,-0.4 -1,-0.7 -1.9,-0.7 -0.4,0 -0.8,0.1 -1.1,0.2 -0.3,0.1 -0.6,0.3 -0.9,0.4 l -0.3,1.9 H 128 l -0.1,-3.8 c 0.8,-0.4 1.6,-0.8 2.5,-1.1 0.9,-0.3 1.9,-0.4 3,-0.4 1.9,0 3.4,0.4 4.6,1.3 1.2,0.9 1.7,2.2 1.7,3.8 v 6.1 c 0,0.2 0,0.4 0,0.6 0,0.2 0,0.4 0,0.6 l 1.5,0.2 v 2.4 h -4.9 c -0.1,-0.3 -0.2,-0.5 -0.3,-0.8 -0.1,-0.3 -0.2,-0.6 -0.2,-0.9 -0.5,0.6 -1,1.1 -1.7,1.4 -0.5,0.4 -1.2,0.6 -2.1,0.6 z m 1.1,-2.9 c 0.6,0 1.1,-0.1 1.6,-0.4 0.5,-0.2 0.9,-0.6 1.2,-1 v -2.3 h -2 c -0.9,0 -1.5,0.2 -2,0.6 -0.4,0.4 -0.7,0.9 -0.7,1.4 0,0.5 0.2,0.9 0.5,1.2 0.3,0.3 0.8,0.5 1.4,0.5 z"
   id="path10"
   inkscape:connector-curvature="0"
   style="fill:#3f3e3e" />
	<path
   d="m 146.3,148.4 c -0.3,0 -0.7,0 -1.1,-0.1 -0.4,-0.1 -0.7,-0.1 -1.1,-0.2 l 0.4,-2.9 c 0.2,0 0.4,0.1 0.6,0.1 0.2,0 0.4,0 0.5,0 0.6,0 1.1,-0.1 1.5,-0.4 0.4,-0.3 0.7,-0.7 0.9,-1.3 l 0.3,-0.9 -4.9,-12.2 -1.8,-0.3 v -2.4 h 7.8 v 2.4 l -1.8,0.3 2.3,6.5 0.3,0.8 h 0.1 l 2.7,-7.3 -1.8,-0.2 v -2.4 h 7.3 v 2.4 l -1.7,0.2 -5.6,14.3 c -0.3,0.7 -0.6,1.3 -1,1.9 -0.4,0.6 -1,1 -1.6,1.4 -0.6,0.2 -1.4,0.3 -2.3,0.3 z"
   id="path12"
   inkscape:connector-curvature="0"
   style="fill:#3f3e3e" />
	<path
   d="m 166.4,142.5 v -2.4 l 2.1,-0.4 v -14.2 l -2.1,-0.4 v -2.4 h 15.7 v 5.4 h -3 l -0.2,-2.4 h -6.5 v 5.4 h 6.9 v 3.1 h -6.9 v 5.4 l 2.1,0.4 v 2.4 h -8.1 z"
   id="path14"
   inkscape:connector-curvature="0"
   style="fill:#3f3e3e" />
	<path
   d="m 183.6,142.5 v -2.4 l 1.9,-0.4 v -9.1 l -2.1,-0.4 v -2.4 h 5.8 l 0.1,1.8 v 0.3 c 0.4,-0.8 0.8,-1.4 1.3,-1.8 0.5,-0.4 1.2,-0.6 1.9,-0.6 0.2,0 0.5,0 0.8,0.1 0.3,0.1 0.5,0.1 0.7,0.2 l -0.4,3.7 -2,-0.1 c -0.6,0 -1,0.1 -1.4,0.3 -0.3,0.2 -0.7,0.5 -0.9,0.9 v 7.2 l 1.9,0.4 v 2.4 h -7.6 z"
   id="path16"
   inkscape:connector-curvature="0"
   style="fill:#3f3e3e" />
	<path
   d="m 202.1,142.8 c -1.4,0 -2.7,-0.3 -3.7,-1 -1,-0.6 -1.8,-1.5 -2.4,-2.6 -0.6,-1.1 -0.8,-2.4 -0.8,-3.9 V 135 c 0,-1.5 0.3,-2.8 0.8,-3.9 0.6,-1.1 1.3,-2 2.4,-2.6 1.1,-0.6 2.3,-1 3.7,-1 1.5,0 2.7,0.3 3.7,1 1,0.7 1.8,1.5 2.4,2.6 0.6,1.1 0.8,2.4 0.8,3.9 v 0.3 c 0,1.5 -0.3,2.8 -0.8,3.9 -0.5,1.1 -1.3,2 -2.4,2.6 -1.1,0.7 -2.3,1 -3.7,1 z m 0,-3.1 c 0.7,0 1.3,-0.2 1.7,-0.6 0.4,-0.4 0.8,-0.9 1,-1.6 0.2,-0.7 0.3,-1.4 0.3,-2.3 V 135 c 0,-0.9 -0.1,-1.6 -0.3,-2.3 -0.2,-0.7 -0.5,-1.2 -1,-1.6 -0.5,-0.4 -1,-0.6 -1.7,-0.6 -0.7,0 -1.2,0.2 -1.7,0.6 -0.4,0.4 -0.8,0.9 -1,1.6 -0.2,0.7 -0.3,1.4 -0.3,2.3 v 0.3 c 0,0.9 0.1,1.7 0.3,2.3 0.2,0.7 0.5,1.2 1,1.6 0.4,0.4 1,0.5 1.7,0.5 z"
   id="path18"
   inkscape:connector-curvature="0"
   style="fill:#3f3e3e" />
	<path
   d="m 210.6,142.5 v -2.4 l 1.9,-0.4 v -9.1 l -2.1,-0.4 v -2.4 h 5.8 l 0.2,1.9 c 0.5,-0.7 1.1,-1.3 1.8,-1.6 0.7,-0.3 1.5,-0.6 2.5,-0.6 0.9,0 1.8,0.2 2.4,0.6 0.7,0.4 1.2,1 1.5,1.9 0.5,-0.8 1,-1.4 1.8,-1.8 0.7,-0.4 1.6,-0.7 2.6,-0.7 1.4,0 2.6,0.5 3.4,1.5 0.8,1 1.3,2.5 1.3,4.5 v 6.2 l 1.9,0.4 v 2.4 H 228 v -2.4 l 1.7,-0.4 v -6.2 c 0,-1.1 -0.2,-1.8 -0.5,-2.3 -0.4,-0.4 -0.9,-0.6 -1.6,-0.6 -0.6,0 -1.1,0.2 -1.6,0.5 -0.4,0.3 -0.7,0.8 -0.9,1.4 v 7.2 l 1.6,0.4 v 2.4 h -7.2 v -2.4 l 1.6,-0.4 v -6.2 c 0,-1.1 -0.2,-1.8 -0.5,-2.2 -0.4,-0.4 -0.9,-0.7 -1.6,-0.7 -0.6,0 -1,0.1 -1.5,0.3 -0.4,0.2 -0.7,0.6 -1,1 v 7.8 l 1.7,0.4 v 2.4 z"
   id="path20"
   inkscape:connector-curvature="0"
   style="fill:#3f3e3e" />
	<path
   d="m 252.9,142.8 c -1.9,0 -3.6,-0.4 -5,-1.2 -1.4,-0.8 -2.5,-1.9 -3.3,-3.4 -0.8,-1.5 -1.2,-3.2 -1.2,-5.2 v -0.7 c 0,-1.9 0.4,-3.6 1.1,-5.1 0.7,-1.5 1.8,-2.6 3.2,-3.5 1.4,-0.8 3,-1.3 4.9,-1.3 1.3,0 2.6,0.2 3.8,0.6 1.2,0.4 2.2,1 3.1,1.7 v 4.8 h -2.9 l -0.4,-3 c -0.3,-0.2 -0.6,-0.4 -1,-0.6 -0.4,-0.2 -0.7,-0.3 -1.1,-0.4 -0.4,-0.1 -0.9,-0.1 -1.3,-0.1 -1.1,0 -2.1,0.3 -2.9,0.8 -0.8,0.6 -1.4,1.3 -1.9,2.3 -0.4,1 -0.6,2.2 -0.6,3.6 v 0.7 c 0,1.4 0.2,2.6 0.7,3.6 0.5,1 1.1,1.8 1.9,2.4 0.8,0.6 1.8,0.8 3,0.8 0.6,0 1.1,-0.1 1.7,-0.2 0.6,-0.1 1.1,-0.3 1.6,-0.5 l 0.4,-2.8 h 2.9 v 4.7 c -0.8,0.5 -1.7,0.9 -2.9,1.3 -1.1,0.5 -2.4,0.7 -3.8,0.7 z"
   id="path22"
   inkscape:connector-curvature="0"
   style="fill:#3f3e3e" />
	<path
   d="m 266.5,142.8 c -1.5,0 -2.6,-0.4 -3.5,-1.2 -0.9,-0.8 -1.3,-1.9 -1.3,-3.2 0,-0.9 0.3,-1.7 0.8,-2.4 0.5,-0.7 1.2,-1.2 2.2,-1.6 1,-0.4 2.2,-0.6 3.6,-0.6 h 1.9 v -1.1 c 0,-0.7 -0.2,-1.3 -0.6,-1.7 -0.4,-0.4 -1,-0.7 -1.9,-0.7 -0.4,0 -0.8,0.1 -1.1,0.2 -0.3,0.1 -0.6,0.3 -0.9,0.4 l -0.3,1.9 h -2.9 l -0.1,-3.8 c 0.8,-0.4 1.6,-0.8 2.5,-1.1 0.9,-0.3 1.9,-0.4 3,-0.4 1.9,0 3.4,0.4 4.6,1.3 1.2,0.9 1.7,2.2 1.7,3.8 v 6.1 c 0,0.2 0,0.4 0,0.6 0,0.2 0,0.4 0,0.6 l 1.5,0.2 v 2.4 h -4.9 c -0.1,-0.3 -0.2,-0.5 -0.3,-0.8 -0.1,-0.3 -0.2,-0.6 -0.2,-0.9 -0.5,0.6 -1,1.1 -1.7,1.4 -0.5,0.4 -1.3,0.6 -2.1,0.6 z m 1,-2.9 c 0.6,0 1.1,-0.1 1.6,-0.4 0.5,-0.2 0.9,-0.6 1.2,-1 v -2.3 h -2 c -0.9,0 -1.5,0.2 -2,0.6 -0.4,0.4 -0.7,0.9 -0.7,1.4 0,0.5 0.2,0.9 0.5,1.2 0.4,0.3 0.9,0.5 1.4,0.5 z"
   id="path24"
   inkscape:connector-curvature="0"
   style="fill:#3f3e3e" />
	<path
   d="m 277.1,142.5 v -2.4 l 1.9,-0.4 v -9.1 l -2.1,-0.4 v -2.4 h 5.8 l 0.2,2.1 c 0.5,-0.8 1.1,-1.3 1.8,-1.8 0.7,-0.4 1.5,-0.6 2.5,-0.6 1.5,0 2.6,0.5 3.4,1.4 0.8,0.9 1.2,2.4 1.2,4.4 v 6.4 l 1.9,0.4 v 2.4 h -7.6 v -2.4 l 1.7,-0.4 v -6.4 c 0,-1 -0.2,-1.7 -0.6,-2.1 -0.4,-0.4 -1,-0.6 -1.7,-0.6 -0.6,0 -1.1,0.1 -1.5,0.4 -0.4,0.2 -0.8,0.6 -1.1,1 v 7.7 l 1.6,0.4 v 2.4 z"
   id="path26"
   inkscape:connector-curvature="0"
   style="fill:#3f3e3e" />
	<path
   d="m 299.9,142.8 c -1.5,0 -2.6,-0.4 -3.5,-1.2 -0.9,-0.8 -1.3,-1.9 -1.3,-3.2 0,-0.9 0.3,-1.7 0.8,-2.4 0.5,-0.7 1.2,-1.2 2.2,-1.6 1,-0.4 2.2,-0.6 3.6,-0.6 h 1.9 v -1.1 c 0,-0.7 -0.2,-1.3 -0.6,-1.7 -0.4,-0.4 -1,-0.7 -1.9,-0.7 -0.4,0 -0.8,0.1 -1.1,0.2 -0.3,0.1 -0.6,0.3 -0.9,0.4 l -0.3,1.9 H 296 V 129 c 0.8,-0.4 1.6,-0.8 2.5,-1.1 0.9,-0.3 1.9,-0.4 3,-0.4 1.9,0 3.4,0.4 4.6,1.3 1.2,0.9 1.7,2.2 1.7,3.8 v 6.1 c 0,0.2 0,0.4 0,0.6 0,0.2 0,0.4 0,0.6 l 1.5,0.2 v 2.4 h -4.9 c -0.1,-0.3 -0.2,-0.5 -0.3,-0.8 -0.1,-0.3 -0.2,-0.6 -0.2,-0.9 -0.5,0.6 -1,1.1 -1.7,1.4 -0.7,0.4 -1.4,0.6 -2.3,0.6 z m 1.1,-2.9 c 0.6,0 1.1,-0.1 1.6,-0.4 0.5,-0.2 0.9,-0.6 1.2,-1 v -2.3 h -2 c -0.9,0 -1.5,0.2 -2,0.6 -0.4,0.4 -0.7,0.9 -0.7,1.4 0,0.5 0.2,0.9 0.5,1.2 0.3,0.3 0.8,0.5 1.4,0.5 z"
   id="path28"
   inkscape:connector-curvature="0"
   style="fill:#3f3e3e" />
	<path
   d="m 316.3,142.8 c -1.2,0 -2.2,-0.3 -3,-0.9 -0.8,-0.6 -1.5,-1.4 -1.9,-2.5 -0.4,-1.1 -0.7,-2.3 -0.7,-3.8 v -0.3 c 0,-1.5 0.2,-2.9 0.7,-4.1 0.5,-1.2 1.1,-2.1 1.9,-2.7 0.8,-0.6 1.8,-1 3,-1 0.8,0 1.5,0.2 2.1,0.5 0.6,0.3 1.1,0.8 1.6,1.4 v -5.3 l -2.1,-0.4 v -2.4 h 2.1 4 v 18.4 l 1.9,0.4 v 2.4 h -5.3 l -0.3,-1.8 c -0.5,0.7 -1,1.2 -1.7,1.5 -0.6,0.4 -1.4,0.6 -2.3,0.6 z m 1.2,-3.1 c 0.6,0 1,-0.1 1.5,-0.4 0.5,-0.3 0.8,-0.6 1,-1 v -6.2 c -0.3,-0.5 -0.6,-0.8 -1,-1.1 -0.4,-0.3 -0.9,-0.4 -1.4,-0.4 -0.7,0 -1.2,0.2 -1.6,0.6 -0.4,0.4 -0.7,0.9 -0.9,1.6 -0.2,0.7 -0.3,1.5 -0.3,2.4 v 0.3 c 0,1.3 0.2,2.3 0.7,3 0.5,0.7 1,1.2 2,1.2 z"
   id="path30"
   inkscape:connector-curvature="0"
   style="fill:#3f3e3e" />
	<path
   d="m 332.1,142.8 c -1.5,0 -2.6,-0.4 -3.5,-1.2 -0.9,-0.8 -1.3,-1.9 -1.3,-3.2 0,-0.9 0.3,-1.7 0.8,-2.4 0.5,-0.7 1.2,-1.2 2.2,-1.6 1,-0.4 2.2,-0.6 3.6,-0.6 h 1.9 v -1.1 c 0,-0.7 -0.2,-1.3 -0.6,-1.7 -0.4,-0.4 -1,-0.7 -1.9,-0.7 -0.4,0 -0.8,0.1 -1.1,0.2 -0.3,0.1 -0.6,0.3 -0.9,0.4 l -0.3,1.9 h -2.9 L 328,129 c 0.8,-0.4 1.6,-0.8 2.5,-1.1 0.9,-0.3 1.9,-0.4 3,-0.4 1.9,0 3.4,0.4 4.6,1.3 1.2,0.9 1.7,2.2 1.7,3.8 v 6.1 c 0,0.2 0,0.4 0,0.6 0,0.2 0,0.4 0,0.6 l 1.5,0.2 v 2.4 h -4.9 c -0.1,-0.3 -0.2,-0.5 -0.3,-0.8 -0.1,-0.3 -0.2,-0.6 -0.2,-0.9 -0.5,0.6 -1,1.1 -1.7,1.4 -0.5,0.4 -1.3,0.6 -2.1,0.6 z m 1,-2.9 c 0.6,0 1.1,-0.1 1.6,-0.4 0.5,-0.3 0.9,-0.6 1.2,-1 v -2.3 h -2 c -0.9,0 -1.5,0.2 -2,0.6 -0.4,0.4 -0.7,0.9 -0.7,1.4 0,0.5 0.2,0.9 0.5,1.2 0.4,0.3 0.8,0.5 1.4,0.5 z"
   id="path32"
   inkscape:connector-curvature="0"
   style="fill:#3f3e3e" />
</g>
</svg>